<svg width="1520" height="739" viewBox="0 0 1520 739" fill="none" xmlns="http://www.w3.org/2000/svg">
<g clip-path="url(#clip0_1_14)">
<g clip-path="url(#clip1_1_14)">
<mask id="mask0_1_14" style="mask-type:luminance" maskUnits="userSpaceOnUse" x="504" y="-140" width="1910" height="1055">
<path d="M2413.69 -139.418H504.984V914.99H2413.69V-139.418Z" fill="white"/>
</mask>
<g mask="url(#mask0_1_14)">
<g opacity="0.35">
<path d="M1540.6 511.535L1540.03 511.253L1337.38 394.284L1338.79 393.437L1540.6 277.034L1541.16 277.316L1743.82 394.284L1742.4 395.132L1540.6 511.535ZM1340.77 394.284L1540.6 509.557L1740.43 394.284L1540.6 279.012L1340.77 394.284Z" fill="#C63031"/>
<path d="M1439.41 336.931L1165.25 178.713H1001.88H1001.59L898.427 119.098V22.4727H900.123V117.969L1002.16 177.017H1165.81L1440.26 335.518L1439.41 336.931Z" fill="#C63031"/>
<path d="M1472.2 318.001L1193.79 157.24V61.7444L1094.3 4.39044L1095.15 2.97778L1195.49 60.8968V156.392L1473.05 316.588L1472.2 318.001Z" fill="#C63031"/>
<path d="M1506.68 298.223L1342.46 203.575V121.641L1343.03 121.358L1627.09 -42.7925L1627.94 -41.3798L1344.16 122.489V202.445L1507.53 296.528L1506.68 298.223Z" fill="#C63031"/>
<path d="M623.696 662.124H623.413H623.13L512.05 597.989L512.898 596.576L623.979 660.428H874.968L1056.43 555.609H1206.51L1413.13 436.664L1413.97 438.077L1207.08 557.305H1056.99L875.533 662.124H623.696Z" fill="#C63031"/>
<path d="M932.911 589.231L932.062 587.818L1021.94 535.832H1194.36L1389.67 423.102L1390.52 424.515L1194.64 537.528H1022.51L932.911 589.231Z" fill="#C63031"/>
<path d="M1300.07 476.218L1156.77 393.436H1054.45L988.31 431.578L987.461 430.165L1054.17 391.741H1157.33L1300.92 474.805L1300.07 476.218Z" fill="#C63031"/>
<path d="M910.299 682.749L909.451 681.336L989.44 635.283V595.729H991.136V636.131L990.853 636.414L910.299 682.749Z" fill="#C63031"/>
<path d="M1480.11 81.5217H1414.82V79.8265H1479.83L1596 12.8665L1596.85 14.2792L1480.11 81.5217Z" fill="#C63031"/>
<path d="M1476.72 279.294H1475.02V237.197L1394.18 190.579V145.092H1395.89V189.732L1476.72 236.349V279.294Z" fill="#C63031"/>
<path d="M1484.63 910.466H1482.94V818.364L1263.89 691.789V590.078L1264.17 589.796L1471.64 470.285L1472.48 471.698L1265.58 591.209V690.942L1484.63 817.233V910.466Z" fill="#C63031"/>
<path d="M1500.98 487.234L1348.67 575.013L1349.52 576.481L1501.82 488.702L1500.98 487.234Z" fill="#C63031"/>
<path d="M1353.77 607.03H1298.37V605.335H1353.2L1529.29 503.624L1530.14 505.036L1353.77 607.03Z" fill="#C63031"/>
<path d="M1447.61 649.127L1446.76 647.715L1590.63 564.651V531.029L1548.51 506.449L1549.36 505.036L1592.32 529.899V565.498L1592.04 565.78L1447.61 649.127Z" fill="#C63031"/>
<path d="M1438 623.135L1437.15 621.722L1501.87 584.428H1556.14V586.123H1502.44L1438 623.135Z" fill="#C63031"/>
<path d="M1439.13 702.808L1438.29 701.396L1504.71 663.254V632.458L1504.99 632.176L1580.17 588.949V571.148H1581.87V589.796L1581.58 590.078L1506.4 633.305V664.101L1505.83 664.384L1439.13 702.808Z" fill="#C63031"/>
<path d="M1432.34 625.677C1435.45 627.372 1440.26 627.372 1443.08 625.677C1446.2 623.982 1446.2 621.157 1443.08 619.461C1439.98 617.766 1435.17 617.766 1432.34 619.461C1429.24 621.157 1429.24 623.982 1432.34 625.677Z" fill="#C63031"/>
<path d="M1441.67 651.388C1444.78 653.083 1449.59 653.083 1452.41 651.388C1455.53 649.693 1455.53 646.867 1452.41 645.172C1449.31 643.477 1444.5 643.477 1441.67 645.172C1438.57 646.867 1438.57 649.693 1441.67 651.388Z" fill="#C63031"/>
<path d="M1146.31 729.084C1149.42 730.78 1154.22 730.78 1157.05 729.084C1160.16 727.389 1160.16 724.563 1157.05 722.869C1153.94 721.173 1149.13 721.173 1146.31 722.869C1143.48 724.563 1143.48 727.389 1146.31 729.084Z" fill="#C63031"/>
<path d="M1433.48 705.352C1436.58 707.046 1441.39 707.046 1444.22 705.352C1447.32 703.657 1447.32 700.831 1444.22 699.135C1441.11 697.441 1436.3 697.441 1433.48 699.135C1430.37 700.831 1430.37 703.657 1433.48 705.352Z" fill="#C63031"/>
<path d="M1293 609.291C1296.11 610.986 1300.92 610.986 1303.74 609.291C1306.85 607.595 1306.85 604.77 1303.74 603.075C1300.63 601.38 1295.83 601.38 1293 603.075C1289.89 604.77 1289.89 607.595 1293 609.291Z" fill="#C63031"/>
<path d="M985.765 431.86C988.874 433.556 993.679 433.556 996.505 431.86C999.615 430.166 999.615 427.34 996.505 425.645C993.396 423.95 988.591 423.95 985.765 425.645C982.938 427.623 982.938 430.166 985.765 431.86Z" fill="#C63031"/>
<path d="M1115.78 322.238C1118.89 323.934 1123.7 323.934 1126.52 322.238C1129.63 320.543 1129.63 317.718 1126.52 316.023C1123.41 314.328 1118.61 314.328 1115.78 316.023C1112.96 317.718 1112.96 320.543 1115.78 322.238Z" fill="#C63031"/>
<path d="M1189.27 360.098C1192.38 361.793 1197.18 361.793 1200.01 360.098C1203.12 358.403 1203.12 355.577 1200.01 353.882C1196.9 352.187 1192.1 352.187 1189.27 353.882C1186.44 355.577 1186.44 358.403 1189.27 360.098Z" fill="#C63031"/>
<path d="M1259.93 300.766C1263.04 302.462 1267.85 302.462 1270.67 300.766C1273.78 299.071 1273.78 296.245 1270.67 294.55C1267.56 292.856 1262.76 292.856 1259.93 294.55C1257.11 296.245 1257.11 298.789 1259.93 300.766Z" fill="#C63031"/>
<path d="M1389.67 148.199C1392.77 149.894 1397.58 149.894 1400.41 148.199C1403.51 146.504 1403.51 143.679 1400.41 141.983C1397.3 140.288 1392.49 140.288 1389.67 141.983C1386.84 143.679 1386.84 146.504 1389.67 148.199Z" fill="#C63031"/>
<path d="M892.21 26.428C895.318 28.1232 900.123 28.1232 902.95 26.428C906.059 24.7328 906.059 21.9075 902.95 20.2123C899.841 18.5171 895.036 18.5171 892.21 20.2123C889.1 21.9075 889.1 24.7328 892.21 26.428Z" fill="#C63031"/>
<path d="M1089.21 6.65067C1092.32 8.34586 1097.13 8.34586 1099.95 6.65067C1103.06 4.95548 1103.06 2.13015 1099.95 0.434969C1096.85 -1.26022 1092.04 -1.26022 1089.21 0.434969C1086.1 2.13015 1086.1 4.95548 1089.21 6.65067Z" fill="#C63031"/>
<path d="M1480.39 158.653C1483.51 160.348 1488.31 160.348 1491.13 158.653C1494.25 156.958 1494.25 154.132 1491.13 152.437C1488.03 150.742 1483.22 150.742 1480.39 152.437C1477.29 154.132 1477.29 156.958 1480.39 158.653Z" fill="#C63031"/>
<path d="M1490.29 103.277C1493.4 104.972 1498.21 104.972 1501.03 103.277C1504.14 101.581 1504.14 98.7557 1501.03 97.0607C1497.92 95.3658 1493.12 95.3658 1490.29 97.0607C1487.18 98.7557 1487.18 101.581 1490.29 103.277Z" fill="#C63031"/>
<path d="M1291.02 423.385C1294.13 425.08 1298.94 425.08 1301.76 423.385C1304.87 421.689 1304.87 418.865 1301.76 417.169C1298.65 415.474 1293.85 415.474 1291.02 417.169C1287.91 418.865 1287.91 421.407 1291.02 423.385Z" fill="#C63031"/>
<path d="M1162.14 431.013C1165.25 432.708 1170.05 432.708 1172.88 431.013C1175.99 429.318 1175.99 426.493 1172.88 424.798C1169.77 423.102 1164.96 423.102 1162.14 424.798C1159.31 426.493 1159.31 429.318 1162.14 431.013Z" fill="#C63031"/>
<path d="M904.646 685.291C907.755 686.987 912.56 686.987 915.386 685.291C918.495 683.596 918.495 680.771 915.386 679.076C912.278 677.381 907.472 677.381 904.646 679.076C901.537 680.771 901.537 683.596 904.646 685.291Z" fill="#C63031"/>
<path d="M801.197 413.779C804.306 415.474 809.111 415.474 811.938 413.779C815.046 412.083 815.046 409.258 811.938 407.563C808.828 405.868 804.023 405.868 801.197 407.563C798.088 409.258 798.088 412.083 801.197 413.779Z" fill="#C63031"/>
<path d="M926.974 590.078C930.084 591.774 934.889 591.774 937.715 590.078C940.824 588.383 940.824 585.558 937.715 583.863C934.606 582.167 929.801 582.167 926.974 583.863C924.148 585.558 924.148 588.383 926.974 590.078Z" fill="#C63031"/>
<path d="M507.245 600.249C510.354 601.945 515.159 601.945 517.986 600.249C521.095 598.554 521.095 595.729 517.986 594.034C514.877 592.338 510.072 592.338 507.245 594.034C504.136 595.729 504.136 598.554 507.245 600.249Z" fill="#C63031"/>
<path d="M1343.6 579.059C1346.7 580.755 1351.51 580.755 1354.34 579.059C1357.44 577.364 1357.44 574.539 1354.34 572.844C1351.23 571.148 1346.42 571.148 1343.6 572.844C1340.77 574.539 1340.77 577.082 1343.6 579.059Z" fill="#C63031"/>
<path d="M1364.79 439.206H1328.05H1327.77L1294.98 420.277L1295.83 418.865L1328.33 437.511H1364.79V439.206Z" fill="#C63031"/>
<path d="M1121.72 319.696L1120.87 318.283L1210.19 266.58H1271.24V266.862L1350.1 312.35H1399.85V314.045H1349.53V313.762L1270.67 268.275H1210.75L1121.72 319.696Z" fill="#C63031"/>
<path d="M1354.62 385.808L1265.3 334.387H1235.91L1196.62 356.99L1195.77 355.577L1235.62 332.692H1265.87L1355.47 384.395L1354.62 385.808Z" fill="#C63031"/>
<path d="M1331.44 370.834H1329.75V335.8L1265.02 298.224L1265.87 296.811L1331.44 334.669V370.834Z" fill="#C63031"/>
<path d="M810.242 900.58L809.395 899.169L1037.77 767.226V683.314H1038.34L1439.41 451.638L1440.26 453.333L1039.47 684.444V768.073L1039.19 768.356L810.242 900.58Z" fill="#C63031"/>
<path d="M1152.24 726.824L1151.4 725.411L1227.15 681.619V632.458L1264.17 611.268L1265.02 612.681L1228.84 633.588V682.467L1228.56 682.749L1152.24 726.824Z" fill="#C63031"/>
<path d="M1270.39 458.983H1219.51L1219.23 458.701L1167.22 428.753L1168.07 427.34L1220.08 457.289H1270.39V458.983Z" fill="#C63031"/>
<path d="M993.114 519.163H992.831L807.98 412.366L808.828 410.954L993.396 517.468H1226.3V519.163H993.114Z" fill="#C63031"/>
<path d="M1562.64 290.312H1560.95V200.185L1486.33 156.958L1487.18 155.545L1562.64 199.054V290.312Z" fill="#C63031"/>
<path d="M1562.08 237.479L1561.23 236.066L1615.5 204.705V170.519L1495.09 101.016L1495.94 99.3208L1617.2 169.389V205.835H1616.91L1562.08 237.479Z" fill="#C63031"/>
<path d="M1073.39 905.951L1072.54 904.54L1163.27 852.267V773.724L1163.83 773.442L1285.65 703.091L1286.5 704.504L1164.96 774.571V853.115L1164.68 853.398L1073.39 905.951Z" fill="#C63031"/>
</g>
</g>
</g>
</g>
<defs>
<clipPath id="clip0_1_14">
<rect width="1519.2" height="738" fill="white" transform="translate(0 0.399902)"/>
</clipPath>
<clipPath id="clip1_1_14">
<rect width="1014.22" height="738" fill="white" transform="translate(504.984 0.399902)"/>
</clipPath>
</defs>
</svg>
