<svg xmlns="http://www.w3.org/2000/svg" width="106" height="106" viewBox="0 0 106 106" fill="none"><g clip-path="url(#clip0_28817_86096)"><path d="M70.5883 2.93785L102.905 35.2545V103.504H34.1884L2.22171 71.5378V2.82121H70.5883M71.5217 0.721191H0.121704V72.4711L33.3717 105.721H105.122V34.3212L71.5217 0.721191Z" fill="white"></path><path d="M17.1504 59.8708V63.7208H14.9338V53.2208H18.9004C19.8338 53.1042 20.7671 53.4542 21.4671 54.1542C22.7504 55.5542 22.7504 57.6542 21.4671 59.0542C20.7671 59.6375 19.8338 59.9875 18.9004 59.9875H17.1504V59.8708ZM17.1504 58.2375H18.7838C19.2504 58.2375 19.7171 58.1208 19.9504 57.7708C20.4171 57.0708 20.4171 56.0209 19.9504 55.3209C19.6004 55.0875 19.2504 54.8542 18.7838 54.8542H17.1504V58.2375ZM31.7338 63.7208L31.0338 61.3875H27.4171L26.7171 63.7208H24.3837L28.0004 53.2208H30.5671L34.1838 63.7208H31.7338ZM28.0004 59.6375H30.5671L29.2838 55.2042L28.0004 59.6375ZM37.3337 63.7208V53.2208H41.3004C42.2337 53.1042 43.1671 53.4542 43.8671 54.1542C44.4504 54.7375 44.8004 55.6709 44.8004 56.4875C44.8004 57.0709 44.5671 57.6542 44.2171 58.1208C43.8671 58.5875 43.2837 59.0542 42.8171 59.2875L45.3837 63.8375H43.0504L40.8337 59.7542H39.3171V63.7208H37.3337ZM39.5504 58.0042H41.1838C42.0004 58.1208 42.7004 57.5375 42.7004 56.7208C42.7004 56.6042 42.7004 56.4875 42.7004 56.2542C42.8171 55.4375 42.2337 54.7375 41.5337 54.7375C41.4171 54.7375 41.3004 54.7375 41.1838 54.7375H39.5504V58.0042ZM50.9837 63.7208V55.0875H47.7171V53.2208H56.3504V55.0875H53.0837V63.7208H50.9837ZM61.9504 56.4875V63.7208H59.967V53.2208H62.4171L66.7337 60.5709V53.2208H68.717V63.7208H66.2671L61.9504 56.4875ZM72.6837 63.7208V53.2208H79.5671V54.9708H74.9004V57.4208H78.6337V59.1708H74.9004V61.9708H79.5671V63.7208H72.6837ZM83.6504 63.7208V53.2208H87.617C88.5504 53.1042 89.4837 53.4542 90.1837 54.1542C90.7671 54.7375 91.117 55.6709 91.117 56.4875C91.117 57.0709 91.0004 57.6542 90.6504 58.1208C90.3004 58.5875 89.717 59.0542 89.2504 59.2875L91.817 63.8375H89.4837L87.1504 59.7542H85.6337V63.7208H83.6504ZM85.867 58.0042H87.5004C88.317 58.1208 89.0171 57.5375 89.0171 56.7208C89.0171 56.6042 89.0171 56.4875 89.0171 56.2542C89.1337 55.4375 88.5504 54.7375 87.8504 54.7375C87.7337 54.7375 87.617 54.7375 87.5004 54.7375H85.867V58.0042Z" fill="white"></path><path d="M23.4504 24.7543C23.4504 25.1043 23.4504 25.4543 23.6838 25.8043C23.8004 26.0376 23.9171 26.3877 24.0338 26.7377C24.1504 26.8543 24.1504 26.971 24.1504 26.971C24.1504 27.0876 24.0337 27.2043 23.9171 27.321L23.1004 27.7876C23.1004 27.7876 22.9838 27.7876 22.8671 27.7876C22.6338 27.7876 22.6338 27.671 22.5171 27.671C22.4004 27.4376 22.1671 27.321 22.0504 27.0876C21.9337 26.971 21.8171 26.621 21.7004 26.3876C20.7671 27.4376 19.6004 28.021 18.2004 28.021C17.2671 28.1376 16.4504 27.7876 15.8671 27.0876C15.2838 26.5043 14.9338 25.6876 14.9338 24.7543C14.9338 23.821 15.2838 22.8876 15.9838 22.3043C16.8004 21.721 17.8504 21.371 18.9004 21.371C19.3671 21.371 19.8338 21.371 20.1838 21.4877C20.6504 21.6043 21.1171 21.6043 21.4671 21.721V20.7877C21.5837 20.0877 21.3504 19.3876 20.8837 18.921C20.4171 18.4543 19.7171 18.3377 19.0171 18.4543C18.5504 18.4543 18.0838 18.571 17.7338 18.571C17.3838 18.571 16.8004 18.8043 16.4504 19.0377C16.3338 19.1543 16.2171 19.1543 15.9838 19.271C15.8671 19.271 15.8671 19.271 15.8671 19.271C15.6338 19.271 15.6337 19.1543 15.6337 18.921V18.3376C15.6337 18.221 15.6338 18.1043 15.7504 17.871C15.8671 17.7543 15.9838 17.7543 16.1004 17.6376C16.5671 17.4043 17.0338 17.171 17.6171 17.171C18.2004 16.9376 18.9004 16.9376 19.4838 16.9376C20.6504 16.821 21.7004 17.171 22.5171 17.871C23.2171 18.6877 23.5671 19.7377 23.4504 20.7877V24.7543ZM18.6671 26.5043C19.1338 26.5043 19.4838 26.3876 19.9504 26.3876C20.4171 26.1543 20.7671 25.921 21.1171 25.571C21.2338 25.3377 21.4671 25.1043 21.5838 24.7543C21.7004 24.4043 21.7004 24.0543 21.7004 23.7043V23.121C21.3504 23.0043 21.0004 23.0043 20.6504 23.0043C20.3004 22.8876 19.9504 22.8876 19.4838 22.8876C18.9004 22.771 18.2004 23.0043 17.7338 23.3543C17.0338 24.0543 16.9171 25.221 17.6171 25.921C17.7338 26.3876 18.2004 26.621 18.6671 26.5043ZM28.2338 27.7876C28.1171 27.7876 27.8838 27.7876 27.7671 27.671C27.6504 27.5543 27.6504 27.4376 27.5338 27.2043L24.7338 17.9877C24.6171 17.7543 24.6171 17.6376 24.6171 17.521C24.6171 17.2876 24.7338 17.2877 24.7338 17.2877H24.8504H26.0171C26.2504 17.2877 26.3671 17.2877 26.4838 17.4043C26.6004 17.521 26.7171 17.6377 26.7171 17.871L28.7004 25.6876L30.5671 17.871C30.5671 17.7543 30.6837 17.521 30.8004 17.4043C31.0337 17.2877 31.1504 17.2877 31.2671 17.2877H32.2004C32.4338 17.2877 32.5504 17.2877 32.6671 17.4043C32.7837 17.521 32.9004 17.6377 32.9004 17.871L34.7671 25.8043L36.7504 17.871C36.7504 17.7543 36.8671 17.521 36.9838 17.4043C37.2171 17.2877 37.2171 17.2877 37.4504 17.2877H38.6171C38.7337 17.2877 38.8504 17.4043 38.8504 17.521V17.6376C38.8504 17.7543 38.8504 17.7543 38.8504 17.7543L38.7338 17.9877L35.9338 27.0876C35.9338 27.2043 35.8171 27.4376 35.7004 27.5543C35.5837 27.671 35.4671 27.671 35.2338 27.671H34.1838C34.0671 27.671 33.8337 27.671 33.7171 27.5543C33.6004 27.321 33.6004 27.321 33.4838 27.0876L31.6171 19.5043L29.7504 27.0876C29.7504 27.2043 29.6338 27.4376 29.5171 27.5543C29.4004 27.671 29.2837 27.671 29.1671 27.671H28.2338V27.7876ZM43.4004 28.1376C42.8171 28.1376 42.1171 28.021 41.5337 27.9043C41.0671 27.7877 40.6004 27.671 40.1337 27.4376C39.9004 27.321 39.6671 27.0877 39.6671 26.7377V26.1543C39.6671 25.921 39.7838 25.8043 39.9004 25.8043C40.0171 25.8043 40.1337 25.8043 40.1337 25.8043C40.2504 25.8043 40.2504 25.921 40.3671 25.921C40.8337 26.0376 41.3004 26.271 41.6504 26.3876C42.1171 26.5043 42.5837 26.5043 43.0504 26.5043C43.6337 26.5043 44.3337 26.3876 44.8004 26.0376C45.1504 25.8043 45.3837 25.3376 45.3837 24.871C45.3837 24.521 45.2671 24.2876 45.0337 24.0543C44.6837 23.821 44.2171 23.5876 43.7504 23.471L42.0004 23.0043C41.3004 22.8876 40.6004 22.421 40.1337 21.721C39.7837 21.2543 39.5504 20.5543 39.5504 19.971C39.5504 19.5043 39.6671 19.0376 39.9004 18.6876C40.1338 18.3376 40.3671 17.9876 40.8337 17.7543C41.1837 17.521 41.6504 17.2876 42.1171 17.171C42.5837 16.9376 43.0504 16.9376 43.6337 16.9376C43.8671 16.9376 44.2171 16.9376 44.4504 17.0543C44.6837 17.0543 44.9171 17.171 45.2671 17.171C45.6171 17.171 45.7337 17.2877 45.9671 17.2877C46.0837 17.4043 46.3171 17.4043 46.4338 17.521C46.5504 17.6376 46.6671 17.6376 46.7837 17.7543C46.9004 17.871 46.9004 17.9876 46.9004 18.221V18.8043C46.9004 19.0376 46.7837 19.1543 46.6671 19.1543C46.5504 19.1543 46.3171 19.0377 46.2004 19.0377C45.5004 18.6877 44.6837 18.571 43.9837 18.571C43.5171 18.571 42.9338 18.6876 42.3504 18.921C42.0004 19.0376 41.7671 19.5043 41.8837 19.971C41.8837 20.321 42.0004 20.5543 42.2337 20.9043C42.5837 21.2543 43.0504 21.371 43.5171 21.4877L45.1504 21.9543C45.8504 22.071 46.4338 22.5377 47.0171 23.121C47.3671 23.5877 47.4837 24.171 47.4837 24.7543C47.4837 25.221 47.3671 25.6877 47.1337 26.1543C47.0171 26.621 46.6671 26.971 46.2004 27.2043C45.8504 27.4376 45.2671 27.671 44.9171 27.9043C44.5671 28.1377 43.9837 28.1376 43.4004 28.1376Z" fill="white"></path><path d="M45.6144 33.8542C41.6477 36.7709 36.0477 38.2876 31.1477 38.2876C24.6144 38.2876 18.431 35.9542 13.531 31.5209C13.181 31.1709 13.531 30.7042 13.9977 31.0542C19.3644 34.2042 25.431 35.8375 31.6144 35.8375C36.281 35.8375 40.831 34.9042 45.1477 33.1542C45.731 32.6876 46.3144 33.3875 45.6144 33.8542ZM46.1977 36.5376C46.081 36.8876 46.431 37.0042 46.781 36.7709C48.881 35.0209 49.3477 31.4042 48.9977 30.8209C48.531 30.3542 44.9144 29.8876 42.6977 31.4042C42.3477 31.6376 42.4644 31.9876 42.8144 31.8709C44.0977 31.7542 46.8977 31.4042 47.3644 32.1042C47.831 32.8042 46.6644 35.3709 46.1977 36.5376Z" fill="white"></path></g><defs><clipPath id="clip0_28817_86096"><rect width="105" height="105" fill="white" transform="translate(0.121704 0.721191)"></rect></clipPath></defs></svg>