<svg width="143" height="91" viewBox="0 0 143 91" fill="none" xmlns="http://www.w3.org/2000/svg">
<path d="M14.0352 35.7071V20.1617H17.9101V35.7071H14.0352Z" fill="#FBFBFD"/>
<path d="M21.6204 35.7071V24.0374H24.6211V29.0418H24.4084C24.4084 27.8492 24.5738 26.8555 24.9046 26.0605C25.2511 25.2654 25.771 24.6692 26.464 24.2717C27.1571 23.8742 27.9998 23.6754 28.9922 23.6754H29.1576C30.6697 23.6754 31.8196 24.1226 32.6072 25.017C33.4106 25.8972 33.8122 27.2388 33.8122 29.0418V35.7071H30.0318V28.8501C30.0318 28.2254 29.827 27.7144 29.4175 27.3169C29.0079 26.9193 28.4566 26.7206 27.7635 26.7206C27.0547 26.7206 26.4798 26.9264 26.0387 27.3382C25.6134 27.7357 25.4008 28.2609 25.4008 28.914V35.7071H21.6204Z" fill="#FBFBFD"/>
<path d="M42.8461 36.1117C41.7277 36.1117 40.7511 35.9484 39.9163 35.6219C39.0972 35.2812 38.412 34.8269 37.8607 34.259C37.3094 33.6912 36.8998 33.0523 36.632 32.3425C36.3643 31.6185 36.2304 30.8731 36.2304 30.1065V29.7019C36.2304 28.9069 36.3721 28.1474 36.6557 27.4233C36.9392 26.6851 37.3566 26.0321 37.9079 25.4642C38.4592 24.8963 39.1444 24.4491 39.9635 24.1226C40.7984 23.7961 41.7514 23.6328 42.8225 23.6328C43.9881 23.6328 45.0198 23.8387 45.9177 24.2504C46.8155 24.6479 47.5322 25.2086 48.0678 25.9327C48.6034 26.6567 48.9026 27.4872 48.9657 28.4242H45.2561C45.1931 27.8989 44.9568 27.4588 44.5473 27.1039C44.1535 26.7348 43.5786 26.5502 42.8225 26.5502C42.1924 26.5502 41.6647 26.6922 41.2394 26.9761C40.8299 27.2601 40.5227 27.6505 40.3179 28.1474C40.1132 28.6442 40.0108 29.2334 40.0108 29.9148C40.0108 30.5395 40.1053 31.1074 40.2943 31.6185C40.4833 32.1153 40.7826 32.5057 41.1922 32.7897C41.6175 33.0594 42.1688 33.1943 42.8461 33.1943C43.3502 33.1943 43.7755 33.1162 44.122 32.96C44.4843 32.7897 44.7678 32.5625 44.9726 32.2786C45.1931 31.9805 45.327 31.6397 45.3743 31.2564H49.0602C49.0129 32.2218 48.7136 33.0736 48.1623 33.8118C47.611 34.5359 46.8786 35.1037 45.9649 35.5154C45.0513 35.9129 44.0117 36.1117 42.8461 36.1117Z" fill="#FBFBFD"/>
<path d="M50.7488 35.7071V31.8953H54.9073V35.7071H50.7488Z" fill="#FBFBFD"/>
<path d="M68.7388 36.1117C67.3684 36.1117 66.1871 35.8775 65.1947 35.409C64.2023 34.9263 63.4384 34.2803 62.9028 33.4711C62.383 32.6619 62.1231 31.7675 62.1231 30.7879H65.8563C65.8563 31.2706 65.9744 31.6965 66.2107 32.0656C66.4627 32.4206 66.8093 32.7045 67.2503 32.9174C67.6914 33.1162 68.1954 33.2156 68.7625 33.2156C69.3925 33.2156 69.9202 33.102 70.3455 32.8749C70.7866 32.6335 71.1252 32.3141 71.3615 31.9166C71.5978 31.5049 71.7159 31.0435 71.7159 30.5324C71.7159 30.0071 71.5978 29.5457 71.3615 29.1482C71.141 28.7365 70.8102 28.41 70.3692 28.1687C69.9439 27.9273 69.424 27.8066 68.8097 27.8066C68.2427 27.8066 67.7307 27.9131 67.2739 28.1261C66.8171 28.339 66.4785 28.6088 66.2579 28.9353H62.6193L63.4935 20.1617H73.9606V23.143H65.0293L66.5179 22.2486L65.998 27.2956L65.1002 27.0826C65.5727 26.5715 66.1398 26.1456 66.8014 25.8049C67.4787 25.45 68.3608 25.2725 69.4477 25.2725C70.7078 25.2725 71.7789 25.5068 72.661 25.9753C73.5589 26.4296 74.2441 27.0471 74.7166 27.8279C75.2049 28.5946 75.4491 29.4535 75.4491 30.4046V30.6815C75.4491 31.6326 75.1892 32.5199 74.6694 33.3433C74.1496 34.1668 73.3856 34.834 72.3775 35.3451C71.3851 35.8562 70.1723 36.1117 68.7388 36.1117Z" fill="#FBFBFD"/>
<path d="M85.2677 36.1117C83.8973 36.1117 82.7238 35.9129 81.7472 35.5154C80.7705 35.1037 79.9751 34.5501 79.3608 33.8544C78.7622 33.1588 78.3133 32.3567 78.014 31.4481C77.7305 30.5253 77.5887 29.5528 77.5887 28.5307V27.3169C77.5887 25.8972 77.8643 24.6124 78.4157 23.4625C78.967 22.3125 79.8097 21.3968 80.9438 20.7154C82.0779 20.034 83.5192 19.6932 85.2677 19.6932C87.0161 19.6932 88.4495 20.034 89.5679 20.7154C90.702 21.3968 91.5447 22.3125 92.0961 23.4625C92.6474 24.6124 92.923 25.8972 92.923 27.3169V28.5307C92.923 29.5528 92.7734 30.5253 92.4741 31.4481C92.1906 32.3567 91.7416 33.1588 91.1273 33.8544C90.5288 34.5501 89.7412 35.1037 88.7646 35.5154C87.8037 35.9129 86.6381 36.1117 85.2677 36.1117ZM85.2677 32.8962C86.5436 32.8962 87.4887 32.4986 88.103 31.7036C88.7331 30.8944 89.0481 29.6451 89.0481 27.9557C89.0481 26.1669 88.7252 24.8821 88.0794 24.1013C87.4493 23.3063 86.5121 22.9088 85.2677 22.9088C83.9918 22.9088 83.0388 23.3063 82.4087 24.1013C81.7786 24.8821 81.4636 26.1527 81.4636 27.9131C81.4636 29.6167 81.7708 30.8731 82.3851 31.6823C83.0152 32.4915 83.976 32.8962 85.2677 32.8962Z" fill="#FBFBFD"/>
<path d="M103.288 36.1117C101.918 36.1117 100.744 35.9129 99.7678 35.5154C98.7912 35.1037 97.9958 34.5501 97.3814 33.8544C96.7829 33.1588 96.334 32.3567 96.0347 31.4481C95.7511 30.5253 95.6094 29.5528 95.6094 28.5307V27.3169C95.6094 25.8972 95.885 24.6124 96.4363 23.4625C96.9876 22.3125 97.8304 21.3968 98.9645 20.7154C100.099 20.034 101.54 19.6932 103.288 19.6932C105.037 19.6932 106.47 20.034 107.589 20.7154C108.723 21.3968 109.565 22.3125 110.117 23.4625C110.668 24.6124 110.944 25.8972 110.944 27.3169V28.5307C110.944 29.5528 110.794 30.5253 110.495 31.4481C110.211 32.3567 109.762 33.1588 109.148 33.8544C108.549 34.5501 107.762 35.1037 106.785 35.5154C105.824 35.9129 104.659 36.1117 103.288 36.1117ZM103.288 32.8962C104.564 32.8962 105.509 32.4986 106.124 31.7036C106.754 30.8944 107.069 29.6451 107.069 27.9557C107.069 26.1669 106.746 24.8821 106.1 24.1013C105.47 23.3063 104.533 22.9088 103.288 22.9088C102.012 22.9088 101.059 23.3063 100.429 24.1013C99.7993 24.8821 99.4843 26.1527 99.4843 27.9131C99.4843 29.6167 99.7915 30.8731 100.406 31.6823C101.036 32.4915 101.997 32.8962 103.288 32.8962Z" fill="#FBFBFD"/>
<path d="M121.309 36.1117C119.939 36.1117 118.765 35.9129 117.789 35.5154C116.812 35.1037 116.016 34.5501 115.402 33.8544C114.804 33.1588 114.355 32.3567 114.055 31.4481C113.772 30.5253 113.63 29.5528 113.63 28.5307V27.3169C113.63 25.8972 113.906 24.6124 114.457 23.4625C115.008 22.3125 115.851 21.3968 116.985 20.7154C118.119 20.034 119.561 19.6932 121.309 19.6932C123.057 19.6932 124.491 20.034 125.609 20.7154C126.743 21.3968 127.586 22.3125 128.137 23.4625C128.689 24.6124 128.964 25.8972 128.964 27.3169V28.5307C128.964 29.5528 128.815 30.5253 128.515 31.4481C128.232 32.3567 127.783 33.1588 127.169 33.8544C126.57 34.5501 125.783 35.1037 124.806 35.5154C123.845 35.9129 122.679 36.1117 121.309 36.1117ZM121.309 32.8962C122.585 32.8962 123.53 32.4986 124.144 31.7036C124.774 30.8944 125.089 29.6451 125.089 27.9557C125.089 26.1669 124.767 24.8821 124.121 24.1013C123.491 23.3063 122.553 22.9088 121.309 22.9088C120.033 22.9088 119.08 23.3063 118.45 24.1013C117.82 24.8821 117.505 26.1527 117.505 27.9131C117.505 29.6167 117.812 30.8731 118.426 31.6823C119.057 32.4915 120.017 32.8962 121.309 32.8962Z" fill="#FBFBFD"/>
<path d="M17.4473 46.8743H18.0567L19.1856 50.7458H19.0263L20.1829 47.3245H20.55L21.6927 50.7181H21.5404L22.8355 46.8743H23.438L21.9005 51.2237H21.3326L20.3284 48.2733H20.4323L19.3934 51.2237H18.8255L17.4473 46.8743Z" fill="white"/>
<path d="M25.1648 51.3068C24.8786 51.3068 24.6223 51.2341 24.3961 51.0886C24.1721 50.9409 23.9944 50.7366 23.8628 50.4757C23.7335 50.2148 23.6689 49.9147 23.6689 49.5753C23.6689 49.2129 23.7335 48.9012 23.8628 48.6404C23.9921 48.3795 24.1687 48.1798 24.3926 48.0413C24.6188 47.9005 24.8762 47.83 25.1648 47.83C25.4165 47.83 25.6312 47.8808 25.8089 47.9824C25.9867 48.084 26.1298 48.2214 26.2383 48.3945C26.3468 48.5676 26.4218 48.7639 26.4634 48.9832C26.5073 49.2002 26.52 49.4253 26.5015 49.6584H24.1052V49.326H26.1448L25.9855 49.4299C25.9924 49.2937 25.9844 49.1575 25.9613 49.0213C25.9405 48.8851 25.9001 48.7604 25.8401 48.6473C25.7801 48.5319 25.6958 48.4395 25.5873 48.3703C25.4788 48.301 25.3403 48.2664 25.1717 48.2664C24.9594 48.2664 24.7816 48.3206 24.6385 48.4291C24.4953 48.5376 24.388 48.6808 24.3164 48.8585C24.2448 49.034 24.2091 49.2244 24.2091 49.4299V49.6515C24.2091 49.8824 24.2437 50.089 24.313 50.2714C24.3845 50.4538 24.4907 50.598 24.6315 50.7042C24.7724 50.8104 24.9501 50.8635 25.1648 50.8635C25.3795 50.8635 25.5561 50.8116 25.6946 50.7077C25.8332 50.6038 25.9174 50.4503 25.9474 50.2471H26.5084C26.4738 50.4664 26.3953 50.6558 26.2729 50.815C26.1506 50.972 25.9948 51.0932 25.8055 51.1786C25.6161 51.2641 25.4026 51.3068 25.1648 51.3068Z" fill="white"/>
<path d="M31.2662 51.2237L31.197 50.4965V49.0767C31.197 48.7789 31.1335 48.5653 31.0065 48.4361C30.8795 48.3045 30.6891 48.2387 30.4351 48.2387C30.292 48.2387 30.1616 48.2594 30.0438 48.301C29.9284 48.3426 29.8361 48.4072 29.7668 48.4949C29.6999 48.5803 29.6664 48.6911 29.6664 48.8274H29.0639C29.0639 48.5873 29.1227 48.3945 29.2405 48.2491C29.3582 48.1013 29.5198 47.9951 29.7253 47.9305C29.933 47.8635 30.1697 47.83 30.4351 47.83C30.6891 47.83 30.9142 47.8728 31.1104 47.9582C31.3066 48.0436 31.4602 48.1798 31.571 48.3668C31.6818 48.5515 31.7372 48.7927 31.7372 49.0905V51.2237H31.2662ZM30.1373 51.3068C29.8649 51.3068 29.6398 51.2583 29.4621 51.1613C29.2843 51.0644 29.1516 50.9386 29.0639 50.7839C28.9761 50.6292 28.9323 50.4664 28.9323 50.2956C28.9323 50.0717 28.9877 49.8893 29.0985 49.7485C29.2116 49.6077 29.3651 49.5049 29.559 49.4403C29.753 49.3733 29.9711 49.3399 30.2135 49.3399C30.3867 49.3399 30.5598 49.3572 30.733 49.3918C30.9084 49.4264 31.0792 49.4738 31.2455 49.5338V49.8731C31.1069 49.8177 30.95 49.7739 30.7745 49.7416C30.6014 49.7092 30.4421 49.6931 30.2966 49.6931C30.075 49.6931 29.888 49.7392 29.7356 49.8316C29.5833 49.9216 29.5071 50.0763 29.5071 50.2956C29.5071 50.4572 29.5648 50.5957 29.6802 50.7112C29.798 50.8266 29.985 50.8843 30.2412 50.8843C30.4213 50.8843 30.5829 50.8427 30.726 50.7596C30.8715 50.6742 30.9857 50.568 31.0689 50.4411C31.1543 50.3141 31.197 50.1871 31.197 50.0601H31.3286C31.3286 50.2818 31.2801 50.4872 31.1831 50.6765C31.0885 50.8658 30.9523 51.0182 30.7745 51.1336C30.5967 51.2491 30.3844 51.3068 30.1373 51.3068Z" fill="white"/>
<path d="M33.0308 51.2237V47.9062H33.571V51.2237H33.0308ZM33.4048 49.7277C33.4048 49.3075 33.4452 48.9589 33.526 48.6819C33.6068 48.4026 33.7245 48.1948 33.8792 48.0586C34.0362 47.9201 34.2266 47.8508 34.4506 47.8508C34.5244 47.8508 34.5914 47.8566 34.6514 47.8681C34.7137 47.8774 34.7761 47.8924 34.8384 47.9132L34.8038 48.4464C34.7391 48.4257 34.6687 48.4083 34.5925 48.3945C34.5164 48.3783 34.4483 48.3703 34.3882 48.3703C34.192 48.3703 34.0339 48.4268 33.9138 48.5399C33.7938 48.6507 33.706 48.8077 33.6506 49.0109C33.5975 49.214 33.571 49.453 33.571 49.7277H33.4048Z" fill="white"/>
<path d="M36.6829 51.3068C36.3967 51.3068 36.1404 51.2341 35.9142 51.0886C35.6902 50.9409 35.5125 50.7366 35.3809 50.4757C35.2516 50.2148 35.187 49.9147 35.187 49.5753C35.187 49.2129 35.2516 48.9012 35.3809 48.6404C35.5102 48.3795 35.6868 48.1798 35.9107 48.0413C36.1369 47.9005 36.3944 47.83 36.6829 47.83C36.9346 47.83 37.1493 47.8808 37.327 47.9824C37.5048 48.084 37.6479 48.2214 37.7564 48.3945C37.8649 48.5676 37.9399 48.7639 37.9815 48.9832C38.0254 49.2002 38.0381 49.4253 38.0196 49.6584H35.6233V49.326H37.6629L37.5036 49.4299C37.5106 49.2937 37.5025 49.1575 37.4794 49.0213C37.4586 48.8851 37.4182 48.7604 37.3582 48.6473C37.2982 48.5319 37.2139 48.4395 37.1054 48.3703C36.9969 48.301 36.8584 48.2664 36.6899 48.2664C36.4775 48.2664 36.2997 48.3206 36.1566 48.4291C36.0134 48.5376 35.9061 48.6808 35.8345 48.8585C35.763 49.034 35.7272 49.2244 35.7272 49.4299V49.6515C35.7272 49.8824 35.7618 50.089 35.8311 50.2714C35.9026 50.4538 36.0088 50.598 36.1496 50.7042C36.2905 50.8104 36.4682 50.8635 36.6829 50.8635C36.8976 50.8635 37.0742 50.8116 37.2127 50.7077C37.3513 50.6038 37.4355 50.4503 37.4655 50.2471H38.0265C37.9919 50.4664 37.9134 50.6558 37.791 50.815C37.6687 50.972 37.5129 51.0932 37.3236 51.1786C37.1343 51.2641 36.9207 51.3068 36.6829 51.3068Z" fill="white"/>
<path d="M40.9906 51.009L41.0945 50.0463H40.4019L40.4365 49.6792H41.1291L41.2607 48.4395H40.5681L40.6027 48.0724H41.3022L41.3992 47.1236H41.9048L41.8078 48.0724H42.8744L42.9783 47.1236H43.4769L43.38 48.0724H44.0864L44.0448 48.4395H43.3384L43.2137 49.6792H43.9202L43.8786 50.0463H43.1722L43.0683 51.009H42.5627L42.6666 50.0463H41.6L41.4962 51.009H40.9906ZM41.6347 49.6792H42.7012L42.8328 48.4395H41.7663L41.6347 49.6792Z" fill="white"/>
<path d="M46.3232 51.3068C46.0485 51.3068 45.798 51.2571 45.5718 51.1579C45.3456 51.0586 45.1643 50.9132 45.0281 50.7215C44.8919 50.5276 44.8227 50.291 44.8204 50.0117H45.3606C45.3606 50.2748 45.4529 50.4734 45.6376 50.6073C45.8246 50.7412 46.0531 50.8081 46.3232 50.8081C46.6349 50.8081 46.8796 50.7135 47.0574 50.5242C47.2374 50.3326 47.3275 50.0971 47.3275 49.8177C47.3275 49.2591 46.9673 48.9797 46.2471 48.9797H45.0835L45.2705 46.8743H47.6807V47.366H45.7068L45.8177 47.179L45.6722 48.6958L45.603 48.6334C45.7138 48.608 45.8396 48.5907 45.9804 48.5815C46.1212 48.5699 46.2471 48.5642 46.3579 48.5642C46.8288 48.5642 47.2017 48.6692 47.4764 48.8793C47.7511 49.0894 47.8885 49.4022 47.8885 49.8177C47.8885 50.0994 47.825 50.3533 47.698 50.5796C47.571 50.8035 47.3898 50.9813 47.1543 51.1129C46.9212 51.2421 46.6441 51.3068 46.3232 51.3068Z" fill="white"/>
<path d="M50.2325 51.3068C49.9578 51.3068 49.7073 51.2571 49.4811 51.1579C49.2548 51.0586 49.0736 50.9132 48.9374 50.7215C48.8012 50.5276 48.7319 50.291 48.7296 50.0117H49.2698C49.2698 50.2748 49.3622 50.4734 49.5468 50.6073C49.7338 50.7412 49.9624 50.8081 50.2325 50.8081C50.5442 50.8081 50.7889 50.7135 50.9666 50.5242C51.1467 50.3326 51.2367 50.0971 51.2367 49.8177C51.2367 49.2591 50.8766 48.9797 50.1563 48.9797H48.9928L49.1798 46.8743H51.5899V47.366H49.6161L49.7269 47.179L49.5815 48.6958L49.5122 48.6334C49.623 48.608 49.7488 48.5907 49.8897 48.5815C50.0305 48.5699 50.1563 48.5642 50.2671 48.5642C50.7381 48.5642 51.1109 48.6692 51.3856 48.8793C51.6604 49.0894 51.7977 49.4022 51.7977 49.8177C51.7977 50.0994 51.7342 50.3533 51.6073 50.5796C51.4803 50.8035 51.2991 50.9813 51.0636 51.1129C50.8304 51.2421 50.5534 51.3068 50.2325 51.3068Z" fill="white"/>
<path d="M54.6473 46.812H55.1529V49.7069H55.9078V50.164H55.1529V51.2237H54.6196V50.164H52.3688V49.7485L54.6473 46.812ZM54.6404 47.6638L53.0129 49.7485H54.6404V47.6638Z" fill="white"/>
<path d="M59.5985 51.3068C59.3007 51.3068 59.0352 51.241 58.8021 51.1094C58.5712 50.9778 58.3888 50.7827 58.2549 50.5242C58.121 50.2656 58.0541 49.947 58.0541 49.5684C58.0541 49.1875 58.121 48.8689 58.2549 48.6127C58.3888 48.3541 58.5712 48.159 58.8021 48.0274C59.0352 47.8958 59.3007 47.83 59.5985 47.83C59.894 47.83 60.1572 47.8958 60.3881 48.0274C60.6212 48.159 60.8036 48.3541 60.9352 48.6127C61.0691 48.8689 61.1361 49.1875 61.1361 49.5684C61.1361 49.947 61.0691 50.2656 60.9352 50.5242C60.8036 50.7827 60.6212 50.9778 60.3881 51.1094C60.1572 51.241 59.894 51.3068 59.5985 51.3068ZM59.5847 50.8358C59.7994 50.8358 59.9818 50.785 60.1318 50.6835C60.2819 50.5796 60.395 50.433 60.4712 50.2437C60.5497 50.0544 60.5889 49.8293 60.5889 49.5684C60.5889 49.1736 60.507 48.8631 60.3431 48.6369C60.1791 48.4083 59.9356 48.2941 59.6124 48.2941C59.3954 48.2941 59.2119 48.346 59.0618 48.4499C58.914 48.5515 58.8009 48.6981 58.7224 48.8897C58.6463 49.079 58.6082 49.3052 58.6082 49.5684C58.6082 49.9586 58.6901 50.2679 58.854 50.4965C59.0202 50.7227 59.2638 50.8358 59.5847 50.8358Z" fill="white"/>
<path d="M64.5427 51.2237V49.2775C64.5427 48.9613 64.4665 48.7212 64.3141 48.5573C64.164 48.391 63.9586 48.3079 63.6977 48.3079C63.4992 48.3079 63.3272 48.3622 63.1817 48.4707C63.0363 48.5792 62.9243 48.735 62.8458 48.9382C62.7674 49.139 62.7281 49.3791 62.7281 49.6584H62.5203C62.5203 49.2729 62.5711 48.9439 62.6727 48.6715C62.7743 48.3991 62.922 48.1913 63.116 48.0482C63.3122 47.9028 63.55 47.83 63.8293 47.83C64.0902 47.83 64.313 47.8889 64.4976 48.0067C64.6846 48.1221 64.8278 48.2883 64.927 48.5053C65.0263 48.7223 65.0759 48.9797 65.0759 49.2775V51.2237H64.5427ZM62.1879 51.2237V47.9132H62.6519L62.7281 48.675V51.2237H62.1879Z" fill="white"/>
<path d="M69.0293 51.3068C68.8492 51.3068 68.6876 51.2721 68.5445 51.2029C68.4014 51.1336 68.2882 51.0297 68.2051 50.8912C68.122 50.7527 68.0805 50.5796 68.0805 50.3718V46.992H68.6137V50.3579C68.6137 50.6996 68.773 50.8705 69.0916 50.8705C69.1863 50.8705 69.2775 50.8601 69.3652 50.8393C69.4552 50.8185 69.5556 50.7873 69.6665 50.7458L69.7426 51.1336C69.6249 51.1844 69.5072 51.226 69.3894 51.2583C69.274 51.2906 69.154 51.3068 69.0293 51.3068ZM67.5472 48.2871V47.9132H69.6595V48.2871H67.5472Z" fill="white"/>
<path d="M72.9699 51.2237V49.2775C72.9699 48.9613 72.8937 48.7212 72.7413 48.5573C72.5913 48.391 72.3858 48.3079 72.1249 48.3079C71.9264 48.3079 71.7544 48.3622 71.609 48.4707C71.4635 48.5792 71.3516 48.735 71.2731 48.9382C71.1946 49.139 71.1553 49.3791 71.1553 49.6584H70.9476C70.9476 49.2729 70.9984 48.9439 71.0999 48.6715C71.2015 48.3991 71.3493 48.1913 71.5432 48.0482C71.7394 47.9028 71.9772 47.83 72.2565 47.83C72.5174 47.83 72.7402 47.8889 72.9249 48.0067C73.1119 48.1221 73.255 48.2883 73.3543 48.5053C73.4535 48.7223 73.5032 48.9797 73.5032 49.2775V51.2237H72.9699ZM70.6151 51.2237V46.5003H71.1553V51.2237H70.6151Z" fill="white"/>
<path d="M75.9446 51.3068C75.6583 51.3068 75.4021 51.2341 75.1758 51.0886C74.9519 50.9409 74.7741 50.7366 74.6426 50.4757C74.5133 50.2148 74.4486 49.9147 74.4486 49.5753C74.4486 49.2129 74.5133 48.9012 74.6426 48.6404C74.7718 48.3795 74.9484 48.1798 75.1724 48.0413C75.3986 47.9005 75.656 47.83 75.9446 47.83C76.1962 47.83 76.4109 47.8808 76.5887 47.9824C76.7664 48.084 76.9096 48.2214 77.0181 48.3945C77.1266 48.5676 77.2016 48.7639 77.2432 48.9832C77.287 49.2002 77.2997 49.4253 77.2813 49.6584H74.885V49.326H76.9246L76.7653 49.4299C76.7722 49.2937 76.7641 49.1575 76.7411 49.0213C76.7203 48.8851 76.6799 48.7604 76.6199 48.6473C76.5598 48.5319 76.4756 48.4395 76.3671 48.3703C76.2586 48.301 76.12 48.2664 75.9515 48.2664C75.7391 48.2664 75.5614 48.3206 75.4182 48.4291C75.2751 48.5376 75.1678 48.6808 75.0962 48.8585C75.0246 49.034 74.9888 49.2244 74.9888 49.4299V49.6515C74.9888 49.8824 75.0235 50.089 75.0927 50.2714C75.1643 50.4538 75.2705 50.598 75.4113 50.7042C75.5521 50.8104 75.7299 50.8635 75.9446 50.8635C76.1593 50.8635 76.3359 50.8116 76.4744 50.7077C76.6129 50.6038 76.6972 50.4503 76.7272 50.2471H77.2882C77.2536 50.4664 77.1751 50.6558 77.0527 50.815C76.9304 50.972 76.7745 51.0932 76.5852 51.1786C76.3959 51.2641 76.1824 51.3068 75.9446 51.3068Z" fill="white"/>
<path d="M79.7397 51.2237V50.5796C79.7397 50.3279 79.7801 50.1179 79.8609 49.9493C79.9441 49.7808 80.0595 49.6411 80.2072 49.5303C80.3573 49.4195 80.5339 49.3237 80.737 49.2429L81.5958 48.9035C81.8175 48.8135 81.9837 48.6981 82.0945 48.5573C82.2053 48.4164 82.2607 48.241 82.2607 48.0309C82.2607 47.8093 82.1834 47.628 82.0287 47.4872C81.8763 47.3464 81.6628 47.276 81.3881 47.276C81.1157 47.276 80.8917 47.3349 80.7163 47.4526C80.5431 47.568 80.4439 47.7423 80.4185 47.9755H79.8159C79.8321 47.7239 79.906 47.5103 80.0375 47.3349C80.1714 47.1594 80.3527 47.0267 80.5812 46.9366C80.8098 46.8443 81.0764 46.7981 81.3811 46.7981C81.6605 46.7981 81.911 46.8524 82.1326 46.9609C82.3542 47.0694 82.5285 47.2194 82.6555 47.411C82.7848 47.6003 82.8494 47.8185 82.8494 48.0655C82.8494 48.2895 82.8078 48.4845 82.7247 48.6507C82.6416 48.817 82.5227 48.9601 82.3681 49.0801C82.2157 49.2002 82.0345 49.3029 81.8244 49.3883L80.9448 49.7416C80.7232 49.827 80.557 49.9297 80.4462 50.0497C80.3354 50.1698 80.2799 50.3256 80.2799 50.5172V50.725H82.8078V51.2237H79.7397Z" fill="white"/>
<path d="M85.3642 51.3068C85.0225 51.3068 84.7235 51.2237 84.4673 51.0574C84.2133 50.8912 84.0148 50.6407 83.8717 50.306C83.7308 49.9713 83.6604 49.5523 83.6604 49.049C83.6604 48.5457 83.7308 48.1279 83.8717 47.7954C84.0148 47.4607 84.2133 47.2113 84.4673 47.0474C84.7235 46.8812 85.0225 46.7981 85.3642 46.7981C85.7035 46.7981 86.0013 46.8812 86.2576 47.0474C86.5138 47.2113 86.7124 47.4607 86.8532 47.7954C86.9963 48.1279 87.0679 48.5457 87.0679 49.049C87.0679 49.5523 86.9963 49.9713 86.8532 50.306C86.7124 50.6407 86.5138 50.8912 86.2576 51.0574C86.0013 51.2237 85.7035 51.3068 85.3642 51.3068ZM85.3642 50.8081C85.7381 50.8081 86.0221 50.6558 86.216 50.351C86.4099 50.044 86.5069 49.61 86.5069 49.049C86.5069 48.488 86.4099 48.0551 86.216 47.7504C86.0221 47.4434 85.7381 47.2898 85.3642 47.2898C84.9948 47.2898 84.712 47.4434 84.5157 47.7504C84.3195 48.0551 84.2214 48.488 84.2214 49.049C84.2214 49.61 84.3195 50.044 84.5157 50.351C84.712 50.6558 84.9948 50.8081 85.3642 50.8081Z" fill="white"/>
<path d="M87.8626 51.2237V50.5796C87.8626 50.3279 87.903 50.1179 87.9838 49.9493C88.0669 49.7808 88.1824 49.6411 88.3301 49.5303C88.4802 49.4195 88.6568 49.3237 88.8599 49.2429L89.7187 48.9035C89.9403 48.8135 90.1066 48.6981 90.2174 48.5573C90.3282 48.4164 90.3836 48.241 90.3836 48.0309C90.3836 47.8093 90.3063 47.628 90.1516 47.4872C89.9992 47.3464 89.7857 47.276 89.5109 47.276C89.2385 47.276 89.0146 47.3349 88.8391 47.4526C88.666 47.568 88.5667 47.7423 88.5413 47.9755H87.9388C87.955 47.7239 88.0288 47.5103 88.1604 47.3349C88.2943 47.1594 88.4755 47.0267 88.7041 46.9366C88.9326 46.8443 89.1993 46.7981 89.504 46.7981C89.7833 46.7981 90.0338 46.8524 90.2555 46.9609C90.4771 47.0694 90.6514 47.2194 90.7784 47.411C90.9076 47.6003 90.9723 47.8185 90.9723 48.0655C90.9723 48.2895 90.9307 48.4845 90.8476 48.6507C90.7645 48.817 90.6456 48.9601 90.4909 49.0801C90.3386 49.2002 90.1573 49.3029 89.9473 49.3883L89.0677 49.7416C88.8461 49.827 88.6798 49.9297 88.569 50.0497C88.4582 50.1698 88.4028 50.3256 88.4028 50.5172V50.725H90.9307V51.2237H87.8626Z" fill="white"/>
<path d="M91.8733 51.2237V50.5796C91.8733 50.3279 91.9137 50.1179 91.9945 49.9493C92.0776 49.7808 92.1931 49.6411 92.3408 49.5303C92.4909 49.4195 92.6675 49.3237 92.8706 49.2429L93.7294 48.9035C93.951 48.8135 94.1173 48.6981 94.2281 48.5573C94.3389 48.4164 94.3943 48.241 94.3943 48.0309C94.3943 47.8093 94.317 47.628 94.1623 47.4872C94.0099 47.3464 93.7964 47.276 93.5217 47.276C93.2492 47.276 93.0253 47.3349 92.8499 47.4526C92.6767 47.568 92.5774 47.7423 92.552 47.9755H91.9495C91.9657 47.7239 92.0395 47.5103 92.1711 47.3349C92.305 47.1594 92.4863 47.0267 92.7148 46.9366C92.9434 46.8443 93.21 46.7981 93.5147 46.7981C93.7941 46.7981 94.0445 46.8524 94.2662 46.9609C94.4878 47.0694 94.6621 47.2194 94.7891 47.411C94.9183 47.6003 94.983 47.8185 94.983 48.0655C94.983 48.2895 94.9414 48.4845 94.8583 48.6507C94.7752 48.817 94.6563 48.9601 94.5016 49.0801C94.3493 49.2002 94.1681 49.3029 93.958 49.3883L93.0784 49.7416C92.8568 49.827 92.6906 49.9297 92.5798 50.0497C92.4689 50.1698 92.4135 50.3256 92.4135 50.5172V50.725H94.9414V51.2237H91.8733Z" fill="white"/>
<path d="M97.7838 51.2237V46.8743H98.324V51.2237H97.7838Z" fill="white"/>
<path d="M102.08 51.2237V49.2775C102.08 48.9613 102.003 48.7212 101.851 48.5573C101.701 48.391 101.496 48.3079 101.235 48.3079C101.036 48.3079 100.864 48.3622 100.719 48.4707C100.573 48.5792 100.461 48.735 100.383 48.9382C100.304 49.139 100.265 49.3791 100.265 49.6584H100.057C100.057 49.2729 100.108 48.9439 100.21 48.6715C100.311 48.3991 100.459 48.1913 100.653 48.0482C100.849 47.9028 101.087 47.83 101.366 47.83C101.627 47.83 101.85 47.8889 102.035 48.0067C102.222 48.1221 102.365 48.2883 102.464 48.5053C102.563 48.7223 102.613 48.9797 102.613 49.2775V51.2237H102.08ZM99.7249 51.2237V47.9132H100.189L100.265 48.675V51.2237H99.7249Z" fill="white"/>
<path d="M105.068 51.3068C104.803 51.3068 104.555 51.2352 104.324 51.0921C104.095 50.9489 103.91 50.7469 103.77 50.4861C103.629 50.2252 103.558 49.917 103.558 49.5615C103.558 49.1967 103.629 48.8851 103.77 48.6265C103.91 48.3679 104.095 48.1706 104.324 48.0344C104.555 47.8982 104.803 47.83 105.068 47.83C105.255 47.83 105.423 47.8589 105.57 47.9166C105.72 47.972 105.851 48.0494 105.962 48.1486C106.072 48.2479 106.164 48.361 106.235 48.488C106.309 48.6127 106.363 48.7442 106.398 48.8828L105.844 48.9312C105.786 48.7396 105.689 48.5884 105.553 48.4776C105.419 48.3645 105.255 48.3079 105.061 48.3079C104.897 48.3079 104.743 48.3553 104.597 48.4499C104.454 48.5422 104.338 48.6819 104.248 48.8689C104.157 49.0536 104.112 49.2845 104.112 49.5615C104.112 49.8177 104.153 50.0405 104.234 50.2298C104.317 50.4168 104.43 50.5623 104.573 50.6661C104.716 50.77 104.879 50.822 105.061 50.822C105.318 50.822 105.511 50.7596 105.643 50.635C105.777 50.508 105.844 50.3326 105.844 50.1086H106.398C106.398 50.3395 106.344 50.5449 106.235 50.725C106.127 50.9051 105.972 51.0471 105.771 51.1509C105.573 51.2548 105.338 51.3068 105.068 51.3068Z" fill="white"/>
<path d="M106.984 50.9016C106.984 50.7931 107.022 50.6996 107.098 50.6211C107.175 50.5426 107.27 50.5034 107.386 50.5034C107.501 50.5034 107.599 50.5426 107.68 50.6211C107.761 50.6996 107.801 50.7931 107.801 50.9016C107.801 51.0101 107.761 51.1013 107.68 51.1752C107.599 51.2491 107.501 51.286 107.386 51.286C107.27 51.286 107.175 51.2491 107.098 51.1752C107.022 51.099 106.984 51.0078 106.984 50.9016Z" fill="white"/>
<path d="M111.611 51.3068C111.336 51.3068 111.085 51.2571 110.859 51.1579C110.633 51.0586 110.452 50.9132 110.315 50.7215C110.179 50.5276 110.11 50.291 110.108 50.0117H110.648C110.648 50.2748 110.74 50.4734 110.925 50.6073C111.112 50.7412 111.34 50.8081 111.611 50.8081C111.922 50.8081 112.167 50.7135 112.345 50.5242C112.525 50.3326 112.615 50.0971 112.615 49.8177C112.615 49.2591 112.255 48.9797 111.534 48.9797H110.371L110.558 46.8743H112.968V47.366H110.994L111.105 47.179L110.96 48.6958L110.89 48.6334C111.001 48.608 111.127 48.5907 111.268 48.5815C111.409 48.5699 111.534 48.5642 111.645 48.5642C112.116 48.5642 112.489 48.6692 112.764 48.8793C113.038 49.0894 113.176 49.4022 113.176 49.8177C113.176 50.0994 113.112 50.3533 112.985 50.5796C112.858 50.8035 112.677 50.9813 112.442 51.1129C112.208 51.2421 111.931 51.3068 111.611 51.3068Z" fill="white"/>
<path d="M115.624 51.3068C115.282 51.3068 114.983 51.2237 114.727 51.0574C114.473 50.8912 114.274 50.6407 114.131 50.306C113.99 49.9713 113.92 49.5523 113.92 49.049C113.92 48.5457 113.99 48.1279 114.131 47.7954C114.274 47.4607 114.473 47.2113 114.727 47.0474C114.983 46.8812 115.282 46.7981 115.624 46.7981C115.963 46.7981 116.261 46.8812 116.517 47.0474C116.773 47.2113 116.972 47.4607 117.113 47.7954C117.256 48.1279 117.327 48.5457 117.327 49.049C117.327 49.5523 117.256 49.9713 117.113 50.306C116.972 50.6407 116.773 50.8912 116.517 51.0574C116.261 51.2237 115.963 51.3068 115.624 51.3068ZM115.624 50.8081C115.998 50.8081 116.282 50.6558 116.476 50.351C116.669 50.044 116.766 49.61 116.766 49.049C116.766 48.488 116.669 48.0551 116.476 47.7504C116.282 47.4434 115.998 47.2898 115.624 47.2898C115.254 47.2898 114.972 47.4434 114.775 47.7504C114.579 48.0551 114.481 48.488 114.481 49.049C114.481 49.61 114.579 50.044 114.775 50.351C114.972 50.6558 115.254 50.8081 115.624 50.8081Z" fill="white"/>
<path d="M119.736 51.3068C119.394 51.3068 119.095 51.2237 118.839 51.0574C118.585 50.8912 118.386 50.6407 118.243 50.306C118.103 49.9713 118.032 49.5523 118.032 49.049C118.032 48.5457 118.103 48.1279 118.243 47.7954C118.386 47.4607 118.585 47.2113 118.839 47.0474C119.095 46.8812 119.394 46.7981 119.736 46.7981C120.075 46.7981 120.373 46.8812 120.629 47.0474C120.886 47.2113 121.084 47.4607 121.225 47.7954C121.368 48.1279 121.44 48.5457 121.44 49.049C121.44 49.5523 121.368 49.9713 121.225 50.306C121.084 50.6407 120.886 50.8912 120.629 51.0574C120.373 51.2237 120.075 51.3068 119.736 51.3068ZM119.736 50.8081C120.11 50.8081 120.394 50.6558 120.588 50.351C120.782 50.044 120.879 49.61 120.879 49.049C120.879 48.488 120.782 48.0551 120.588 47.7504C120.394 47.4434 120.11 47.2898 119.736 47.2898C119.366 47.2898 119.084 47.4434 118.887 47.7504C118.691 48.0551 118.593 48.488 118.593 49.049C118.593 49.61 118.691 50.044 118.887 50.351C119.084 50.6558 119.366 50.8081 119.736 50.8081Z" fill="white"/>
<path d="M123.848 51.3068C123.506 51.3068 123.207 51.2237 122.951 51.0574C122.697 50.8912 122.499 50.6407 122.356 50.306C122.215 49.9713 122.144 49.5523 122.144 49.049C122.144 48.5457 122.215 48.1279 122.356 47.7954C122.499 47.4607 122.697 47.2113 122.951 47.0474C123.207 46.8812 123.506 46.7981 123.848 46.7981C124.187 46.7981 124.485 46.8812 124.741 47.0474C124.998 47.2113 125.196 47.4607 125.337 47.7954C125.48 48.1279 125.552 48.5457 125.552 49.049C125.552 49.5523 125.48 49.9713 125.337 50.306C125.196 50.6407 124.998 50.8912 124.741 51.0574C124.485 51.2237 124.187 51.3068 123.848 51.3068ZM123.848 50.8081C124.222 50.8081 124.506 50.6558 124.7 50.351C124.894 50.044 124.991 49.61 124.991 49.049C124.991 48.488 124.894 48.0551 124.7 47.7504C124.506 47.4434 124.222 47.2898 123.848 47.2898C123.479 47.2898 123.196 47.4434 123 47.7504C122.803 48.0551 122.705 48.488 122.705 49.049C122.705 49.61 122.803 50.044 123 50.351C123.196 50.6558 123.479 50.8081 123.848 50.8081Z" fill="white"/>
<path d="M18.0498 61.2237V56.5003H18.59V61.2237H18.0498Z" fill="white"/>
<path d="M20.2956 57.1305C20.1848 57.1305 20.0971 57.0994 20.0325 57.0371C19.9678 56.9724 19.9355 56.8881 19.9355 56.7843C19.9355 56.6827 19.9678 56.6019 20.0325 56.5419C20.0971 56.4818 20.1848 56.4518 20.2956 56.4518C20.4065 56.4518 20.4942 56.4818 20.5588 56.5419C20.6235 56.6019 20.6558 56.6827 20.6558 56.7843C20.6558 56.8881 20.6235 56.9724 20.5588 57.0371C20.4942 57.0994 20.4065 57.1305 20.2956 57.1305ZM20.0255 61.2237V57.9062H20.5657V61.2237H20.0255Z" fill="white"/>
<path d="M23.245 61.3068C22.9241 61.3068 22.6563 61.2618 22.4416 61.1717C22.2269 61.0794 22.0641 60.9536 21.9533 60.7943C21.8425 60.6327 21.7836 60.448 21.7767 60.2402H22.2962C22.3077 60.4503 22.392 60.6084 22.5489 60.7146C22.7082 60.8185 22.9241 60.8705 23.1965 60.8705C23.3396 60.8705 23.4712 60.8474 23.5913 60.8012C23.7113 60.755 23.8071 60.6915 23.8787 60.6107C23.9503 60.5299 23.986 60.4387 23.986 60.3372C23.986 60.2079 23.9387 60.1063 23.8441 60.0324C23.7494 59.9586 23.5982 59.8939 23.3904 59.8385L22.7463 59.6307C22.467 59.543 22.2523 59.423 22.1022 59.2706C21.9545 59.1159 21.8806 58.9312 21.8806 58.7165C21.8806 58.4487 21.9983 58.2341 22.2338 58.0724C22.4693 57.9108 22.7786 57.83 23.1619 57.83C23.5682 57.83 23.8833 57.9132 24.1072 58.0794C24.3312 58.2456 24.4478 58.4534 24.457 58.7027H23.9237C23.9029 58.5573 23.8291 58.4476 23.7021 58.3737C23.5751 58.2975 23.395 58.2594 23.1619 58.2594C22.9379 58.2594 22.7625 58.3102 22.6355 58.4118C22.5109 58.5111 22.4485 58.6219 22.4485 58.7442C22.4485 58.9728 22.6447 59.1413 23.0372 59.2498L23.6952 59.4714C23.9791 59.5569 24.1961 59.6688 24.3462 59.8073C24.4985 59.9459 24.5747 60.1225 24.5747 60.3372C24.5747 60.5034 24.5205 60.6604 24.412 60.8081C24.3035 60.9559 24.1499 61.0759 23.9514 61.1683C23.7529 61.2606 23.5174 61.3068 23.245 61.3068Z" fill="white"/>
<path d="M26.7106 61.3068C26.5305 61.3068 26.3689 61.2721 26.2258 61.2029C26.0826 61.1336 25.9695 61.0297 25.8864 60.8912C25.8033 60.7527 25.7617 60.5796 25.7617 60.3718V56.992H26.295V60.3579C26.295 60.6996 26.4543 60.8705 26.7729 60.8705C26.8675 60.8705 26.9587 60.8601 27.0465 60.8393C27.1365 60.8185 27.2369 60.7873 27.3477 60.7458L27.4239 61.1336C27.3062 61.1844 27.1884 61.226 27.0707 61.2583C26.9553 61.2906 26.8352 61.3068 26.7106 61.3068ZM25.2284 58.2871V57.9132H27.3408V58.2871H25.2284Z" fill="white"/>
<path d="M31.1381 61.3068C30.8403 61.3068 30.5748 61.241 30.3416 61.1094C30.1107 60.9778 29.9284 60.7827 29.7945 60.5242C29.6606 60.2656 29.5936 59.947 29.5936 59.5684C29.5936 59.1875 29.6606 58.8689 29.7945 58.6127C29.9284 58.3541 30.1107 58.159 30.3416 58.0274C30.5748 57.8958 30.8403 57.83 31.1381 57.83C31.4336 57.83 31.6967 57.8958 31.9276 58.0274C32.1608 58.159 32.3431 58.3541 32.4747 58.6127C32.6086 58.8689 32.6756 59.1875 32.6756 59.5684C32.6756 59.947 32.6086 60.2656 32.4747 60.5242C32.3431 60.7827 32.1608 60.9778 31.9276 61.1094C31.6967 61.241 31.4336 61.3068 31.1381 61.3068ZM31.1242 60.8358C31.3389 60.8358 31.5213 60.785 31.6713 60.6835C31.8214 60.5796 31.9345 60.433 32.0107 60.2437C32.0892 60.0544 32.1284 59.8293 32.1284 59.5684C32.1284 59.1736 32.0465 58.8631 31.8826 58.6369C31.7187 58.4083 31.4751 58.2941 31.1519 58.2941C30.9349 58.2941 30.7514 58.346 30.6013 58.4499C30.4536 58.5515 30.3404 58.6981 30.262 58.8897C30.1858 59.079 30.1477 59.3052 30.1477 59.5684C30.1477 59.9586 30.2296 60.2679 30.3935 60.4965C30.5598 60.7227 30.8033 60.8358 31.1242 60.8358Z" fill="white"/>
<path d="M33.9075 61.2237V57.4007C33.9075 57.1813 33.949 57.0024 34.0322 56.8639C34.1176 56.7231 34.2307 56.6192 34.3715 56.5522C34.5146 56.4853 34.6739 56.4518 34.8494 56.4518C34.944 56.4518 35.0398 56.4588 35.1368 56.4726C35.2361 56.4865 35.3342 56.5072 35.4312 56.5349L35.3273 56.9643C35.258 56.9366 35.1888 56.9158 35.1195 56.902C35.0525 56.8881 34.9879 56.8812 34.9256 56.8812C34.8517 56.8812 34.7778 56.8951 34.704 56.9228C34.6301 56.9505 34.5689 57.0024 34.5204 57.0786C34.4719 57.1548 34.4477 57.2644 34.4477 57.4076V61.2237H33.9075ZM33.3673 58.2871V57.9132H35.1333V58.2871H33.3673Z" fill="white"/>
<path d="M38.763 61.3068C38.5829 61.3068 38.4213 61.2721 38.2782 61.2029C38.135 61.1336 38.0219 61.0297 37.9388 60.8912C37.8557 60.7527 37.8141 60.5796 37.8141 60.3718V56.992H38.3474V60.3579C38.3474 60.6996 38.5067 60.8705 38.8253 60.8705C38.92 60.8705 39.0112 60.8601 39.0989 60.8393C39.1889 60.8185 39.2893 60.7873 39.4001 60.7458L39.4763 61.1336C39.3586 61.1844 39.2409 61.226 39.1231 61.2583C39.0077 61.2906 38.8876 61.3068 38.763 61.3068ZM37.2809 58.2871V57.9132H39.3932V58.2871H37.2809Z" fill="white"/>
<path d="M42.7036 61.2237V59.2775C42.7036 58.9613 42.6274 58.7212 42.475 58.5573C42.325 58.391 42.1195 58.3079 41.8586 58.3079C41.6601 58.3079 41.4881 58.3622 41.3427 58.4707C41.1972 58.5792 41.0852 58.735 41.0068 58.9382C40.9283 59.139 40.889 59.3791 40.889 59.6584H40.6812C40.6812 59.2729 40.732 58.9439 40.8336 58.6715C40.9352 58.3991 41.0829 58.1913 41.2769 58.0482C41.4731 57.9028 41.7109 57.83 41.9902 57.83C42.2511 57.83 42.4739 57.8889 42.6585 58.0067C42.8455 58.1221 42.9887 58.2883 43.0879 58.5053C43.1872 58.7223 43.2368 58.9797 43.2368 59.2775V61.2237H42.7036ZM40.3488 61.2237V56.5003H40.889V61.2237H40.3488Z" fill="white"/>
<path d="M45.6783 61.3068C45.392 61.3068 45.1358 61.2341 44.9095 61.0886C44.6856 60.9409 44.5078 60.7366 44.3762 60.4757C44.247 60.2148 44.1823 59.9147 44.1823 59.5753C44.1823 59.2129 44.247 58.9012 44.3762 58.6404C44.5055 58.3795 44.6821 58.1798 44.9061 58.0413C45.1323 57.9005 45.3897 57.83 45.6783 57.83C45.9299 57.83 46.1446 57.8808 46.3224 57.9824C46.5001 58.084 46.6433 58.2214 46.7518 58.3945C46.8603 58.5676 46.9353 58.7639 46.9769 58.9832C47.0207 59.2002 47.0334 59.4253 47.0149 59.6584H44.6186V59.326H46.6583L46.499 59.4299C46.5059 59.2937 46.4978 59.1575 46.4747 59.0213C46.454 58.8851 46.4136 58.7604 46.3535 58.6473C46.2935 58.5319 46.2093 58.4395 46.1007 58.3703C45.9922 58.301 45.8537 58.2664 45.6852 58.2664C45.4728 58.2664 45.2951 58.3206 45.1519 58.4291C45.0088 58.5376 44.9014 58.6808 44.8299 58.8585C44.7583 59.034 44.7225 59.2244 44.7225 59.4299V59.6515C44.7225 59.8824 44.7572 60.089 44.8264 60.2714C44.898 60.4538 45.0042 60.598 45.145 60.7042C45.2858 60.8104 45.4636 60.8635 45.6783 60.8635C45.893 60.8635 46.0696 60.8116 46.2081 60.7077C46.3466 60.6038 46.4309 60.4503 46.4609 60.2471H47.0219C46.9872 60.4664 46.9088 60.6558 46.7864 60.815C46.664 60.972 46.5082 61.0932 46.3189 61.1786C46.1296 61.2641 45.9161 61.3068 45.6783 61.3068Z" fill="white"/>
<path d="M49.9097 61.2237V57.4007C49.9097 57.1813 49.9513 57.0024 50.0344 56.8639C50.1198 56.7231 50.2329 56.6192 50.3738 56.5522C50.5169 56.4853 50.6762 56.4518 50.8516 56.4518C50.9463 56.4518 51.0421 56.4588 51.1391 56.4726C51.2383 56.4865 51.3364 56.5072 51.4334 56.5349L51.3295 56.9643C51.2603 56.9366 51.191 56.9158 51.1217 56.902C51.0548 56.8881 50.9902 56.8812 50.9278 56.8812C50.854 56.8812 50.7801 56.8951 50.7062 56.9228C50.6323 56.9505 50.5712 57.0024 50.5227 57.0786C50.4742 57.1548 50.45 57.2644 50.45 57.4076V61.2237H49.9097ZM49.3695 58.2871V57.9132H51.1356V58.2871H49.3695Z" fill="white"/>
<path d="M54.1537 61.2237L54.0844 60.4965V59.0767C54.0844 58.7789 54.0209 58.5653 53.8939 58.4361C53.767 58.3045 53.5765 58.2387 53.3226 58.2387C53.1794 58.2387 53.049 58.2594 52.9313 58.301C52.8158 58.3426 52.7235 58.4072 52.6542 58.4949C52.5873 58.5803 52.5538 58.6911 52.5538 58.8274H51.9513C51.9513 58.5873 52.0101 58.3945 52.1279 58.2491C52.2456 58.1013 52.4072 57.9951 52.6127 57.9305C52.8204 57.8635 53.0571 57.83 53.3226 57.83C53.5765 57.83 53.8016 57.8728 53.9978 57.9582C54.1941 58.0436 54.3476 58.1798 54.4584 58.3668C54.5692 58.5515 54.6246 58.7927 54.6246 59.0905V61.2237H54.1537ZM53.0248 61.3068C52.7523 61.3068 52.5273 61.2583 52.3495 61.1613C52.1717 61.0644 52.039 60.9386 51.9513 60.7839C51.8635 60.6292 51.8197 60.4664 51.8197 60.2956C51.8197 60.0717 51.8751 59.8893 51.9859 59.7485C52.099 59.6077 52.2525 59.5049 52.4465 59.4403C52.6404 59.3733 52.8585 59.3399 53.1009 59.3399C53.2741 59.3399 53.4472 59.3572 53.6204 59.3918C53.7958 59.4264 53.9667 59.4738 54.1329 59.5338V59.8731C53.9944 59.8177 53.8374 59.7739 53.6619 59.7416C53.4888 59.7092 53.3295 59.6931 53.1841 59.6931C52.9624 59.6931 52.7754 59.7392 52.6231 59.8316C52.4707 59.9216 52.3945 60.0763 52.3945 60.2956C52.3945 60.4572 52.4522 60.5957 52.5677 60.7112C52.6854 60.8266 52.8724 60.8843 53.1286 60.8843C53.3087 60.8843 53.4703 60.8427 53.6134 60.7596C53.7589 60.6742 53.8732 60.568 53.9563 60.4411C54.0417 60.3141 54.0844 60.1871 54.0844 60.0601H54.216C54.216 60.2818 54.1675 60.4872 54.0705 60.6765C53.9759 60.8658 53.8397 61.0182 53.6619 61.1336C53.4842 61.2491 53.2718 61.3068 53.0248 61.3068Z" fill="white"/>
<path d="M57.1094 61.3068C56.7885 61.3068 56.5207 61.2618 56.306 61.1717C56.0914 61.0794 55.9286 60.9536 55.8178 60.7943C55.707 60.6327 55.6481 60.448 55.6412 60.2402H56.1606C56.1722 60.4503 56.2564 60.6084 56.4134 60.7146C56.5727 60.8185 56.7885 60.8705 57.061 60.8705C57.2041 60.8705 57.3357 60.8474 57.4557 60.8012C57.5758 60.755 57.6716 60.6915 57.7431 60.6107C57.8147 60.5299 57.8505 60.4387 57.8505 60.3372C57.8505 60.2079 57.8032 60.1063 57.7085 60.0324C57.6139 59.9586 57.4626 59.8939 57.2549 59.8385L56.6108 59.6307C56.3314 59.543 56.1167 59.423 55.9667 59.2706C55.8189 59.1159 55.7451 58.9312 55.7451 58.7165C55.7451 58.4487 55.8628 58.2341 56.0983 58.0724C56.3338 57.9108 56.6431 57.83 57.0263 57.83C57.4326 57.83 57.7478 57.9132 57.9717 58.0794C58.1956 58.2456 58.3122 58.4534 58.3214 58.7027H57.7882C57.7674 58.5573 57.6935 58.4476 57.5665 58.3737C57.4396 58.2975 57.2595 58.2594 57.0263 58.2594C56.8024 58.2594 56.6269 58.3102 56.5 58.4118C56.3753 58.5111 56.313 58.6219 56.313 58.7442C56.313 58.9728 56.5092 59.1413 56.9017 59.2498L57.5596 59.4714C57.8436 59.5569 58.0606 59.6688 58.2106 59.8073C58.363 59.9459 58.4392 60.1225 58.4392 60.3372C58.4392 60.5034 58.3849 60.6604 58.2764 60.8081C58.1679 60.9559 58.0144 61.0759 57.8159 61.1683C57.6173 61.2606 57.3818 61.3068 57.1094 61.3068Z" fill="white"/>
<path d="M60.575 61.3068C60.3949 61.3068 60.2333 61.2721 60.0902 61.2029C59.9471 61.1336 59.834 61.0297 59.7509 60.8912C59.6677 60.7527 59.6262 60.5796 59.6262 60.3718V56.992H60.1595V60.3579C60.1595 60.6996 60.3188 60.8705 60.6373 60.8705C60.732 60.8705 60.8232 60.8601 60.9109 60.8393C61.0009 60.8185 61.1014 60.7873 61.2122 60.7458L61.2884 61.1336C61.1706 61.1844 61.0529 61.226 60.9352 61.2583C60.8197 61.2906 60.6997 61.3068 60.575 61.3068ZM59.0929 58.2871V57.9132H61.2053V58.2871H59.0929Z" fill="white"/>
<path d="M63.3105 61.3068C63.0243 61.3068 62.768 61.2341 62.5418 61.0886C62.3178 60.9409 62.1401 60.7366 62.0085 60.4757C61.8792 60.2148 61.8146 59.9147 61.8146 59.5753C61.8146 59.2129 61.8792 58.9012 62.0085 58.6404C62.1378 58.3795 62.3144 58.1798 62.5383 58.0413C62.7645 57.9005 63.0219 57.83 63.3105 57.83C63.5622 57.83 63.7769 57.8808 63.9546 57.9824C64.1324 58.084 64.2755 58.2214 64.384 58.3945C64.4925 58.5676 64.5675 58.7639 64.6091 58.9832C64.653 59.2002 64.6657 59.4253 64.6472 59.6584H62.2509V59.326H64.2905L64.1312 59.4299C64.1382 59.2937 64.1301 59.1575 64.107 59.0213C64.0862 58.8851 64.0458 58.7604 63.9858 58.6473C63.9258 58.5319 63.8415 58.4395 63.733 58.3703C63.6245 58.301 63.486 58.2664 63.3174 58.2664C63.1051 58.2664 62.9273 58.3206 62.7842 58.4291C62.641 58.5376 62.5337 58.6808 62.4621 58.8585C62.3906 59.034 62.3548 59.2244 62.3548 59.4299V59.6515C62.3548 59.8824 62.3894 60.089 62.4587 60.2714C62.5302 60.4538 62.6364 60.598 62.7772 60.7042C62.9181 60.8104 63.0958 60.8635 63.3105 60.8635C63.5252 60.8635 63.7018 60.8116 63.8403 60.7077C63.9789 60.6038 64.0631 60.4503 64.0931 60.2471H64.6541C64.6195 60.4664 64.541 60.6558 64.4186 60.815C64.2963 60.972 64.1405 61.0932 63.9512 61.1786C63.7619 61.2641 63.5483 61.3068 63.3105 61.3068Z" fill="white"/>
<path d="M66.9096 61.3068C66.5887 61.3068 66.3209 61.2618 66.1063 61.1717C65.8916 61.0794 65.7288 60.9536 65.618 60.7943C65.5072 60.6327 65.4483 60.448 65.4414 60.2402H65.9608C65.9724 60.4503 66.0566 60.6084 66.2136 60.7146C66.3729 60.8185 66.5887 60.8705 66.8612 60.8705C67.0043 60.8705 67.1359 60.8474 67.2559 60.8012C67.376 60.755 67.4718 60.6915 67.5433 60.6107C67.6149 60.5299 67.6507 60.4387 67.6507 60.3372C67.6507 60.2079 67.6034 60.1063 67.5087 60.0324C67.4141 59.9586 67.2628 59.8939 67.0551 59.8385L66.411 59.6307C66.1316 59.543 65.917 59.423 65.7669 59.2706C65.6191 59.1159 65.5453 58.9312 65.5453 58.7165C65.5453 58.4487 65.663 58.2341 65.8985 58.0724C66.134 57.9108 66.4433 57.83 66.8265 57.83C67.2328 57.83 67.548 57.9132 67.7719 58.0794C67.9958 58.2456 68.1124 58.4534 68.1216 58.7027H67.5884C67.5676 58.5573 67.4937 58.4476 67.3667 58.3737C67.2398 58.2975 67.0597 58.2594 66.8265 58.2594C66.6026 58.2594 66.4271 58.3102 66.3002 58.4118C66.1755 58.5111 66.1132 58.6219 66.1132 58.7442C66.1132 58.9728 66.3094 59.1413 66.7019 59.2498L67.3598 59.4714C67.6438 59.5569 67.8608 59.6688 68.0108 59.8073C68.1632 59.9459 68.2394 60.1225 68.2394 60.3372C68.2394 60.5034 68.1851 60.6604 68.0766 60.8081C67.9681 60.9559 67.8146 61.0759 67.6161 61.1683C67.4175 61.2606 67.182 61.3068 66.9096 61.3068Z" fill="white"/>
<path d="M70.3752 61.3068C70.1951 61.3068 70.0335 61.2721 69.8904 61.2029C69.7473 61.1336 69.6342 61.0297 69.5511 60.8912C69.4679 60.7527 69.4264 60.5796 69.4264 60.3718V56.992H69.9597V60.3579C69.9597 60.6996 70.119 60.8705 70.4375 60.8705C70.5322 60.8705 70.6234 60.8601 70.7111 60.8393C70.8011 60.8185 70.9016 60.7873 71.0124 60.7458L71.0886 61.1336C70.9708 61.1844 70.8531 61.226 70.7354 61.2583C70.6199 61.2906 70.4999 61.3068 70.3752 61.3068ZM68.8931 58.2871V57.9132H71.0055V58.2871H68.8931Z" fill="white"/>
<path d="M71.5247 59.4437V58.9728H73.4085V59.4437H71.5247Z" fill="white"/>
<path d="M75.5393 62.9274C75.1999 62.9274 74.9056 62.8789 74.6562 62.782C74.4069 62.6873 74.213 62.5592 74.0745 62.3976C73.9383 62.2383 73.8702 62.0617 73.8702 61.8678C73.8702 61.6115 73.9637 61.4153 74.1507 61.2791C74.34 61.1452 74.5835 61.0782 74.8813 61.0782L75.1791 61.2652C74.9298 61.2652 74.737 61.3172 74.6008 61.421C74.4646 61.5249 74.3965 61.6669 74.3965 61.847C74.3965 62.0271 74.4935 62.1794 74.6874 62.3041C74.8813 62.4287 75.1653 62.4911 75.5393 62.4911C75.8163 62.4911 76.0587 62.4507 76.2665 62.3699C76.4766 62.2914 76.6393 62.1875 76.7547 62.0582C76.8725 61.9312 76.9314 61.7939 76.9314 61.6461C76.9314 61.5422 76.8933 61.4522 76.8171 61.376C76.7409 61.3022 76.6243 61.2652 76.4673 61.2652H75.1791C74.9552 61.2652 74.7613 61.2317 74.5974 61.1648C74.4358 61.0955 74.3111 61.0055 74.2234 60.8947C74.1357 60.7839 74.0918 60.6627 74.0918 60.5311C74.0918 60.3926 74.131 60.2748 74.2095 60.1779C74.288 60.0809 74.3896 60.007 74.5143 59.9563C74.6412 59.9055 74.7774 59.8801 74.9229 59.8801L75.0268 60.0809C74.9575 60.0809 74.8871 60.0971 74.8155 60.1294C74.7463 60.1594 74.6874 60.2056 74.6389 60.2679C74.5928 60.3279 74.5697 60.4041 74.5697 60.4965C74.5697 60.6027 74.6135 60.6915 74.7013 60.7631C74.789 60.8347 74.9483 60.8705 75.1791 60.8705H76.4673C76.779 60.8705 77.0237 60.9362 77.2015 61.0678C77.3815 61.1994 77.4716 61.383 77.4716 61.6184C77.4716 61.8354 77.3942 62.0432 77.2395 62.2417C77.0849 62.4426 76.8633 62.6065 76.5747 62.7335C76.2861 62.8628 75.941 62.9274 75.5393 62.9274ZM75.6362 60.2541C75.3823 60.2541 75.1526 60.2033 74.9471 60.1017C74.744 60.0001 74.5824 59.8581 74.4623 59.6758C74.3446 59.4934 74.2857 59.2821 74.2857 59.0421C74.2857 58.7997 74.3446 58.5873 74.4623 58.4049C74.5824 58.2225 74.744 58.0817 74.9471 57.9824C75.1526 57.8808 75.3823 57.83 75.6362 57.83C75.8833 57.83 76.1072 57.8808 76.308 57.9824C76.5112 58.0817 76.6728 58.2225 76.7928 58.4049C76.9129 58.5873 76.9729 58.7997 76.9729 59.0421C76.9729 59.2821 76.9129 59.4934 76.7928 59.6758C76.6728 59.8581 76.5112 60.0001 76.308 60.1017C76.1072 60.2033 75.8833 60.2541 75.6362 60.2541ZM75.6362 59.8662C75.8902 59.8662 76.0876 59.7877 76.2284 59.6307C76.3692 59.4738 76.4396 59.2775 76.4396 59.0421C76.4396 58.7997 76.3692 58.6034 76.2284 58.4534C76.0876 58.301 75.8902 58.2248 75.6362 58.2248C75.3846 58.2248 75.1861 58.301 75.0406 58.4534C74.8975 58.6034 74.8259 58.7997 74.8259 59.0421C74.8259 59.2775 74.8975 59.4738 75.0406 59.6307C75.1861 59.7877 75.3846 59.8662 75.6362 59.8662ZM76.7236 58.3564L76.4673 58.2525C76.4673 58.0586 76.5054 57.8889 76.5816 57.7435C76.6578 57.5957 76.7663 57.4815 76.9071 57.4007C77.0479 57.3175 77.2153 57.276 77.4092 57.276L77.3677 57.8093C77.1599 57.8093 77.0006 57.8543 76.8898 57.9443C76.779 58.032 76.7236 58.1694 76.7236 58.3564Z" fill="white"/>
<path d="M78.2781 61.2237V57.9062H78.8183V61.2237H78.2781ZM78.6521 59.7277C78.6521 59.3075 78.6925 58.9589 78.7733 58.6819C78.8541 58.4026 78.9718 58.1948 79.1265 58.0586C79.2835 57.9201 79.4739 57.8508 79.6979 57.8508C79.7717 57.8508 79.8387 57.8566 79.8987 57.8681C79.961 57.8774 80.0234 57.8924 80.0857 57.9132L80.0511 58.4464C79.9864 58.4257 79.916 58.4083 79.8398 58.3945C79.7637 58.3783 79.6956 58.3703 79.6355 58.3703C79.4393 58.3703 79.2812 58.4268 79.1611 58.5399C79.0411 58.6507 78.9533 58.8077 78.8979 59.0109C78.8448 59.214 78.8183 59.453 78.8183 59.7277H78.6521Z" fill="white"/>
<path d="M81.9787 61.3068C81.6809 61.3068 81.4154 61.241 81.1822 61.1094C80.9514 60.9778 80.769 60.7827 80.6351 60.5242C80.5012 60.2656 80.4343 59.947 80.4343 59.5684C80.4343 59.1875 80.5012 58.8689 80.6351 58.6127C80.769 58.3541 80.9514 58.159 81.1822 58.0274C81.4154 57.8958 81.6809 57.83 81.9787 57.83C82.2742 57.83 82.5374 57.8958 82.7682 58.0274C83.0014 58.159 83.1838 58.3541 83.3154 58.6127C83.4493 58.8689 83.5162 59.1875 83.5162 59.5684C83.5162 59.947 83.4493 60.2656 83.3154 60.5242C83.1838 60.7827 83.0014 60.9778 82.7682 61.1094C82.5374 61.241 82.2742 61.3068 81.9787 61.3068ZM81.9649 60.8358C82.1796 60.8358 82.3619 60.785 82.512 60.6835C82.662 60.5796 82.7752 60.433 82.8513 60.2437C82.9298 60.0544 82.9691 59.8293 82.9691 59.5684C82.9691 59.1736 82.8871 58.8631 82.7232 58.6369C82.5593 58.4083 82.3158 58.2941 81.9926 58.2941C81.7755 58.2941 81.592 58.346 81.442 58.4499C81.2942 58.5515 81.1811 58.6981 81.1026 58.8897C81.0264 59.079 80.9883 59.3052 80.9883 59.5684C80.9883 59.9586 81.0703 60.2679 81.2342 60.4965C81.4004 60.7227 81.644 60.8358 81.9649 60.8358Z" fill="white"/>
<path d="M83.9932 57.9132H84.5542L85.3992 60.6765H85.3299L86.1541 58.0724H86.6042L87.4215 60.6835H87.3591L88.2041 57.9132H88.7443L87.657 61.2237H87.1306L86.3272 58.7789H86.4103L85.6139 61.2237H85.0875L83.9932 57.9132Z" fill="white"/>
<path d="M89.8913 57.1305C89.7804 57.1305 89.6927 57.0994 89.6281 57.0371C89.5634 56.9724 89.5311 56.8881 89.5311 56.7843C89.5311 56.6827 89.5634 56.6019 89.6281 56.5419C89.6927 56.4818 89.7804 56.4518 89.8913 56.4518C90.0021 56.4518 90.0898 56.4818 90.1544 56.5419C90.2191 56.6019 90.2514 56.6827 90.2514 56.7843C90.2514 56.8881 90.2191 56.9724 90.1544 57.0371C90.0898 57.0994 90.0021 57.1305 89.8913 57.1305ZM89.6212 61.2237V57.9062H90.1614V61.2237H89.6212Z" fill="white"/>
<path d="M94.0041 61.2237V59.2775C94.0041 58.9613 93.9279 58.7212 93.7756 58.5573C93.6255 58.391 93.4201 58.3079 93.1592 58.3079C92.9606 58.3079 92.7887 58.3622 92.6432 58.4707C92.4978 58.5792 92.3858 58.735 92.3073 58.9382C92.2288 59.139 92.1896 59.3791 92.1896 59.6584H91.9818C91.9818 59.2729 92.0326 58.9439 92.1342 58.6715C92.2358 58.3991 92.3835 58.1913 92.5774 58.0482C92.7737 57.9028 93.0114 57.83 93.2908 57.83C93.5517 57.83 93.7744 57.8889 93.9591 58.0067C94.1461 58.1221 94.2892 58.2883 94.3885 58.5053C94.4878 58.7223 94.5374 58.9797 94.5374 59.2775V61.2237H94.0041ZM91.6494 61.2237V57.9132H92.1134L92.1896 58.675V61.2237H91.6494Z" fill="white"/>
<path d="M96.9996 62.9274C96.6603 62.9274 96.3659 62.8789 96.1166 62.782C95.8673 62.6873 95.6733 62.5592 95.5348 62.3976C95.3986 62.2383 95.3305 62.0617 95.3305 61.8678C95.3305 61.6115 95.424 61.4153 95.611 61.2791C95.8003 61.1452 96.0439 61.0782 96.3417 61.0782L96.6395 61.2652C96.3902 61.2652 96.1974 61.3172 96.0612 61.421C95.925 61.5249 95.8569 61.6669 95.8569 61.847C95.8569 62.0271 95.9538 62.1794 96.1478 62.3041C96.3417 62.4287 96.6256 62.4911 96.9996 62.4911C97.2766 62.4911 97.5191 62.4507 97.7268 62.3699C97.9369 62.2914 98.0997 62.1875 98.2151 62.0582C98.3328 61.9312 98.3917 61.7939 98.3917 61.6461C98.3917 61.5422 98.3536 61.4522 98.2774 61.376C98.2012 61.3022 98.0847 61.2652 97.9277 61.2652H96.6395C96.4156 61.2652 96.2216 61.2317 96.0577 61.1648C95.8961 61.0955 95.7715 61.0055 95.6837 60.8947C95.596 60.7839 95.5521 60.6627 95.5521 60.5311C95.5521 60.3926 95.5914 60.2748 95.6699 60.1779C95.7484 60.0809 95.8499 60.007 95.9746 59.9563C96.1016 59.9055 96.2378 59.8801 96.3832 59.8801L96.4871 60.0809C96.4179 60.0809 96.3474 60.0971 96.2759 60.1294C96.2066 60.1594 96.1478 60.2056 96.0993 60.2679C96.0531 60.3279 96.03 60.4041 96.03 60.4965C96.03 60.6027 96.0739 60.6915 96.1616 60.7631C96.2493 60.8347 96.4086 60.8705 96.6395 60.8705H97.9277C98.2393 60.8705 98.484 60.9362 98.6618 61.0678C98.8419 61.1994 98.9319 61.383 98.9319 61.6184C98.9319 61.8354 98.8546 62.0432 98.6999 62.2417C98.5452 62.4426 98.3236 62.6065 98.035 62.7335C97.7464 62.8628 97.4013 62.9274 96.9996 62.9274ZM97.0966 60.2541C96.8426 60.2541 96.6129 60.2033 96.4075 60.1017C96.2043 60.0001 96.0427 59.8581 95.9227 59.6758C95.8049 59.4934 95.7461 59.2821 95.7461 59.0421C95.7461 58.7997 95.8049 58.5873 95.9227 58.4049C96.0427 58.2225 96.2043 58.0817 96.4075 57.9824C96.6129 57.8808 96.8426 57.83 97.0966 57.83C97.3436 57.83 97.5675 57.8808 97.7684 57.9824C97.9715 58.0817 98.1331 58.2225 98.2532 58.4049C98.3732 58.5873 98.4333 58.7997 98.4333 59.0421C98.4333 59.2821 98.3732 59.4934 98.2532 59.6758C98.1331 59.8581 97.9715 60.0001 97.7684 60.1017C97.5675 60.2033 97.3436 60.2541 97.0966 60.2541ZM97.0966 59.8662C97.3505 59.8662 97.5479 59.7877 97.6887 59.6307C97.8296 59.4738 97.9 59.2775 97.9 59.0421C97.9 58.7997 97.8296 58.6034 97.6887 58.4534C97.5479 58.301 97.3505 58.2248 97.0966 58.2248C96.8449 58.2248 96.6464 58.301 96.501 58.4534C96.3578 58.6034 96.2863 58.7997 96.2863 59.0421C96.2863 59.2775 96.3578 59.4738 96.501 59.6307C96.6464 59.7877 96.8449 59.8662 97.0966 59.8662ZM98.1839 58.3564L97.9277 58.2525C97.9277 58.0586 97.9658 57.8889 98.0419 57.7435C98.1181 57.5957 98.2266 57.4815 98.3675 57.4007C98.5083 57.3175 98.6756 57.276 98.8696 57.276L98.828 57.8093C98.6202 57.8093 98.461 57.8543 98.3501 57.9443C98.2393 58.032 98.1839 58.1694 98.1839 58.3564Z" fill="white"/>
<path d="M19.5665 71.3068C19.3449 71.3068 19.1441 71.2491 18.964 71.1336C18.7862 71.0182 18.6443 70.8497 18.5381 70.628C18.4342 70.4041 18.3822 70.1317 18.3822 69.8108H18.59C18.59 70.0255 18.6339 70.209 18.7216 70.3614C18.8116 70.5115 18.9271 70.6257 19.0679 70.7042C19.2087 70.7827 19.3565 70.822 19.5111 70.822C19.6889 70.822 19.8517 70.7712 19.9994 70.6696C20.1472 70.568 20.2649 70.4226 20.3526 70.2333C20.4427 70.044 20.4877 69.8177 20.4877 69.5546C20.4877 69.296 20.4438 69.0744 20.3561 68.8897C20.2684 68.7027 20.1495 68.5596 19.9994 68.4603C19.8517 68.3587 19.6866 68.3079 19.5042 68.3079C19.3472 68.3079 19.1983 68.3472 19.0575 68.4257C18.919 68.5018 18.8059 68.615 18.7181 68.765C18.6327 68.9151 18.59 69.0998 18.59 69.3191H18.3822C18.3822 69.0051 18.433 68.7373 18.5346 68.5157C18.6385 68.2941 18.7816 68.1244 18.964 68.0067C19.1464 67.8889 19.3588 67.83 19.6012 67.83C19.862 67.83 20.101 67.9005 20.318 68.0413C20.5373 68.1798 20.7128 68.3783 20.8443 68.6369C20.9759 68.8955 21.0417 69.2013 21.0417 69.5546C21.0417 69.9101 20.9748 70.2194 20.8409 70.4826C20.707 70.7435 20.5281 70.9466 20.3041 71.0921C20.0802 71.2352 19.8343 71.3068 19.5665 71.3068ZM18.0498 71.2237V66.5003H18.59V70.448L18.4307 71.2237H18.0498Z" fill="white"/>
<path d="M24.4061 67.9062H24.9463V71.2237H24.4061V67.9062ZM22.0582 67.9062H22.5985V69.9701C22.5985 70.2471 22.6654 70.4572 22.7993 70.6003C22.9355 70.7435 23.1294 70.815 23.3811 70.815C23.5888 70.815 23.7689 70.7596 23.9213 70.6488C24.0759 70.538 24.1948 70.3856 24.2779 70.1917C24.3634 69.9955 24.4061 69.7716 24.4061 69.5199H24.6069C24.6069 69.8916 24.5527 70.209 24.4442 70.4722C24.338 70.7354 24.1868 70.9374 23.9905 71.0782C23.7966 71.2167 23.5681 71.286 23.3049 71.286C23.0556 71.286 22.8374 71.2398 22.6504 71.1475C22.4634 71.0551 22.318 70.9155 22.2141 70.7285C22.1102 70.5392 22.0582 70.3002 22.0582 70.0117V67.9062Z" fill="white"/>
<path d="M27.5398 71.3068C27.2189 71.3068 26.9511 71.2618 26.7364 71.1717C26.5217 71.0794 26.3589 70.9536 26.2481 70.7943C26.1373 70.6327 26.0784 70.448 26.0715 70.2402H26.5909C26.6025 70.4503 26.6867 70.6084 26.8437 70.7146C27.003 70.8185 27.2189 70.8705 27.4913 70.8705C27.6344 70.8705 27.766 70.8474 27.886 70.8012C28.0061 70.755 28.1019 70.6915 28.1735 70.6107C28.245 70.5299 28.2808 70.4387 28.2808 70.3372C28.2808 70.2079 28.2335 70.1063 28.1388 70.0324C28.0442 69.9586 27.893 69.8939 27.6852 69.8385L27.0411 69.6307C26.7618 69.543 26.5471 69.423 26.397 69.2706C26.2493 69.1159 26.1754 68.9312 26.1754 68.7165C26.1754 68.4487 26.2931 68.234 26.5286 68.0724C26.7641 67.9108 27.0734 67.83 27.4566 67.83C27.863 67.83 28.1781 67.9132 28.402 68.0794C28.6259 68.2456 28.7425 68.4534 28.7518 68.7027H28.2185C28.1977 68.5573 28.1238 68.4476 27.9969 68.3737C27.8699 68.2975 27.6898 68.2594 27.4566 68.2594C27.2327 68.2594 27.0573 68.3102 26.9303 68.4118C26.8056 68.5111 26.7433 68.6219 26.7433 68.7442C26.7433 68.9728 26.9395 69.1413 27.332 69.2498L27.9899 69.4714C28.2739 69.5569 28.4909 69.6688 28.6409 69.8073C28.7933 69.9459 28.8695 70.1225 28.8695 70.3372C28.8695 70.5034 28.8152 70.6604 28.7067 70.8081C28.5982 70.9559 28.4447 71.0759 28.2462 71.1683C28.0476 71.2606 27.8122 71.3068 27.5398 71.3068Z" fill="white"/>
<path d="M30.292 67.1305C30.1812 67.1305 30.0934 67.0994 30.0288 67.0371C29.9642 66.9724 29.9318 66.8881 29.9318 66.7843C29.9318 66.6827 29.9642 66.6019 30.0288 66.5419C30.0934 66.4818 30.1812 66.4518 30.292 66.4518C30.4028 66.4518 30.4905 66.4818 30.5552 66.5419C30.6198 66.6019 30.6521 66.6827 30.6521 66.7843C30.6521 66.8881 30.6198 66.9724 30.5552 67.0371C30.4905 67.0994 30.4028 67.1305 30.292 67.1305ZM30.0219 71.2237V67.9062H30.5621V71.2237H30.0219Z" fill="white"/>
<path d="M34.4048 71.2237V69.2775C34.4048 68.9613 34.3287 68.7212 34.1763 68.5573C34.0262 68.391 33.8208 68.3079 33.5599 68.3079C33.3614 68.3079 33.1894 68.3622 33.0439 68.4707C32.8985 68.5792 32.7865 68.735 32.708 68.9382C32.6295 69.139 32.5903 69.3791 32.5903 69.6584H32.3825C32.3825 69.2729 32.4333 68.9439 32.5349 68.6715C32.6365 68.3991 32.7842 68.1913 32.9781 68.0482C33.1744 67.9028 33.4122 67.83 33.6915 67.83C33.9524 67.83 34.1751 67.8889 34.3598 68.0067C34.5468 68.1221 34.69 68.2883 34.7892 68.5053C34.8885 68.7223 34.9381 68.9797 34.9381 69.2775V71.2237H34.4048ZM32.0501 71.2237V67.9132H32.5141L32.5903 68.675V71.2237H32.0501Z" fill="white"/>
<path d="M37.3796 71.3068C37.0933 71.3068 36.837 71.2341 36.6108 71.0886C36.3869 70.9409 36.2091 70.7366 36.0775 70.4757C35.9482 70.2148 35.8836 69.9147 35.8836 69.5753C35.8836 69.2129 35.9482 68.9012 36.0775 68.6404C36.2068 68.3795 36.3834 68.1798 36.6073 68.0413C36.8336 67.9005 37.091 67.83 37.3796 67.83C37.6312 67.83 37.8459 67.8808 38.0237 67.9824C38.2014 68.084 38.3445 68.2214 38.4531 68.3945C38.5616 68.5676 38.6366 68.7639 38.6781 68.9832C38.722 69.2002 38.7347 69.4253 38.7162 69.6584H36.3199V69.326H38.3596L38.2003 69.4299C38.2072 69.2937 38.1991 69.1575 38.176 69.0213C38.1552 68.8851 38.1148 68.7604 38.0548 68.6473C37.9948 68.5319 37.9105 68.4395 37.802 68.3703C37.6935 68.301 37.555 68.2664 37.3865 68.2664C37.1741 68.2664 36.9963 68.3206 36.8532 68.4291C36.7101 68.5376 36.6027 68.6808 36.5312 68.8585C36.4596 69.034 36.4238 69.2244 36.4238 69.4299V69.6515C36.4238 69.8824 36.4584 70.089 36.5277 70.2714C36.5993 70.4538 36.7055 70.598 36.8463 70.7042C36.9871 70.8104 37.1649 70.8635 37.3796 70.8635C37.5943 70.8635 37.7709 70.8116 37.9094 70.7077C38.0479 70.6038 38.1322 70.4503 38.1622 70.2471H38.7232C38.6885 70.4664 38.61 70.6558 38.4877 70.815C38.3653 70.972 38.2095 71.0932 38.0202 71.1786C37.8309 71.2641 37.6173 71.3068 37.3796 71.3068Z" fill="white"/>
<path d="M40.9787 71.3068C40.6578 71.3068 40.39 71.2618 40.1753 71.1717C39.9606 71.0794 39.7978 70.9536 39.687 70.7943C39.5762 70.6327 39.5173 70.448 39.5104 70.2402H40.0298C40.0414 70.4503 40.1257 70.6084 40.2826 70.7146C40.4419 70.8185 40.6578 70.8705 40.9302 70.8705C41.0733 70.8705 41.2049 70.8474 41.325 70.8012C41.445 70.755 41.5408 70.6915 41.6124 70.6107C41.6839 70.5299 41.7197 70.4387 41.7197 70.3372C41.7197 70.2079 41.6724 70.1063 41.5778 70.0324C41.4831 69.9586 41.3319 69.8939 41.1241 69.8385L40.48 69.6307C40.2007 69.543 39.986 69.423 39.8359 69.2706C39.6882 69.1159 39.6143 68.9312 39.6143 68.7165C39.6143 68.4487 39.732 68.234 39.9675 68.0724C40.203 67.9108 40.5123 67.83 40.8956 67.83C41.3019 67.83 41.617 67.9132 41.8409 68.0794C42.0649 68.2456 42.1814 68.4534 42.1907 68.7027H41.6574C41.6366 68.5573 41.5627 68.4476 41.4358 68.3737C41.3088 68.2975 41.1287 68.2594 40.8956 68.2594C40.6716 68.2594 40.4962 68.3102 40.3692 68.4118C40.2445 68.5111 40.1822 68.6219 40.1822 68.7442C40.1822 68.9728 40.3784 69.1413 40.7709 69.2498L41.4288 69.4714C41.7128 69.5569 41.9298 69.6688 42.0799 69.8073C42.2322 69.9459 42.3084 70.1225 42.3084 70.3372C42.3084 70.5034 42.2542 70.6604 42.1457 70.8081C42.0372 70.9559 41.8836 71.0759 41.6851 71.1683C41.4866 71.2606 41.2511 71.3068 40.9787 71.3068Z" fill="white"/>
<path d="M44.6174 71.3068C44.2965 71.3068 44.0287 71.2618 43.814 71.1717C43.5993 71.0794 43.4366 70.9536 43.3257 70.7943C43.2149 70.6327 43.1561 70.448 43.1491 70.2402H43.6686C43.6801 70.4503 43.7644 70.6084 43.9214 70.7146C44.0807 70.8185 44.2965 70.8705 44.5689 70.8705C44.712 70.8705 44.8436 70.8474 44.9637 70.8012C45.0837 70.755 45.1795 70.6915 45.2511 70.6107C45.3227 70.5299 45.3584 70.4387 45.3584 70.3372C45.3584 70.2079 45.3111 70.1063 45.2165 70.0324C45.1218 69.9586 44.9706 69.8939 44.7628 69.8385L44.1187 69.6307C43.8394 69.543 43.6247 69.423 43.4746 69.2706C43.3269 69.1159 43.253 68.9312 43.253 68.7165C43.253 68.4487 43.3708 68.234 43.6062 68.0724C43.8417 67.9108 44.1511 67.83 44.5343 67.83C44.9406 67.83 45.2557 67.9132 45.4797 68.0794C45.7036 68.2456 45.8202 68.4534 45.8294 68.7027H45.2961C45.2753 68.5573 45.2015 68.4476 45.0745 68.3737C44.9475 68.2975 44.7675 68.2594 44.5343 68.2594C44.3104 68.2594 44.1349 68.3102 44.0079 68.4118C43.8833 68.5111 43.8209 68.6219 43.8209 68.7442C43.8209 68.9728 44.0172 69.1413 44.4096 69.2498L45.0676 69.4714C45.3515 69.5569 45.5685 69.6688 45.7186 69.8073C45.871 69.9459 45.9471 70.1225 45.9471 70.3372C45.9471 70.5034 45.8929 70.6604 45.7844 70.8081C45.6759 70.9559 45.5224 71.0759 45.3238 71.1683C45.1253 71.2606 44.8898 71.3068 44.6174 71.3068Z" fill="white"/>
<path d="M48.2146 71.3068C47.9283 71.3068 47.672 71.2341 47.4458 71.0886C47.2219 70.9409 47.0441 70.7366 46.9125 70.4757C46.7832 70.2148 46.7186 69.9147 46.7186 69.5753C46.7186 69.2129 46.7832 68.9012 46.9125 68.6404C47.0418 68.3795 47.2184 68.1798 47.4423 68.0413C47.6686 67.9005 47.926 67.83 48.2146 67.83C48.4662 67.83 48.6809 67.8808 48.8587 67.9824C49.0364 68.084 49.1796 68.2214 49.2881 68.3945C49.3966 68.5676 49.4716 68.7639 49.5131 68.9832C49.557 69.2002 49.5697 69.4253 49.5512 69.6584H47.1549V69.326H49.1946L49.0353 69.4299C49.0422 69.2937 49.0341 69.1575 49.011 69.0213C48.9902 68.8851 48.9498 68.7604 48.8898 68.6473C48.8298 68.5319 48.7455 68.4395 48.637 68.3703C48.5285 68.301 48.39 68.2664 48.2215 68.2664C48.0091 68.2664 47.8313 68.3206 47.6882 68.4291C47.5451 68.5376 47.4377 68.6808 47.3662 68.8585C47.2946 69.034 47.2588 69.2244 47.2588 69.4299V69.6515C47.2588 69.8824 47.2934 70.089 47.3627 70.2714C47.4343 70.4538 47.5405 70.598 47.6813 70.7042C47.8221 70.8104 47.9999 70.8635 48.2146 70.8635C48.4293 70.8635 48.6059 70.8116 48.7444 70.7077C48.8829 70.6038 48.9672 70.4503 48.9972 70.2471H49.5582C49.5235 70.4664 49.445 70.6558 49.3227 70.815C49.2003 70.972 49.0445 71.0932 48.8552 71.1786C48.6659 71.2641 48.4523 71.3068 48.2146 71.3068Z" fill="white"/>
<path d="M51.8137 71.3068C51.4928 71.3068 51.225 71.2618 51.0103 71.1717C50.7956 71.0794 50.6328 70.9536 50.522 70.7943C50.4112 70.6327 50.3523 70.448 50.3454 70.2402H50.8648C50.8764 70.4503 50.9607 70.6084 51.1176 70.7146C51.2769 70.8185 51.4928 70.8705 51.7652 70.8705C51.9083 70.8705 52.0399 70.8474 52.16 70.8012C52.28 70.755 52.3758 70.6915 52.4474 70.6107C52.5189 70.5299 52.5547 70.4387 52.5547 70.3372C52.5547 70.2079 52.5074 70.1063 52.4128 70.0324C52.3181 69.9586 52.1669 69.8939 51.9591 69.8385L51.315 69.6307C51.0357 69.543 50.821 69.423 50.6709 69.2706C50.5232 69.1159 50.4493 68.9312 50.4493 68.7165C50.4493 68.4487 50.567 68.234 50.8025 68.0724C51.038 67.9108 51.3473 67.83 51.7306 67.83C52.1369 67.83 52.452 67.9132 52.6759 68.0794C52.8999 68.2456 53.0164 68.4534 53.0257 68.7027H52.4924C52.4716 68.5573 52.3977 68.4476 52.2708 68.3737C52.1438 68.2975 51.9637 68.2594 51.7306 68.2594C51.5066 68.2594 51.3312 68.3102 51.2042 68.4118C51.0795 68.5111 51.0172 68.6219 51.0172 68.7442C51.0172 68.9728 51.2134 69.1413 51.6059 69.2498L52.2638 69.4714C52.5478 69.5569 52.7648 69.6688 52.9149 69.8073C53.0672 69.9459 53.1434 70.1225 53.1434 70.3372C53.1434 70.5034 53.0892 70.6604 52.9807 70.8081C52.8722 70.9559 52.7186 71.0759 52.5201 71.1683C52.3216 71.2606 52.0861 71.3068 51.8137 71.3068Z" fill="white"/>
<path d="M56.2094 67.1305C56.0986 67.1305 56.0109 67.0994 55.9462 67.0371C55.8816 66.9724 55.8493 66.8881 55.8493 66.7843C55.8493 66.6827 55.8816 66.6019 55.9462 66.5419C56.0109 66.4818 56.0986 66.4518 56.2094 66.4518C56.3202 66.4518 56.408 66.4818 56.4726 66.5419C56.5372 66.6019 56.5696 66.6827 56.5696 66.7843C56.5696 66.8881 56.5372 66.9724 56.4726 67.0371C56.408 67.0994 56.3202 67.1305 56.2094 67.1305ZM55.9393 71.2237V67.9062H56.4795V71.2237H55.9393Z" fill="white"/>
<path d="M60.3223 71.2237V69.2775C60.3223 68.9613 60.2461 68.7212 60.0937 68.5573C59.9437 68.391 59.7382 68.3079 59.4773 68.3079C59.2788 68.3079 59.1068 68.3622 58.9614 68.4707C58.8159 68.5792 58.704 68.735 58.6255 68.9382C58.547 69.139 58.5077 69.3791 58.5077 69.6584H58.3C58.3 69.2729 58.3507 68.9439 58.4523 68.6715C58.5539 68.3991 58.7017 68.1913 58.8956 68.0482C59.0918 67.9028 59.3296 67.83 59.6089 67.83C59.8698 67.83 60.0926 67.8889 60.2773 68.0067C60.4643 68.1221 60.6074 68.2883 60.7067 68.5053C60.8059 68.7223 60.8556 68.9797 60.8556 69.2775V71.2237H60.3223ZM57.9675 71.2237V67.9132H58.4315L58.5077 68.675V71.2237H57.9675Z" fill="white"/>
<path d="M63.2714 71.2237L64.7674 66.8743H65.4253L66.8866 71.2237H66.3187L65.9517 70.1086H64.2202L63.8393 71.2237H63.2714ZM64.3587 69.6861H65.8131L65.0859 67.5322L64.3587 69.6861Z" fill="white"/>
<path d="M72.4218 71.2237V69.2775C72.4218 68.9613 72.3456 68.7212 72.1933 68.5573C72.0432 68.391 71.8401 68.3079 71.5838 68.3079C71.2837 68.3079 71.054 68.4245 70.8947 68.6577C70.7354 68.8885 70.6558 69.2083 70.6558 69.6169H70.4064C70.4064 69.3191 70.4353 69.0582 70.493 68.8343C70.553 68.6103 70.6396 68.4245 70.7527 68.2768C70.8658 68.1267 71.0032 68.0147 71.1648 67.9409C71.3264 67.867 71.5099 67.83 71.7154 67.83C71.9763 67.83 72.1991 67.8889 72.3837 68.0067C72.5707 68.1221 72.7139 68.2883 72.8131 68.5053C72.9124 68.7223 72.962 68.9797 72.962 69.2775V71.2237H72.4218ZM67.7677 71.2237V67.9132H68.2318L68.2941 68.578C68.398 68.3379 68.5434 68.1532 68.7304 68.024C68.9197 67.8947 69.1459 67.83 69.4091 67.83C69.67 67.83 69.8928 67.8889 70.0775 68.0067C70.2645 68.1221 70.4076 68.2883 70.5069 68.5053C70.6061 68.7223 70.6558 68.9797 70.6558 69.2775V71.2237H70.1225V69.2775C70.1225 68.9613 70.0463 68.7212 69.8939 68.5573C69.7439 68.391 69.5384 68.3079 69.2775 68.3079C69.079 68.3079 68.907 68.3622 68.7616 68.4707C68.6161 68.5792 68.5042 68.735 68.4257 68.9382C68.3472 69.139 68.3079 69.3791 68.3079 69.6584V71.2237H67.7677Z" fill="white"/>
<path d="M75.3968 71.3068C75.1105 71.3068 74.8542 71.2341 74.628 71.0886C74.4041 70.9409 74.2263 70.7366 74.0947 70.4757C73.9654 70.2148 73.9008 69.9147 73.9008 69.5753C73.9008 69.2129 73.9654 68.9012 74.0947 68.6404C74.224 68.3795 74.4006 68.1798 74.6245 68.0413C74.8508 67.9005 75.1082 67.83 75.3968 67.83C75.6484 67.83 75.8631 67.8808 76.0409 67.9824C76.2186 68.084 76.3617 68.2214 76.4702 68.3945C76.5788 68.5676 76.6538 68.7639 76.6953 68.9832C76.7392 69.2002 76.7519 69.4253 76.7334 69.6584H74.3371V69.326H76.3768L76.2175 69.4299C76.2244 69.2937 76.2163 69.1575 76.1932 69.0213C76.1724 68.8851 76.132 68.7604 76.072 68.6473C76.012 68.5319 75.9277 68.4395 75.8192 68.3703C75.7107 68.301 75.5722 68.2664 75.4037 68.2664C75.1913 68.2664 75.0135 68.3206 74.8704 68.4291C74.7273 68.5376 74.6199 68.6808 74.5484 68.8585C74.4768 69.034 74.441 69.2244 74.441 69.4299V69.6515C74.441 69.8824 74.4756 70.089 74.5449 70.2714C74.6165 70.4538 74.7227 70.598 74.8635 70.7042C75.0043 70.8104 75.1821 70.8635 75.3968 70.8635C75.6115 70.8635 75.7881 70.8116 75.9266 70.7077C76.0651 70.6038 76.1494 70.4503 76.1794 70.2471H76.7404C76.7057 70.4664 76.6272 70.6558 76.5049 70.815C76.3825 70.972 76.2267 71.0932 76.0374 71.1786C75.8481 71.2641 75.6345 71.3068 75.3968 71.3068Z" fill="white"/>
<path d="M77.8046 71.2237V67.9062H78.3449V71.2237H77.8046ZM78.1786 69.7277C78.1786 69.3075 78.219 68.9589 78.2998 68.6819C78.3806 68.4026 78.4984 68.1948 78.653 68.0586C78.81 67.9201 79.0005 67.8508 79.2244 67.8508C79.2983 67.8508 79.3652 67.8566 79.4253 67.8681C79.4876 67.8774 79.5499 67.8924 79.6123 67.9132L79.5776 68.4464C79.513 68.4257 79.4426 68.4083 79.3664 68.3945C79.2902 68.3783 79.2221 68.3703 79.1621 68.3703C78.9659 68.3703 78.8077 68.4268 78.6877 68.5399C78.5676 68.6507 78.4799 68.8077 78.4245 69.0109C78.3714 69.214 78.3449 69.453 78.3449 69.7277H78.1786Z" fill="white"/>
<path d="M80.6118 67.1305C80.501 67.1305 80.4133 67.0994 80.3487 67.0371C80.284 66.9724 80.2517 66.8881 80.2517 66.7843C80.2517 66.6827 80.284 66.6019 80.3487 66.5419C80.4133 66.4818 80.501 66.4518 80.6118 66.4518C80.7227 66.4518 80.8104 66.4818 80.875 66.5419C80.9397 66.6019 80.972 66.6827 80.972 66.7843C80.972 66.8881 80.9397 66.9724 80.875 67.0371C80.8104 67.0994 80.7227 67.1305 80.6118 67.1305ZM80.3417 71.2237V67.9062H80.882V71.2237H80.3417Z" fill="white"/>
<path d="M83.5335 71.3068C83.268 71.3068 83.0198 71.2352 82.789 71.0921C82.5604 70.9489 82.3757 70.7469 82.2349 70.4861C82.0941 70.2252 82.0237 69.917 82.0237 69.5615C82.0237 69.1967 82.0941 68.8851 82.2349 68.6265C82.3757 68.3679 82.5604 68.1706 82.789 68.0344C83.0198 67.8982 83.268 67.83 83.5335 67.83C83.7205 67.83 83.8878 67.8589 84.0356 67.9166C84.1857 67.972 84.3161 68.0494 84.4269 68.1486C84.5377 68.2479 84.6289 68.361 84.7005 68.488C84.7743 68.6127 84.8286 68.7442 84.8632 68.8828L84.3092 68.9312C84.2514 68.7396 84.1545 68.5884 84.0183 68.4776C83.8844 68.3645 83.7205 68.3079 83.5266 68.3079C83.3626 68.3079 83.208 68.3552 83.0625 68.4499C82.9194 68.5422 82.8028 68.6819 82.7128 68.8689C82.6227 69.0536 82.5777 69.2845 82.5777 69.5615C82.5777 69.8177 82.6181 70.0405 82.6989 70.2298C82.782 70.4168 82.8952 70.5623 83.0383 70.6661C83.1814 70.77 83.3442 70.822 83.5266 70.822C83.7828 70.822 83.9767 70.7596 84.1083 70.635C84.2422 70.508 84.3092 70.3326 84.3092 70.1086H84.8632C84.8632 70.3395 84.809 70.5449 84.7005 70.725C84.592 70.9051 84.4373 71.0471 84.2364 71.1509C84.0379 71.2548 83.8036 71.3068 83.5335 71.3068Z" fill="white"/>
<path d="M87.9911 71.2237L87.9218 70.4965V69.0767C87.9218 68.7789 87.8583 68.5653 87.7313 68.4361C87.6044 68.3045 87.4139 68.2387 87.16 68.2387C87.0168 68.2387 86.8864 68.2594 86.7687 68.301C86.6532 68.3426 86.5609 68.4072 86.4916 68.4949C86.4247 68.5803 86.3912 68.6912 86.3912 68.8274H85.7887C85.7887 68.5873 85.8475 68.3945 85.9653 68.2491C86.083 68.1013 86.2446 67.9951 86.4501 67.9305C86.6579 67.8635 86.8945 67.83 87.16 67.83C87.4139 67.83 87.639 67.8728 87.8352 67.9582C88.0315 68.0436 88.185 68.1798 88.2958 68.3668C88.4066 68.5515 88.462 68.7927 88.462 69.0905V71.2237H87.9911ZM86.8622 71.3068C86.5897 71.3068 86.3647 71.2583 86.1869 71.1613C86.0091 71.0644 85.8764 70.9386 85.7887 70.7839C85.701 70.6292 85.6571 70.4664 85.6571 70.2956C85.6571 70.0717 85.7125 69.8893 85.8233 69.7485C85.9364 69.6077 86.0899 69.5049 86.2839 69.4403C86.4778 69.3733 86.6959 69.3399 86.9383 69.3399C87.1115 69.3399 87.2846 69.3572 87.4578 69.3918C87.6332 69.4264 87.8041 69.4738 87.9703 69.5338V69.8731C87.8318 69.8177 87.6748 69.7739 87.4993 69.7416C87.3262 69.7092 87.1669 69.6931 87.0215 69.6931C86.7998 69.6931 86.6128 69.7392 86.4605 69.8316C86.3081 69.9216 86.2319 70.0763 86.2319 70.2956C86.2319 70.4572 86.2896 70.5957 86.4051 70.7112C86.5228 70.8266 86.7098 70.8843 86.966 70.8843C87.1461 70.8843 87.3077 70.8427 87.4509 70.7596C87.5963 70.6742 87.7106 70.568 87.7937 70.4411C87.8791 70.3141 87.9218 70.1871 87.9218 70.0601H88.0534C88.0534 70.2818 88.0049 70.4872 87.908 70.6765C87.8133 70.8658 87.6771 71.0182 87.4993 71.1336C87.3216 71.2491 87.1092 71.3068 86.8622 71.3068Z" fill="white"/>
<rect y="0.378662" width="143" height="90.2427" rx="0.432859" stroke="#FBFBFD" stroke-width="6.92575" mask="url(#path-1-inside-1_26330_59765)"/>
</svg>
