<svg width="153" height="87" viewBox="0 0 153 87" fill="none" xmlns="http://www.w3.org/2000/svg">
<g clip-path="url(#clip0_26330_59606)">
<path d="M17.9795 85.0888V61.4151H14.3273V70.2697C14.3273 70.4011 14.2485 70.5062 14.1171 70.5587C13.9857 70.6113 13.8544 70.5587 13.7755 70.4799C12.5406 69.0348 10.6226 68.194 8.4943 68.194C4.0013 68.194 0.480469 71.9776 0.480469 76.8384C0.480469 79.2032 1.29499 81.4103 2.79266 83.013C4.29032 84.6158 6.31349 85.4829 8.52057 85.4829C10.5963 85.4829 12.5143 84.6158 13.8018 83.1181C13.8806 83.013 14.0383 82.9868 14.1434 83.013C14.2748 83.0656 14.3536 83.1707 14.3536 83.3021V85.0625H17.9795V85.0888ZM9.33509 82.1722C6.44486 82.1722 4.15895 79.8338 4.15895 76.8384C4.15895 73.8431 6.44486 71.5046 9.33509 71.5046C12.2253 71.5046 14.5112 73.8431 14.5112 76.8384C14.5112 79.8338 12.2253 82.1722 9.33509 82.1722ZM37.4492 85.0888V68.5881H33.8495V70.2434C33.8495 70.3748 33.7707 70.4799 33.6393 70.5325C33.508 70.585 33.3766 70.5325 33.2978 70.4274C32.0628 68.956 30.1973 68.1677 28.0165 68.1677C23.5235 68.1677 19.9764 71.9776 19.9764 76.8122C19.9764 81.6467 23.4972 85.4566 28.0165 85.4566C30.0922 85.4566 32.0366 84.5895 33.2978 83.0656C33.3766 82.9605 33.5342 82.9342 33.6393 82.9605C33.7707 83.013 33.8495 83.1181 33.8495 83.2495V85.0362H37.4492V85.0888ZM28.831 82.1722C25.9408 82.1722 23.6549 79.8338 23.6549 76.8384C23.6549 73.8431 25.9408 71.5046 28.831 71.5046C31.7213 71.5046 34.0072 73.8431 34.0072 76.8384C34.0072 79.8338 31.7213 82.1722 28.831 82.1722ZM68.3221 85.0888V68.5881H64.7225V70.2434C64.7225 70.3748 64.6436 70.4799 64.5123 70.5325C64.3809 70.585 64.2495 70.5325 64.1707 70.4274C62.9358 68.956 61.0703 68.1677 58.8895 68.1677C54.3965 68.1677 50.8493 71.9776 50.8493 76.8122C50.8493 81.6467 54.3702 85.4566 58.8895 85.4566C60.9652 85.4566 62.9095 84.5895 64.1707 83.0656C64.2495 82.9605 64.4072 82.9342 64.5123 82.9605C64.6436 83.013 64.7225 83.1181 64.7225 83.2495V85.0362H68.3221V85.0888ZM59.704 82.1722C56.8137 82.1722 54.5278 79.8338 54.5278 76.8384C54.5278 73.8431 56.8137 71.5046 59.704 71.5046C62.5942 71.5046 64.8801 73.8431 64.8801 76.8384C64.8801 79.8338 62.5942 82.1722 59.704 82.1722ZM74.9434 83.1181C74.9697 83.1181 75.0222 83.0919 75.0485 83.0919C75.1273 83.0919 75.2324 83.1444 75.285 83.197C76.5199 84.6421 78.4379 85.4829 80.5662 85.4829C85.0592 85.4829 88.6063 81.673 88.6063 76.8384C88.6063 74.4737 87.7918 72.2666 86.2941 70.6638C84.7965 69.0611 82.7733 68.194 80.5662 68.194C78.4905 68.194 76.5724 69.0611 75.285 70.5587C75.2061 70.6638 75.0748 70.6901 74.9434 70.6638C74.812 70.6113 74.7332 70.5062 74.7332 70.3748V61.4413H71.081V85.115H74.7332V83.4597C74.7332 83.2758 74.812 83.1707 74.9434 83.1181ZM74.5755 76.8384C74.5755 73.8431 76.8615 71.5046 79.7517 71.5046C82.6419 71.5046 84.9278 73.8431 84.9278 76.8384C84.9278 79.8338 82.6419 82.1722 79.7517 82.1722C76.8352 82.1722 74.5755 79.8338 74.5755 76.8384ZM94.2554 77.8369V85.0888H90.6032V68.5881H94.2029V70.6113C94.2029 70.7427 94.308 70.874 94.4393 70.9003C94.5707 70.9266 94.7283 70.874 94.7809 70.7689C95.7005 69.2187 97.4609 68.2465 99.3264 68.2465C99.5629 68.2465 99.8257 68.2728 99.9308 68.2991V72.0301C99.7206 71.9776 99.379 71.9513 99.0374 71.9513C96.0946 71.9776 94.2554 74.2109 94.2554 77.8369ZM105.921 68.5881V85.0625H102.243V68.5881H105.921ZM106.263 63.6747C106.263 64.9096 105.265 65.9081 104.03 65.9081C102.795 65.9081 101.796 64.9096 101.796 63.6747C101.796 62.4398 102.795 61.4413 104.03 61.4413C105.265 61.4413 106.263 62.4398 106.263 63.6747ZM123.499 70.7952L121.187 72.976C119.873 72.0039 118.507 71.5309 117.062 71.5309C114.014 71.5309 111.728 73.8168 111.728 76.8384C111.728 79.8601 114.014 82.146 117.062 82.146C118.402 82.146 119.768 81.673 121.266 80.7009L123.342 82.8817C120.346 85.0888 118.744 85.4829 116.694 85.4829C114.224 85.4829 111.991 84.6158 110.441 83.0393C108.89 81.4628 108.023 79.282 108.023 76.8384C108.023 71.8199 111.702 68.194 116.747 68.194C118.349 68.194 120.819 68.4567 123.499 70.7952ZM129.07 78.4149C129.017 78.4675 128.964 78.5463 128.964 78.6514V85.0625H125.312V61.3888H128.964V74.3423C128.964 74.4737 129.043 74.5788 129.148 74.6313C129.28 74.6839 129.411 74.6576 129.49 74.5525L135.454 68.5618H139.895L132.958 75.4984C132.853 75.6035 132.827 75.7874 132.932 75.9188L140.473 85.0362H135.98L130.147 77.8106C130.094 77.7318 130.015 77.7055 129.91 77.7055H129.884C129.805 77.7055 129.726 77.7318 129.674 77.7843L129.07 78.4149ZM140.131 81.4103L143.074 79.8601C143.705 81.4103 145.018 82.3562 146.49 82.3562C147.593 82.3562 148.881 81.8569 148.881 80.4644C148.881 79.5185 148.303 78.9667 146.858 78.52L144.834 77.8632C142.023 76.9698 140.657 75.4196 140.657 73.1337C140.657 70.2434 143.022 68.1414 146.306 68.1414C148.881 68.1414 151.14 69.5077 152.218 71.7411L149.301 73.3176C148.618 71.925 147.541 71.1368 146.332 71.1368C145.071 71.1368 144.178 71.8199 144.178 72.8184C144.178 73.6854 144.834 74.316 146.148 74.7627L148.145 75.4196C151.035 76.3655 152.454 77.9157 152.454 80.1754C152.454 83.6174 149.433 85.4303 146.437 85.4303C143.521 85.4829 141.13 83.9327 140.131 81.4103ZM42.2575 79.5448V71.8725C42.2575 71.6886 42.1261 71.5572 41.9422 71.5572H39.3935V68.5881H41.9422C42.1261 68.5881 42.2575 68.4567 42.2575 68.2728V63.4908H45.8834V68.2728C45.8834 68.4567 46.0148 68.5881 46.1987 68.5881H49.7458V71.5572H46.1987C46.0148 71.5572 45.8834 71.6886 45.8834 71.8725V78.6514C45.8834 81.8307 47.0132 82.0934 48.4846 82.0934C49.0101 82.0934 49.8246 82.0409 50.3239 81.962V85.115C49.7458 85.1939 48.6948 85.299 47.565 85.299C46.0936 85.3252 42.2575 85.3252 42.2575 79.5448ZM94.9123 15.9595L75.101 27.1263L52.8988 14.6194V13.2794L75.101 0.798828L91.9432 10.2841V11.3351L90.5769 12.1233L75.101 3.40004L56.3145 13.9626L75.101 24.5251L96.1735 12.6751L97.3033 13.3057V21.845L75.101 34.3256L55.2635 23.1851V27.7569L75.101 38.9237L96.3048 26.9949L97.3033 27.5467V36.2174L75.101 48.7243L52.8988 36.2437V34.7723L53.8972 34.2205L75.0748 46.1493L94.9123 34.9825V30.3844L75.101 41.5249L52.8988 29.0444V20.3736L53.8972 19.8219L75.101 31.7507L94.9385 20.6101L94.9123 15.9595Z" fill="white"/>
</g>
<defs>
<clipPath id="clip0_26330_59606">
<rect width="153" height="86" fill="white" transform="translate(0 0.5)"/>
</clipPath>
</defs>
</svg>
