<svg width="187" height="54" viewBox="0 0 187 54" fill="none" xmlns="http://www.w3.org/2000/svg">
<path d="M64.4482 30.1388C62.8649 29.2639 62.0316 28.5556 62.0316 27.5556C62.0316 26.264 63.1566 25.4724 64.9481 25.4724C67.0314 25.4724 68.8646 26.3474 68.8646 26.3474L70.3229 21.8893C70.3229 21.8893 68.9896 20.8477 65.0315 20.8477C59.5317 20.8477 55.6986 24.0142 55.6986 28.4306C55.6986 30.9305 57.4902 32.847 59.8651 34.222C61.7816 35.3052 62.4483 36.0969 62.4483 37.2218C62.4483 38.4301 61.49 39.3884 59.6984 39.3884C57.0319 39.3884 54.532 38.0134 54.532 38.0134L52.9904 42.4715C52.9904 42.4715 55.3236 44.0131 59.1984 44.0131C64.8648 44.0131 68.9063 41.2216 68.9063 36.2219C68.9896 33.472 66.9064 31.5554 64.4482 30.1388Z" fill="white"/>
<path d="M87.0303 20.7642C84.2388 20.7642 82.0722 22.0974 80.364 24.0973L80.2806 24.0557L82.6972 11.3896H76.3642L70.2395 43.5963H76.5308L78.6141 32.5969C79.4474 28.4304 81.5723 25.8889 83.5721 25.8889C84.9887 25.8889 85.5304 26.8472 85.5304 28.2221C85.5304 29.0971 85.4471 30.1387 85.2387 31.0136L82.8639 43.638H89.1552L91.6134 30.6387C91.9051 29.2637 92.0717 27.6388 92.0717 26.5139C92.155 22.8891 90.3218 20.7642 87.0303 20.7642Z" fill="white"/>
<path d="M106.405 20.7646C98.8216 20.7646 93.7802 27.5976 93.7802 35.2222C93.7802 40.097 96.78 44.0551 102.446 44.0551C109.904 44.0551 114.904 37.3888 114.904 29.5975C114.946 25.0561 112.321 20.7646 106.405 20.7646ZM103.321 39.1804C101.155 39.1804 100.28 37.3471 100.28 35.0556C100.28 31.4308 102.155 25.5561 105.571 25.5561C107.821 25.5561 108.529 27.4726 108.529 29.3475C108.529 33.264 106.654 39.1804 103.321 39.1804Z" fill="white"/>
<path d="M131.07 20.7646C126.82 20.7646 124.404 24.5145 124.404 24.5145H124.32L124.695 21.1396H119.112C118.821 23.4312 118.321 26.8893 117.821 29.5142L113.446 52.513H119.737L121.487 43.1802H121.612C121.612 43.1802 122.904 44.0135 125.32 44.0135C132.737 44.0135 137.57 36.4305 137.57 28.7642C137.57 24.5561 135.695 20.7646 131.07 20.7646ZM125.07 39.3054C123.445 39.3054 122.487 38.3887 122.487 38.3887L123.529 32.514C124.279 28.5976 126.32 25.9727 128.487 25.9727C130.403 25.9727 130.987 27.7643 130.987 29.4309C130.987 33.4723 128.57 39.3054 125.07 39.3054Z" fill="white"/>
<path d="M146.569 11.7231C144.569 11.7231 142.944 13.3064 142.944 15.3896C142.944 17.2645 144.111 18.5561 145.902 18.5561H145.986C147.944 18.5561 149.652 17.2229 149.694 14.8896C149.736 13.0147 148.486 11.7231 146.569 11.7231Z" fill="white"/>
<path d="M137.736 43.5963H144.069L148.36 21.2642H141.985L137.736 43.5963Z" fill="white"/>
<path d="M164.359 21.2226H159.985L160.193 20.181C160.568 18.0145 161.818 16.0979 163.943 16.0979C165.068 16.0979 165.943 16.4312 165.943 16.4312L167.193 11.5148C167.193 11.5148 166.109 10.9731 163.776 10.9731C161.526 10.9731 159.318 11.5981 157.61 13.0564C155.443 14.8896 154.443 17.5145 153.943 20.181L153.777 21.2226H150.86L149.943 25.9724H152.86L149.527 43.5965H155.818L159.151 25.9724H163.484L164.359 21.2226Z" fill="white"/>
<path d="M179.525 21.2642C179.525 21.2642 175.567 31.1803 173.817 36.5967H173.734C173.609 34.8468 172.192 21.2642 172.192 21.2642H165.568L169.359 41.7631C169.443 42.2214 169.401 42.5131 169.234 42.8047C168.484 44.2213 167.276 45.5963 165.818 46.5962C164.651 47.4712 163.318 48.0128 162.276 48.3878L164.026 53.7208C165.318 53.4292 167.943 52.3876 170.192 50.3043C173.067 47.5961 175.734 43.4714 178.442 37.805L186.15 21.2642H179.525Z" fill="white"/>
<path d="M31.2836 6.76539C31.2836 6.76539 30.7003 6.93204 29.742 7.2237C29.5753 6.68206 29.3254 6.05709 28.992 5.39046C27.9088 3.30723 26.2839 2.18229 24.3673 2.18229C24.2423 2.18229 24.1173 2.18229 23.9506 2.22395C23.909 2.14062 23.8256 2.09896 23.784 2.01563C22.9507 1.09901 21.8674 0.682364 20.5758 0.724028C18.0759 0.807357 15.5761 2.59893 13.5762 5.8071C12.1596 8.05699 11.0763 10.8902 10.7847 13.0984C7.9098 13.9733 5.9099 14.5983 5.86824 14.64C4.40998 15.0983 4.36832 15.14 4.20166 16.5149C4.07667 17.5565 0.24353 46.8883 0.24353 46.8883L31.7419 52.3464V6.72372C31.4919 6.72372 31.3669 6.76539 31.2836 6.76539ZM23.9923 9.01527C22.3257 9.51525 20.4925 10.0985 18.7009 10.6402C19.2009 8.68195 20.2008 6.72372 21.3674 5.43212C21.8258 4.97381 22.4507 4.43217 23.159 4.09886C23.8673 5.59878 24.034 7.64034 23.9923 9.01527ZM20.5758 2.43227C21.1591 2.43227 21.6591 2.55727 22.0757 2.80726C21.4091 3.14057 20.7425 3.68221 20.1175 4.30718C18.5343 6.01542 17.326 8.68195 16.826 11.2235C15.3261 11.6818 13.8262 12.1401 12.4512 12.5568C13.3679 8.55696 16.7427 2.5156 20.5758 2.43227ZM15.7427 25.3478C15.9094 28.0143 22.9507 28.5976 23.3673 34.889C23.659 39.847 20.7425 43.2219 16.5344 43.4718C11.4513 43.8052 8.65976 40.8053 8.65976 40.8053L9.74304 36.2222C9.74304 36.2222 12.5346 38.3471 14.7844 38.1804C16.2427 38.0971 16.7843 36.8888 16.7427 36.0556C16.5344 32.5557 10.7847 32.7641 10.4097 27.0144C10.0764 22.1813 13.2429 17.3065 20.2425 16.8482C22.9507 16.6815 24.3256 17.3482 24.3256 17.3482L22.7424 23.3479C22.7424 23.3479 20.9508 22.5146 18.8259 22.6812C15.7427 22.8896 15.7011 24.8478 15.7427 25.3478ZM25.6589 8.5153C25.6589 7.26536 25.4922 5.47379 24.9089 3.97386C26.8255 4.34884 27.7421 6.47373 28.1588 7.76533C27.4088 7.97366 26.5755 8.22364 25.6589 8.5153Z" fill="white"/>
<path d="M32.6999 52.2635L45.7825 49.0136C45.7825 49.0136 40.1578 10.9739 40.1161 10.7239C40.0745 10.474 39.8662 10.3073 39.6578 10.3073C39.4495 10.3073 35.783 10.224 35.783 10.224C35.783 10.224 33.5332 8.05741 32.6999 7.22412V52.2635Z" fill="white"/>
</svg>
