<svg width="111" height="117" viewBox="0 0 111 117" fill="none" xmlns="http://www.w3.org/2000/svg">
<g clip-path="url(#clip0_26330_59744)">
<path d="M98.2676 1.45312H12.9324C12.867 27.8726 12.9977 81.8569 12.9977 86.4617C12.9977 88.6832 13.8471 91.8612 17.3755 94.1065C31.0318 102.797 46.4523 111.618 51.0914 113.97C54.934 115.919 59.1284 114.754 60.9579 113.578C70.0839 108.264 89.1204 97.2344 92.7136 94.6293C97.5489 91.1237 98.0933 89.1406 98.2676 87.8338V1.45312Z" stroke="white" stroke-width="1.30682"/>
<path d="M47.7043 10.207H45.7656V20.3312H47.7043V10.207Z" fill="white"/>
<path d="M53.9499 17.3162C53.9499 18.8927 52.4572 19.018 52.0392 19.018C50.9924 19.018 50.7188 18.0957 50.7188 17.5404V13.6543H49.2109V17.5317C49.2109 18.5098 49.5189 19.3171 50.0917 19.8541C50.6558 20.3519 51.3882 20.616 52.1405 20.5905C52.7819 20.5745 53.4074 20.3854 53.9499 20.0432V20.332H55.6732V13.6543H53.9499V17.3162Z" fill="white"/>
<path d="M59.336 11.2842H57.3974V13.6537H56.3203V14.9461H57.3974V20.3313H59.336V14.9461H60.6285V13.6537H59.336V11.2842Z" fill="white"/>
<path d="M66.21 18.4744C65.8023 18.8071 65.2909 18.985 64.7643 18.9763C63.5365 18.9763 62.6358 18.1338 62.6358 16.9769C62.6358 15.8201 63.4974 15.0143 64.7643 15.0143C65.2925 15.0048 65.8071 15.1795 66.2203 15.5074L66.4876 15.7228L67.6763 14.6114L67.3788 14.3617C66.6408 13.753 65.7097 13.4251 64.7532 13.4379C62.5496 13.4379 60.9492 14.9266 60.9492 16.9706C60.9492 19.0145 62.5887 20.5463 64.7532 20.5463C65.7145 20.5615 66.6496 20.2304 67.3875 19.6137L67.674 19.3616L66.4677 18.2502L66.2092 18.4744H66.21Z" fill="white"/>
<path d="M74.0098 14.2822C73.4354 13.7852 72.6951 13.5227 71.9355 13.5475C71.2829 13.5395 70.6439 13.7302 70.1022 14.0948V10.207H68.3789V20.3312H70.1022V16.8201C70.1022 15.2436 71.4872 15.116 71.9052 15.116C72.952 15.116 73.1179 16.0398 73.1179 16.5959V20.3312H74.8412V16.6047C74.8412 15.6266 74.5915 14.8208 74.0098 14.2822Z" fill="white"/>
<path d="M64.6913 18.1878C65.3945 18.1878 65.9646 17.6535 65.9646 16.9943C65.9646 16.3351 65.3945 15.8008 64.6913 15.8008C63.988 15.8008 63.418 16.3351 63.418 16.9943C63.418 17.6535 63.988 18.1878 64.6913 18.1878Z" fill="white"/>
<path d="M43.6376 17.9808C42.953 18.6286 42.0427 18.9861 41.0997 18.9757C39.1355 18.9757 37.7074 17.5325 37.7074 15.5507C37.7074 13.5689 39.1355 12.1169 41.0997 12.1169C42.0372 12.1121 42.9419 12.4656 43.6288 13.1038L43.8961 13.3559L45.0744 12.2533L44.8159 12.0012C43.8131 11.0526 42.4799 10.5325 41.0997 10.5492C38.2069 10.5492 36.0312 12.7033 36.0312 15.5595C36.0312 18.4156 38.2157 20.5466 41.0997 20.5466C42.4847 20.5625 43.8219 20.0376 44.8263 19.0842L45.0848 18.8345L43.9152 17.7144L43.6376 17.9816V17.9808Z" fill="white"/>
<path fill-rule="evenodd" clip-rule="evenodd" d="M9.19141 58.168H101.583V80.2532H9.19141V58.168ZM21.6759 69.3136C21.6759 67.2411 21.717 65.5044 21.7672 65.4543C21.8175 65.4041 22.479 65.3795 23.2373 65.3998L24.6163 65.4366V65.8287V66.2207L23.6688 66.2591L22.7214 66.2976V67.5333V68.769H23.5141C24.3019 68.769 24.3067 68.7712 24.2655 69.1284C24.2265 69.4685 24.1841 69.4898 23.4728 69.527L22.7214 69.5662V71.3238V73.0815H22.1987H21.6759V69.3136ZM25.3341 72.9835C25.332 72.7483 26.7971 65.9303 26.9066 65.6653C27.0001 65.4395 27.1345 65.3713 27.4861 65.3713C27.8522 65.3713 27.958 65.43 28.0154 65.6653C28.0548 65.827 28.4285 67.5648 28.8457 69.5268L29.6043 73.0944L29.0757 73.0552C28.875 73.0404 28.7497 73.0406 28.6605 72.984C28.494 72.8782 28.4534 72.5743 28.2831 71.6051L28.1958 71.1086L27.4516 71.1477L26.7072 71.1866L26.518 72.1341L26.3287 73.0815H25.8319C25.5586 73.0815 25.3346 73.0375 25.3341 72.9835ZM30.915 66.1466C31.0371 65.9399 31.3163 65.6823 31.5358 65.574C32.4714 65.1123 33.6574 65.4368 34.083 66.271C34.384 66.8611 34.4372 67.4613 34.1887 67.464C34.0989 67.4649 33.9014 67.499 33.7498 67.5397C33.5205 67.6012 33.4598 67.5419 33.3888 67.1871C33.2687 66.5864 32.9525 66.286 32.4399 66.286C32.123 66.286 31.949 66.3728 31.7953 66.6074C31.4255 67.1719 31.647 67.6084 32.8645 68.7137C34.1248 69.858 34.483 70.4404 34.4822 71.3448C34.4813 72.5506 33.6008 73.3238 32.4139 73.1612C31.6475 73.0562 31.2809 72.8069 30.9561 72.17C30.5941 71.4607 30.6066 70.9135 30.987 70.8116C31.506 70.6725 31.5943 70.7203 31.682 71.1878C31.9469 72.5998 33.4347 72.7292 33.439 71.3407C33.4406 70.8214 33.3805 70.7368 32.2157 69.6184C31.542 68.9716 30.9238 68.3138 30.8418 68.1569C30.6172 67.7262 30.6589 66.5801 30.915 66.1466ZM35.3975 66.286V65.825V65.364L37.1944 65.4003L38.9913 65.4366L39.0322 65.8613L39.0732 66.286H38.4114H37.7498V69.6838V73.0815H37.2271H36.7044V69.6838V66.286H36.0509H35.3975ZM40.2328 69.3136C40.2328 67.2411 40.2738 65.5044 40.324 65.4543C40.3743 65.4041 41.0358 65.3795 41.7941 65.3998L43.1731 65.4366L43.214 65.8613L43.255 66.286H42.3319H41.4089V67.5275V68.769H42.1276C42.8391 68.769 42.8464 68.7729 42.8464 69.1611C42.8464 69.5492 42.8391 69.5531 42.1276 69.5531H41.4089V70.9253V72.2974H42.3237H43.2384V72.6895V73.0815H41.7356H40.2328V69.3136ZM44.4146 67.1121C44.4146 66.3912 44.6363 65.994 45.2466 65.6219C46.0959 65.104 47.3864 65.4343 47.8339 66.284C48.1092 66.8067 48.1516 67.4613 47.9103 67.464C47.8205 67.4649 47.6147 67.5013 47.4529 67.5445C47.2138 67.6087 47.1589 67.5701 47.1589 67.3382C47.1589 67.0176 46.9319 66.5312 46.7146 66.386C46.6355 66.3332 46.3811 66.2892 46.1491 66.288C45.844 66.2866 45.6693 66.3749 45.5169 66.6074C45.1457 67.1738 45.3675 67.6024 46.6272 68.7537C47.9102 69.9263 48.2046 70.4085 48.2038 71.337C48.2029 72.5634 47.3396 73.3263 46.1388 73.1616C45.3891 73.0589 44.8849 72.6836 44.6255 72.0351C44.3256 71.2858 44.3513 70.9074 44.7086 70.8116C45.2276 70.6725 45.3159 70.7203 45.4036 71.1878C45.5765 72.1095 46.222 72.5282 46.9062 72.1622C47.1023 72.0571 47.1589 71.886 47.1589 71.3979C47.1589 70.7985 47.1206 70.7316 46.3421 69.9725C45.893 69.5344 45.3712 69.0566 45.1826 68.9108C44.7043 68.5406 44.4146 67.8621 44.4146 67.1121ZM49.1191 65.9158C49.1191 65.7121 49.1599 65.5047 49.2098 65.4548C49.2597 65.4049 50.0684 65.3804 51.0067 65.4003L52.7129 65.4366L52.7538 65.8613L52.7948 66.286H52.133H51.4714V69.6838V73.0815H50.9487H50.4259V69.6838V66.286H49.7725C49.1421 66.286 49.1191 66.273 49.1191 65.9158ZM56.5477 67.4945C56.7108 66.2847 56.9127 65.8872 57.5218 65.5762C57.8083 65.43 58.1776 65.3769 58.6933 65.408C59.9063 65.4813 60.4558 66.0451 60.5205 67.2826L60.5538 67.9196L60.0797 67.9592L59.6056 67.9988L59.516 67.2822C59.4668 66.8881 59.3463 66.4992 59.2484 66.4179C59.1504 66.3366 58.8174 66.2884 58.5082 66.3108C57.6766 66.3709 57.6176 66.5686 57.6154 69.3068C57.6136 71.4394 57.6334 71.6341 57.8843 71.9531C58.0763 72.1972 58.276 72.2969 58.5704 72.2955C59.3094 72.2918 59.5737 71.8988 59.5737 70.8032V70.0758H59.1163C58.6952 70.0758 58.6589 70.0447 58.6589 69.6838V69.2917H59.639H60.6191V71.1952V73.0989L60.265 73.0575C60.0116 73.0279 59.8889 72.9231 59.8342 72.6895C59.7718 72.4231 59.7419 72.4038 59.6723 72.5847C59.5205 72.9798 58.8077 73.2502 58.1542 73.1606C57.4777 73.0679 57.0158 72.7036 56.7336 72.0404C56.4722 71.4262 56.3665 68.8389 56.5477 67.4945ZM62.1873 69.3136C62.1873 67.2411 62.2265 65.5063 62.2745 65.4584C62.396 65.3368 63.2743 65.3542 64.2691 65.498C65.4459 65.6681 65.8719 66.0966 65.9509 67.1898C66.0239 68.1973 65.918 68.5973 65.4669 69.0187L65.1023 69.3593L65.6048 71.1223C65.8812 72.0921 66.1074 72.9295 66.1075 72.9835C66.1076 73.0375 65.8765 73.0815 65.5938 73.0815C65.2165 73.0815 65.0624 73.0207 65.0142 72.8528C64.978 72.7271 64.7579 71.9331 64.5253 71.0886C64.1125 69.5903 64.0933 69.5531 63.7329 69.5531H63.3634V71.3173V73.0815H62.7754H62.1873V69.3136ZM67.4799 69.2917C67.4799 66.5508 67.6059 66.0797 68.4666 65.6028C69.0132 65.3002 70.3204 65.3449 70.8382 65.6841C71.5154 66.1279 71.6617 66.7681 71.6617 69.2878C71.6617 71.823 71.5396 72.3148 70.7696 72.877C70.2459 73.2596 68.8859 73.2552 68.3684 72.8694C67.5578 72.2653 67.4799 71.9515 67.4799 69.2917ZM74.1478 72.7954C73.947 71.9424 72.9582 65.4906 73.019 65.4297C73.0579 65.3908 73.2672 65.3764 73.4838 65.3978L73.8778 65.4366L74.2668 68.1063C74.546 70.0237 74.6813 70.6682 74.7466 70.3933C74.7967 70.1827 75.0271 68.9929 75.2586 67.7492L75.6796 65.4878L76.0864 65.5276L76.4933 65.5673L76.9439 68.0176C77.1917 69.3653 77.4308 70.4679 77.4753 70.4679C77.5197 70.4679 77.694 69.4534 77.8627 68.2136C78.2367 65.4632 78.2754 65.3406 78.7512 65.3953C78.971 65.4205 79.1068 65.5128 79.1008 65.6326C79.0953 65.7405 78.833 67.4605 78.5178 69.4551L77.9447 73.0815H77.533H77.1214L76.8267 71.4807C76.6646 70.6003 76.4301 69.3799 76.3053 68.769C76.2009 68.2583 76.1533 67.9151 76.0911 67.9124C75.9976 67.9084 75.8713 68.6735 75.4702 70.7946L75.0501 73.0162L74.6345 73.0568C74.2915 73.0903 74.2066 73.0448 74.1478 72.7954ZM80.0907 65.9158C80.0907 65.7121 80.1299 65.5063 80.1779 65.4584C80.2257 65.4105 81.049 65.3713 82.0074 65.3713H83.7498V65.8287C83.7498 66.2836 83.7467 66.286 83.1617 66.286H82.5737V69.6838V73.0815H81.9856H81.3975V69.6838V66.286H80.7441C80.1137 66.286 80.0907 66.273 80.0907 65.9158ZM84.9259 69.3136C84.9259 67.2411 84.9679 65.5035 85.0192 65.4522C85.0706 65.4008 85.3206 65.3764 85.5746 65.3977L86.0367 65.4366L86.0733 67.1028L86.1099 68.769H87.0861H88.0623V67.0623V65.3555L88.5524 65.3961L89.0424 65.4366L89.077 69.2591L89.1117 73.0815H88.587H88.0623V71.3173V69.5531H87.0822H86.1021V71.3173V73.0815H85.514H84.9259V69.3136ZM63.3634 68.8025V67.5443V66.286H63.8862C64.6249 66.286 64.9316 66.6267 64.9316 67.4477C64.9316 68.2604 64.6571 68.6045 63.9188 68.7175L63.3634 68.8025ZM68.6154 69.4225C68.5807 67.2881 68.6059 66.8703 68.7862 66.5952C68.9692 66.3161 69.0804 66.2777 69.6079 66.3119C70.4928 66.3692 70.5466 66.5384 70.549 69.2677C70.5513 71.9856 70.4519 72.291 69.5631 72.2955C69.3433 72.2965 69.0493 72.214 68.9097 72.1121C68.6766 71.9418 68.6528 71.7245 68.6154 69.4225ZM26.903 70.1738C26.9026 69.9212 27.3049 67.6828 27.3904 67.4622C27.4163 67.3952 27.4341 67.3434 27.4534 67.3429C27.5035 67.3414 27.5636 67.684 27.8018 68.9977L28.0446 70.3372H27.4739C27.1046 70.3372 26.9031 70.2796 26.903 70.1738Z" fill="white"/>
<path d="M101.583 58.168H101.649V58.1026H101.583V58.168ZM9.19141 58.168V58.1026H9.12607V58.168H9.19141ZM101.583 80.2532V80.3185H101.649V80.2532H101.583ZM9.19141 80.2532H9.12607V80.3185H9.19141V80.2532ZM21.7672 65.4543L21.721 65.408L21.721 65.4081L21.7672 65.4543ZM23.2373 65.3998L23.2391 65.3345H23.2391L23.2373 65.3998ZM24.6163 65.4366H24.6816V65.373L24.618 65.3713L24.6163 65.4366ZM24.6163 66.2207L24.6189 66.286L24.6816 66.2835V66.2207H24.6163ZM23.6688 66.2591L23.6662 66.1938L23.6688 66.2591ZM22.7214 66.2976L22.7188 66.2323L22.6561 66.2348V66.2976H22.7214ZM22.7214 68.769H22.6561V68.8343H22.7214V68.769ZM24.2655 69.1284L24.2006 69.1209L24.2006 69.1209L24.2655 69.1284ZM23.4728 69.527L23.4762 69.5922L23.4728 69.527ZM22.7214 69.5662L22.718 69.5009L22.6561 69.5041V69.5662H22.7214ZM22.7214 73.0815V73.1468H22.7867V73.0815H22.7214ZM21.6759 73.0815H21.6106V73.1468H21.6759V73.0815ZM26.9066 65.6653L26.8462 65.6403L26.8462 65.6404L26.9066 65.6653ZM25.3341 72.9835L25.2688 72.9841V72.9841L25.3341 72.9835ZM28.0154 65.6653L28.0789 65.6499L28.0789 65.6498L28.0154 65.6653ZM28.8457 69.5268L28.7818 69.5404L28.7818 69.5404L28.8457 69.5268ZM29.6043 73.0944L29.5994 73.1596L29.6863 73.166L29.6682 73.0809L29.6043 73.0944ZM29.0757 73.0552L29.0805 72.9901L29.0805 72.9901L29.0757 73.0552ZM28.6605 72.984L28.6956 72.9288V72.9288L28.6605 72.984ZM28.2831 71.6051L28.3474 71.5938L28.3474 71.5938L28.2831 71.6051ZM28.1958 71.1086L28.2601 71.0973L28.2501 71.0403L28.1924 71.0434L28.1958 71.1086ZM27.4516 71.1477L27.455 71.2129H27.455L27.4516 71.1477ZM26.7072 71.1866L26.7038 71.1214L26.6531 71.124L26.6431 71.1738L26.7072 71.1866ZM26.518 72.1341L26.582 72.1469L26.518 72.1341ZM26.3287 73.0815V73.1468H26.3823L26.3928 73.0943L26.3287 73.0815ZM31.5358 65.574L31.5068 65.5154L31.5068 65.5154L31.5358 65.574ZM30.915 66.1466L30.9713 66.1799L30.9713 66.1798L30.915 66.1466ZM34.083 66.271L34.1412 66.2413L34.1412 66.2413L34.083 66.271ZM34.1887 67.464L34.1894 67.5294H34.1894L34.1887 67.464ZM33.7498 67.5397L33.7328 67.4766L33.7328 67.4766L33.7498 67.5397ZM33.3888 67.1871L33.3247 67.1999L33.3248 67.1999L33.3888 67.1871ZM31.7953 66.6074L31.7406 66.5716L31.7406 66.5716L31.7953 66.6074ZM32.8645 68.7137L32.9085 68.6654L32.9084 68.6654L32.8645 68.7137ZM34.4822 71.3448L34.4169 71.3447V71.3447L34.4822 71.3448ZM32.4139 73.1612L32.4051 73.226L32.4051 73.226L32.4139 73.1612ZM30.9561 72.17L31.0143 72.1403L31.0143 72.1403L30.9561 72.17ZM30.987 70.8116L30.9701 70.7485L30.987 70.8116ZM31.682 71.1878L31.6178 71.1998V71.1998L31.682 71.1878ZM33.439 71.3407L33.5043 71.3409V71.3409L33.439 71.3407ZM32.2157 69.6184L32.1704 69.6656V69.6656L32.2157 69.6184ZM30.8418 68.1569L30.7839 68.1871L30.7839 68.1871L30.8418 68.1569ZM35.3975 66.286H35.3322V66.3514H35.3975V66.286ZM35.3975 65.364L35.3989 65.2986L35.3322 65.2973V65.364H35.3975ZM37.1944 65.4003L37.1931 65.4656L37.1944 65.4003ZM38.9913 65.4366L39.0563 65.4304L39.0508 65.3725L38.9926 65.3713L38.9913 65.4366ZM39.0322 65.8613L38.9671 65.8676L38.9671 65.8676L39.0322 65.8613ZM39.0732 66.286V66.3514H39.1452L39.1383 66.2798L39.0732 66.286ZM37.7498 66.286V66.2207H37.6845V66.286H37.7498ZM37.7498 73.0815V73.1468H37.8151V73.0815H37.7498ZM36.7044 73.0815H36.639V73.1468H36.7044V73.0815ZM36.7044 66.286H36.7697V66.2207H36.7044V66.286ZM40.324 65.4543L40.2778 65.408L40.2778 65.4081L40.324 65.4543ZM41.7941 65.3998L41.7959 65.3345H41.7959L41.7941 65.3998ZM43.1731 65.4366L43.2381 65.4304L43.2326 65.3728L43.1749 65.3713L43.1731 65.4366ZM43.214 65.8613L43.149 65.8676L43.149 65.8676L43.214 65.8613ZM43.255 66.286V66.3514H43.327L43.3201 66.2798L43.255 66.286ZM41.4089 66.286V66.2207H41.3436V66.286H41.4089ZM41.4089 68.769H41.3436V68.8343H41.4089V68.769ZM41.4089 69.5531V69.4878H41.3436V69.5531H41.4089ZM41.4089 72.2974H41.3436V72.3628H41.4089V72.2974ZM43.2384 72.2974H43.3038V72.2321H43.2384V72.2974ZM43.2384 73.0815V73.1468H43.3038V73.0815H43.2384ZM40.2328 73.0815H40.1674V73.1468H40.2328V73.0815ZM45.2466 65.6219L45.2806 65.6777L45.2807 65.6777L45.2466 65.6219ZM47.8339 66.284L47.7761 66.3144L47.7761 66.3144L47.8339 66.284ZM47.9103 67.464L47.911 67.5294L47.9111 67.5293L47.9103 67.464ZM47.4529 67.5445L47.4361 67.4814L47.436 67.4814L47.4529 67.5445ZM46.7146 66.386L46.7509 66.3317L46.7509 66.3317L46.7146 66.386ZM46.1491 66.288L46.1495 66.2227H46.1494L46.1491 66.288ZM45.5169 66.6074L45.4622 66.5716L45.4622 66.5716L45.5169 66.6074ZM46.6272 68.7537L46.5831 68.8019V68.802L46.6272 68.7537ZM48.2038 71.337L48.1385 71.337V71.337L48.2038 71.337ZM46.1388 73.1616L46.1477 73.0969L46.1477 73.0969L46.1388 73.1616ZM44.6255 72.0351L44.6862 72.0109L44.6862 72.0109L44.6255 72.0351ZM44.7086 70.8116L44.6917 70.7485L44.6917 70.7485L44.7086 70.8116ZM45.4036 71.1878L45.4678 71.1757L45.4036 71.1878ZM46.9062 72.1622L46.937 72.2198L46.937 72.2198L46.9062 72.1622ZM46.3421 69.9725L46.2965 70.0192V70.0192L46.3421 69.9725ZM45.1826 68.9108L45.1426 68.9625L45.1426 68.9625L45.1826 68.9108ZM49.2098 65.4548L49.256 65.501V65.501L49.2098 65.4548ZM51.0067 65.4003L51.0081 65.335H51.0081L51.0067 65.4003ZM52.7129 65.4366L52.7779 65.4304L52.7723 65.3725L52.7143 65.3713L52.7129 65.4366ZM52.7538 65.8613L52.6887 65.8676L52.6887 65.8676L52.7538 65.8613ZM52.7948 66.286V66.3514H52.8668L52.8599 66.2798L52.7948 66.286ZM51.4714 66.286V66.2207H51.4061V66.286H51.4714ZM51.4714 73.0815V73.1468H51.5367V73.0815H51.4714ZM50.4259 73.0815H50.3606V73.1468H50.4259V73.0815ZM50.4259 66.286H50.4913V66.2207H50.4259V66.286ZM57.5218 65.5762L57.4921 65.518L57.4921 65.518L57.5218 65.5762ZM56.5477 67.4945L56.6125 67.5032L56.5477 67.4945ZM58.6933 65.408L58.6972 65.3428L58.6972 65.3428L58.6933 65.408ZM60.5205 67.2826L60.4552 67.286V67.286L60.5205 67.2826ZM60.5538 67.9196L60.5592 67.9847L60.6223 67.9794L60.619 67.9162L60.5538 67.9196ZM60.0797 67.9592L60.0742 67.8941H60.0742L60.0797 67.9592ZM59.6056 67.9988L59.5407 68.0069L59.5485 68.0691L59.611 68.0639L59.6056 67.9988ZM59.516 67.2822L59.5809 67.2741L59.5809 67.2741L59.516 67.2822ZM59.2484 66.4179L59.2901 66.3676L59.2901 66.3676L59.2484 66.4179ZM58.5082 66.3108L58.5035 66.2456L58.5082 66.3108ZM57.6154 69.3068L57.6807 69.3068V69.3068L57.6154 69.3068ZM57.8843 71.9531L57.9357 71.9127L57.9357 71.9127L57.8843 71.9531ZM58.5704 72.2955L58.5707 72.3608H58.5708L58.5704 72.2955ZM59.5737 70.0758H59.639V70.0105H59.5737V70.0758ZM58.6589 69.2917V69.2264H58.5936V69.2917H58.6589ZM60.6191 69.2917H60.6845V69.2264H60.6191V69.2917ZM60.6191 73.0989L60.6115 73.1638L60.6845 73.1723V73.0989H60.6191ZM60.265 73.0575L60.2726 72.9926L60.2725 72.9926L60.265 73.0575ZM59.8342 72.6895L59.8979 72.6746L59.8979 72.6745L59.8342 72.6895ZM59.6723 72.5847L59.6113 72.5612L59.6113 72.5612L59.6723 72.5847ZM58.1542 73.1606L58.1631 73.0958L58.1631 73.0958L58.1542 73.1606ZM56.7336 72.0404L56.6734 72.066V72.066L56.7336 72.0404ZM62.2745 65.4584L62.3206 65.5047L62.3207 65.5046L62.2745 65.4584ZM64.2691 65.498L64.2597 65.5627L64.2597 65.5627L64.2691 65.498ZM65.9509 67.1898L65.8858 67.1946V67.1946L65.9509 67.1898ZM65.4669 69.0187L65.5115 69.0665L65.5115 69.0665L65.4669 69.0187ZM65.1023 69.3593L65.0577 69.3116L65.0285 69.3388L65.0395 69.3772L65.1023 69.3593ZM65.6048 71.1223L65.6676 71.1044L65.6048 71.1223ZM66.1075 72.9835L66.1728 72.9833L66.1075 72.9835ZM65.0142 72.8528L65.077 72.8348L65.077 72.8347L65.0142 72.8528ZM64.5253 71.0886L64.5883 71.0713L64.5883 71.0713L64.5253 71.0886ZM63.3634 69.5531V69.4878H63.2981V69.5531H63.3634ZM63.3634 73.0815V73.1468H63.4288V73.0815H63.3634ZM62.1873 73.0815H62.122V73.1468H62.1873V73.0815ZM68.4666 65.6028L68.4349 65.5457L68.4349 65.5457L68.4666 65.6028ZM70.8382 65.6841L70.874 65.6295L70.874 65.6295L70.8382 65.6841ZM70.7696 72.877L70.731 72.8242L70.731 72.8242L70.7696 72.877ZM68.3684 72.8694L68.4075 72.817L68.4075 72.817L68.3684 72.8694ZM73.019 65.4297L72.9728 65.3835L72.9727 65.3835L73.019 65.4297ZM74.1478 72.7954L74.0842 72.8104V72.8104L74.1478 72.7954ZM73.4838 65.3978L73.4774 65.4628L73.4774 65.4628L73.4838 65.3978ZM73.8778 65.4366L73.9425 65.4272L73.9351 65.3766L73.8843 65.3716L73.8778 65.4366ZM74.2668 68.1063L74.3314 68.0969V68.0969L74.2668 68.1063ZM74.7466 70.3933L74.6831 70.3781V70.3781L74.7466 70.3933ZM75.2586 67.7492L75.3229 67.7611V67.7611L75.2586 67.7492ZM75.6796 65.4878L75.6859 65.4228L75.6263 65.417L75.6153 65.4759L75.6796 65.4878ZM76.0864 65.5276L76.08 65.5926L76.0864 65.5276ZM76.4933 65.5673L76.5576 65.5555L76.5487 65.5071L76.4997 65.5023L76.4933 65.5673ZM76.9439 68.0176L77.0082 68.0058V68.0058L76.9439 68.0176ZM77.8627 68.2136L77.9275 68.2224V68.2224L77.8627 68.2136ZM78.7512 65.3953L78.7438 65.4602L78.7438 65.4602L78.7512 65.3953ZM79.1008 65.6326L79.1661 65.636L79.1661 65.6359L79.1008 65.6326ZM78.5178 69.4551L78.5824 69.4653V69.4653L78.5178 69.4551ZM77.9447 73.0815V73.1468H78.0005L78.0092 73.0917L77.9447 73.0815ZM77.1214 73.0815L77.0571 73.0933L77.067 73.1468H77.1214V73.0815ZM76.8267 71.4807L76.7624 71.4925V71.4925L76.8267 71.4807ZM76.3053 68.769L76.3693 68.7559V68.7559L76.3053 68.769ZM76.0911 67.9124L76.0883 67.9777H76.0883L76.0911 67.9124ZM75.4702 70.7946L75.5344 70.8067L75.4702 70.7946ZM75.0501 73.0162L75.0564 73.0812L75.1052 73.0764L75.1143 73.0283L75.0501 73.0162ZM74.6345 73.0568L74.6408 73.1218L74.6409 73.1218L74.6345 73.0568ZM80.1779 65.4584L80.224 65.5047L80.2241 65.5046L80.1779 65.4584ZM83.7498 65.3713H83.8151V65.3059H83.7498V65.3713ZM82.5737 66.286V66.2207H82.5083V66.286H82.5737ZM82.5737 73.0815V73.1468H82.639V73.0815H82.5737ZM81.3975 73.0815H81.3322V73.1468H81.3975V73.0815ZM81.3975 66.286H81.4629V66.2207H81.3975V66.286ZM85.0192 65.4522L85.0655 65.4984V65.4984L85.0192 65.4522ZM85.5746 65.3977L85.5801 65.3326L85.5801 65.3326L85.5746 65.3977ZM86.0367 65.4366L86.1021 65.4352L86.1008 65.3764L86.0422 65.3715L86.0367 65.4366ZM86.0733 67.1028L86.1387 67.1014V67.1014L86.0733 67.1028ZM86.1099 68.769L86.0446 68.7704L86.046 68.8343H86.1099V68.769ZM88.0623 68.769V68.8343H88.1276V68.769H88.0623ZM88.0623 65.3555L88.0677 65.2904L87.997 65.2845V65.3555H88.0623ZM88.5524 65.3961L88.547 65.4612L88.547 65.4612L88.5524 65.3961ZM89.0424 65.4366L89.1078 65.436L89.1072 65.3764L89.0478 65.3715L89.0424 65.4366ZM89.077 69.2591L89.0117 69.2597L89.077 69.2591ZM89.1117 73.0815V73.1468H89.1776L89.177 73.0809L89.1117 73.0815ZM88.0623 73.0815H87.997V73.1468H88.0623V73.0815ZM88.0623 69.5531H88.1276V69.4878H88.0623V69.5531ZM86.1021 69.5531V69.4878H86.0367V69.5531H86.1021ZM86.1021 73.0815V73.1468H86.1674V73.0815H86.1021ZM84.9259 73.0815H84.8606V73.1468H84.9259V73.0815ZM63.3634 68.8025H63.2981V68.8786L63.3733 68.8671L63.3634 68.8025ZM63.3634 66.286V66.2207H63.2981V66.286H63.3634ZM63.9188 68.7175L63.9287 68.7821L63.9287 68.7821L63.9188 68.7175ZM68.7862 66.5952L68.8409 66.6311L68.8409 66.6311L68.7862 66.5952ZM68.6154 69.4225L68.6808 69.4215V69.4215L68.6154 69.4225ZM69.6079 66.3119L69.6037 66.3771L69.6037 66.3771L69.6079 66.3119ZM70.549 69.2677L70.4836 69.2677L70.549 69.2677ZM69.5631 72.2955L69.5634 72.3608H69.5634L69.5631 72.2955ZM68.9097 72.1121L68.8712 72.1649L68.8712 72.1649L68.9097 72.1121ZM27.3904 67.4622L27.4513 67.4858L27.4513 67.4858L27.3904 67.4622ZM26.903 70.1738L26.9683 70.1738V70.1737L26.903 70.1738ZM27.4534 67.3429L27.4554 67.4082L27.4534 67.3429ZM27.8018 68.9977L27.8661 68.986V68.986L27.8018 68.9977ZM28.0446 70.3372V70.4025H28.1228L28.1089 70.3255L28.0446 70.3372ZM101.583 58.1026H9.19141V58.2333H101.583V58.1026ZM101.649 80.2532V58.168H101.518V80.2532H101.649ZM9.19141 80.3185H101.583V80.1879H9.19141V80.3185ZM9.12607 58.168V80.2532H9.25675V58.168H9.12607ZM21.721 65.4081C21.7072 65.4218 21.7019 65.4389 21.7003 65.4439C21.6976 65.4523 21.6954 65.4616 21.6937 65.4708C21.6901 65.4895 21.6869 65.5138 21.6839 65.5427C21.6778 65.6007 21.672 65.682 21.6665 65.7835C21.6555 65.9867 21.6457 66.274 21.6374 66.624C21.6209 67.3241 21.6106 68.277 21.6106 69.3136H21.7413C21.7413 68.2777 21.7515 67.3259 21.7681 66.6271C21.7763 66.2776 21.7861 65.9918 21.797 65.7905C21.8024 65.6897 21.8081 65.611 21.8138 65.5563C21.8167 65.5288 21.8195 65.5087 21.822 65.4954C21.8233 65.4886 21.8243 65.4851 21.8247 65.4839C21.8262 65.4792 21.824 65.4898 21.8134 65.5005L21.721 65.4081ZM23.2391 65.3345C22.8589 65.3243 22.5025 65.3254 22.2343 65.3353C22.1004 65.3403 21.9875 65.3475 21.9042 65.3568C21.8627 65.3614 21.8272 65.3667 21.7995 65.3729C21.7857 65.376 21.7724 65.3796 21.7606 65.384C21.7507 65.3877 21.7343 65.3947 21.721 65.408L21.8133 65.5005C21.8063 65.5075 21.801 65.5084 21.8066 65.5063C21.8105 65.5049 21.8173 65.5028 21.8279 65.5005C21.8489 65.4958 21.8792 65.4911 21.9187 65.4867C21.9973 65.4779 22.1066 65.4708 22.2392 65.4659C22.5039 65.4561 22.8575 65.455 23.2356 65.4651L23.2391 65.3345ZM24.618 65.3713L23.2391 65.3345L23.2356 65.4651L24.6145 65.5019L24.618 65.3713ZM24.6816 65.8287V65.4366H24.5509V65.8287H24.6816ZM24.6816 66.2207V65.8287H24.5509V66.2207H24.6816ZM23.6715 66.3244L24.6189 66.286L24.6136 66.1554L23.6662 66.1938L23.6715 66.3244ZM22.724 66.3628L23.6715 66.3244L23.6662 66.1938L22.7188 66.2323L22.724 66.3628ZM22.7867 67.5333V66.2976H22.6561V67.5333H22.7867ZM22.7867 68.769V67.5333H22.6561V68.769H22.7867ZM23.5141 68.7037H22.7214V68.8343H23.5141V68.7037ZM24.3304 69.1359C24.3404 69.0499 24.3494 68.9732 24.341 68.9126C24.3365 68.8804 24.3269 68.8489 24.3074 68.8206C24.2876 68.792 24.2608 68.7711 24.2289 68.7558C24.1686 68.727 24.0835 68.7155 23.9731 68.7097C23.8604 68.7038 23.7104 68.7037 23.5141 68.7037V68.8343C23.7117 68.8343 23.8577 68.8345 23.9662 68.8402C24.077 68.846 24.1382 68.8573 24.1725 68.8737C24.1878 68.881 24.1953 68.8883 24.1998 68.8948C24.2045 68.9017 24.209 68.9122 24.2115 68.9305C24.2171 68.9708 24.2113 69.0283 24.2006 69.1209L24.3304 69.1359ZM23.4762 69.5922C23.6537 69.583 23.7919 69.5746 23.899 69.5617C24.0052 69.549 24.0878 69.5313 24.1506 69.4997C24.2175 69.4661 24.2594 69.4181 24.2857 69.3536C24.3102 69.2937 24.3208 69.2199 24.3304 69.1358L24.2006 69.1209C24.1907 69.2069 24.1814 69.2633 24.1647 69.3043C24.1499 69.3406 24.1295 69.3641 24.0919 69.3829C24.0503 69.4038 23.9866 69.4196 23.8835 69.432C23.7814 69.4442 23.6476 69.4524 23.4694 69.4617L23.4762 69.5922ZM22.7248 69.6314L23.4762 69.5922L23.4694 69.4617L22.718 69.5009L22.7248 69.6314ZM22.7867 71.3238V69.5662H22.6561V71.3238H22.7867ZM22.7867 73.0815V71.3238H22.6561V73.0815H22.7867ZM22.1987 73.1468H22.7214V73.0162H22.1987V73.1468ZM21.6759 73.1468H22.1987V73.0162H21.6759V73.1468ZM21.6106 69.3136V73.0815H21.7413V69.3136H21.6106ZM26.8462 65.6404C26.8373 65.662 26.824 65.7092 26.8076 65.7722C26.7907 65.8374 26.7693 65.9248 26.744 66.0311C26.6933 66.2437 26.627 66.533 26.5507 66.8732C26.3979 67.5536 26.2045 68.4382 26.0146 69.3219C25.8248 70.2055 25.6384 71.0883 25.4995 71.7649C25.4301 72.1032 25.3726 72.3902 25.3324 72.6001C25.3123 72.705 25.2966 72.791 25.2858 72.8546C25.2804 72.8863 25.2762 72.9129 25.2734 72.9337C25.2708 72.9529 25.2687 72.9713 25.2688 72.9841L25.3995 72.9829C25.3995 72.9831 25.3995 72.9825 25.3996 72.9808C25.3997 72.9791 25.3998 72.9769 25.4001 72.9741C25.4007 72.9684 25.4016 72.9609 25.4029 72.9514C25.4055 72.9326 25.4094 72.9075 25.4147 72.8764C25.4252 72.8141 25.4408 72.7292 25.4608 72.6247C25.5008 72.4156 25.5582 72.1293 25.6275 71.7912C25.7663 71.1151 25.9526 70.2327 26.1424 69.3493C26.3322 68.4659 26.5255 67.5817 26.6782 66.9018C26.7545 66.5619 26.8206 66.2732 26.8711 66.0613C26.8963 65.9554 26.9175 65.8689 26.9341 65.805C26.9513 65.7388 26.9623 65.7017 26.967 65.6903L26.8462 65.6404ZM27.4861 65.3059C27.3083 65.3059 27.1737 65.3227 27.07 65.3753C26.9622 65.43 26.8966 65.5186 26.8462 65.6403L26.967 65.6903C27.0101 65.5862 27.0584 65.5278 27.1291 65.4919C27.2039 65.4539 27.3122 65.4366 27.4861 65.4366V65.3059ZM28.0789 65.6498C28.0484 65.5248 28.0009 65.4299 27.8982 65.3729C27.8025 65.3197 27.6686 65.3059 27.4861 65.3059V65.4366C27.6697 65.4366 27.7718 65.4522 27.8348 65.4872C27.8909 65.5183 27.925 65.5705 27.952 65.6808L28.0789 65.6498ZM28.9096 69.5132C28.4926 67.5521 28.1186 65.8127 28.0789 65.6499L27.952 65.6808C27.991 65.8412 28.3644 67.5775 28.7818 69.5404L28.9096 69.5132ZM29.6682 73.0809L28.9096 69.5132L28.7818 69.5404L29.5404 73.108L29.6682 73.0809ZM29.0708 73.1204L29.5994 73.1596L29.6091 73.0293L29.0805 72.9901L29.0708 73.1204ZM28.6255 73.0391C28.6819 73.075 28.7466 73.0907 28.8178 73.1001C28.8878 73.1093 28.9734 73.1132 29.0709 73.1204L29.0805 72.9901C28.9772 72.9825 28.8999 72.9791 28.8348 72.9705C28.7709 72.9621 28.7283 72.9496 28.6956 72.9288L28.6255 73.0391ZM28.2187 71.6164C28.3035 72.0991 28.3568 72.4208 28.4098 72.6341C28.462 72.8443 28.5184 72.9711 28.6255 73.0391L28.6956 72.9288C28.6362 72.8911 28.5889 72.813 28.5366 72.6026C28.4851 72.3951 28.4329 72.0803 28.3474 71.5938L28.2187 71.6164ZM28.1314 71.1199L28.2187 71.6164L28.3474 71.5938L28.2601 71.0973L28.1314 71.1199ZM27.455 71.2129L28.1992 71.1739L28.1924 71.0434L27.4481 71.0824L27.455 71.2129ZM26.7106 71.2519L27.455 71.2129L27.4481 71.0824L26.7038 71.1214L26.7106 71.2519ZM26.582 72.1469L26.7713 71.1994L26.6431 71.1738L26.4539 72.1213L26.582 72.1469ZM26.3928 73.0943L26.582 72.1469L26.4539 72.1213L26.2647 73.0687L26.3928 73.0943ZM25.8319 73.1468H26.3287V73.0162H25.8319V73.1468ZM25.2688 72.9841C25.2691 73.0151 25.2855 73.0374 25.2995 73.0506C25.3134 73.0638 25.3303 73.0735 25.3463 73.0809C25.3785 73.0958 25.4209 73.1076 25.4681 73.1169C25.5636 73.1356 25.6923 73.1468 25.8319 73.1468V73.0162C25.6982 73.0162 25.5783 73.0054 25.4933 72.9886C25.4503 72.9802 25.4196 72.9708 25.4011 72.9623C25.3917 72.9579 25.3889 72.9553 25.3894 72.9558C25.3899 72.9563 25.3993 72.9654 25.3995 72.9829L25.2688 72.9841ZM31.5068 65.5154C31.3898 65.5732 31.26 65.6689 31.1446 65.7754C31.0292 65.8818 30.9241 66.0027 30.8588 66.1134L30.9713 66.1798C31.028 66.0838 31.1235 65.9726 31.2332 65.8714C31.3428 65.7703 31.4623 65.6831 31.5647 65.6326L31.5068 65.5154ZM34.1412 66.2413C33.6965 65.3696 32.4686 65.0408 31.5068 65.5154L31.5647 65.6326C32.4743 65.1837 33.6183 65.5039 34.0248 66.3007L34.1412 66.2413ZM34.1894 67.5294C34.2347 67.5289 34.2756 67.5144 34.3093 67.4867C34.3421 67.4597 34.3649 67.4231 34.3803 67.3828C34.4108 67.3035 34.4173 67.1982 34.407 67.082C34.3862 66.8476 34.2945 66.542 34.1412 66.2413L34.0248 66.3007C34.1724 66.5901 34.2578 66.8796 34.2768 67.0935C34.2864 67.2014 34.2784 67.2836 34.2583 67.336C34.2485 67.3616 34.237 67.3769 34.2264 67.3856C34.2167 67.3936 34.2049 67.3985 34.188 67.3987L34.1894 67.5294ZM33.7667 67.6028C33.9163 67.5627 34.1077 67.5302 34.1894 67.5294L34.1881 67.3987C34.0902 67.3997 33.8864 67.4354 33.7328 67.4766L33.7667 67.6028ZM33.3248 67.1999C33.3426 67.2894 33.3605 67.3633 33.3813 67.4223C33.402 67.4808 33.4276 67.5304 33.4643 67.5663C33.5449 67.645 33.6515 67.6337 33.7667 67.6028L33.7328 67.4766C33.6188 67.5072 33.5804 67.497 33.5556 67.4728C33.5396 67.4572 33.5224 67.4293 33.5045 67.3788C33.4869 67.3288 33.4705 67.2622 33.4529 67.1743L33.3248 67.1999ZM32.4399 66.3514C32.6826 66.3514 32.8727 66.422 33.0166 66.5587C33.1617 66.6965 33.2663 66.9076 33.3247 67.1999L33.4529 67.1743C33.3912 66.8659 33.2777 66.6264 33.1065 66.4639C32.9342 66.3002 32.7098 66.2207 32.4399 66.2207V66.3514ZM31.8499 66.6432C31.9224 66.5325 31.9964 66.4617 32.0856 66.4172C32.1755 66.3724 32.287 66.3514 32.4399 66.3514V66.2207C32.276 66.2207 32.142 66.2431 32.0273 66.3003C31.9117 66.3579 31.8218 66.4477 31.7406 66.5716L31.8499 66.6432ZM32.9084 68.6654C32.2987 68.1118 31.948 67.7338 31.7929 67.4282C31.7164 67.2776 31.6893 67.1478 31.7002 67.025C31.7112 66.9016 31.7611 66.7788 31.8499 66.6432L31.7406 66.5716C31.6446 66.7183 31.5835 66.8617 31.57 67.0135C31.5565 67.1659 31.5915 67.3201 31.6764 67.4874C31.8439 67.8175 32.2128 68.2104 32.8206 68.7621L32.9084 68.6654ZM34.5476 71.3448C34.548 70.8819 34.456 70.4981 34.202 70.085C33.9498 69.675 33.5393 69.2381 32.9085 68.6654L32.8206 68.7621C33.45 69.3336 33.8488 69.7601 34.0906 70.1534C34.3306 70.5437 34.4173 70.9032 34.4169 71.3447L34.5476 71.3448ZM32.4051 73.226C33.0149 73.3095 33.5514 73.1529 33.9359 72.8152C34.3204 72.4775 34.5471 71.964 34.5476 71.3448L34.4169 71.3447C34.4165 71.9313 34.2024 72.4073 33.8497 72.717C33.497 73.0267 32.9998 73.1755 32.4228 73.0965L32.4051 73.226ZM30.8978 72.1997C31.0632 72.5239 31.2424 72.7558 31.4827 72.9191C31.7224 73.0821 32.0169 73.1727 32.4051 73.226L32.4228 73.0965C32.0446 73.0446 31.7725 72.9581 31.5561 72.811C31.3403 72.6643 31.1737 72.453 31.0143 72.1403L30.8978 72.1997ZM30.9701 70.7485C30.8597 70.778 30.7738 70.841 30.7157 70.9319C30.6585 71.0215 30.6307 71.1343 30.6278 71.2615C30.622 71.5149 30.7144 71.8403 30.8979 72.1997L31.0143 72.1403C30.8357 71.7904 30.7534 71.4875 30.7585 71.2645C30.761 71.1535 30.7851 71.0661 30.8259 71.0023C30.8658 70.9397 30.9241 70.8961 31.0039 70.8747L30.9701 70.7485ZM31.7462 71.1757C31.7242 71.0583 31.7012 70.9618 31.6696 70.8868C31.6375 70.8108 31.5939 70.7508 31.5273 70.7148C31.462 70.6794 31.3845 70.6726 31.2961 70.6809C31.2076 70.6892 31.1002 70.7136 30.9701 70.7485L31.0039 70.8747C31.1333 70.84 31.2316 70.8182 31.3083 70.811C31.3851 70.8038 31.4325 70.812 31.4651 70.8297C31.4965 70.8467 31.5238 70.8776 31.5492 70.9377C31.575 70.9988 31.5959 71.0835 31.6178 71.1998L31.7462 71.1757ZM33.3737 71.3405C33.3726 71.6765 33.2819 71.9116 33.1512 72.0576C33.0213 72.2026 32.8471 72.2653 32.6639 72.2493C32.296 72.2173 31.875 71.8623 31.7462 71.1757L31.6178 71.1998C31.7539 71.9253 32.2092 72.341 32.6526 72.3795C32.8749 72.3989 33.09 72.3218 33.2486 72.1447C33.4063 71.9685 33.5032 71.6992 33.5043 71.3409L33.3737 71.3405ZM32.1704 69.6656C32.7551 70.2269 33.0555 70.5225 33.2115 70.7421C33.2879 70.8497 33.3275 70.9363 33.3488 71.025C33.3704 71.1152 33.3741 71.211 33.3737 71.3405L33.5043 71.3409C33.5047 71.2108 33.5015 71.1012 33.4759 70.9945C33.4499 70.8864 33.402 70.7846 33.318 70.6664C33.1531 70.4342 32.8411 70.1283 32.261 69.5713L32.1704 69.6656ZM30.7839 68.1871C30.8084 68.234 30.8675 68.3101 30.9466 68.4029C31.0276 68.4978 31.1344 68.6158 31.2593 68.7487C31.5091 69.0145 31.8329 69.3415 32.1704 69.6656L32.261 69.5713C31.9248 69.2485 31.6026 68.9232 31.3545 68.6592C31.2304 68.5272 31.1251 68.4109 31.0461 68.3181C30.9652 68.2233 30.9163 68.1582 30.8998 68.1267L30.7839 68.1871ZM30.8588 66.1134C30.7221 66.3447 30.6473 66.7533 30.6328 67.1504C30.6255 67.3507 30.6335 67.5517 30.6577 67.7308C30.6818 67.9088 30.7227 68.0697 30.7839 68.1871L30.8998 68.1267C30.8487 68.0287 30.8105 67.8848 30.7872 67.7133C30.7641 67.5428 30.7564 67.3494 30.7634 67.1552C30.7777 66.7632 30.8518 66.382 30.9713 66.1799L30.8588 66.1134ZM35.3322 65.825V66.286H35.4629V65.825H35.3322ZM35.3322 65.364V65.825H35.4629V65.364H35.3322ZM37.1957 65.335L35.3989 65.2986L35.3962 65.4293L37.1931 65.4656L37.1957 65.335ZM38.9926 65.3713L37.1957 65.335L37.1931 65.4656L38.99 65.5019L38.9926 65.3713ZM39.0972 65.8551L39.0563 65.4304L38.9262 65.4429L38.9671 65.8676L39.0972 65.8551ZM39.1383 66.2798L39.0972 65.8551L38.9671 65.8676L39.0082 66.2923L39.1383 66.2798ZM38.4114 66.3514H39.0732V66.2207H38.4114V66.3514ZM37.7498 66.3514H38.4114V66.2207H37.7498V66.3514ZM37.8151 69.6838V66.286H37.6845V69.6838H37.8151ZM37.8151 73.0815V69.6838H37.6845V73.0815H37.8151ZM37.2271 73.1468H37.7498V73.0162H37.2271V73.1468ZM36.7044 73.1468H37.2271V73.0162H36.7044V73.1468ZM36.639 69.6838V73.0815H36.7697V69.6838H36.639ZM36.639 66.286V69.6838H36.7697V66.286H36.639ZM36.0509 66.3514H36.7044V66.2207H36.0509V66.3514ZM35.3975 66.3514H36.0509V66.2207H35.3975V66.3514ZM40.2778 65.4081C40.264 65.4218 40.2587 65.4389 40.2571 65.4439C40.2544 65.4523 40.2523 65.4616 40.2505 65.4708C40.2469 65.4895 40.2437 65.5138 40.2407 65.5427C40.2346 65.6007 40.2288 65.682 40.2233 65.7835C40.2124 65.9867 40.2025 66.274 40.1942 66.624C40.1777 67.3241 40.1674 68.277 40.1674 69.3136H40.2981C40.2981 68.2777 40.3084 67.3259 40.3249 66.6271C40.3331 66.2776 40.3429 65.9918 40.3538 65.7905C40.3592 65.6897 40.3649 65.611 40.3706 65.5563C40.3735 65.5288 40.3763 65.5087 40.3789 65.4954C40.3802 65.4886 40.3811 65.4851 40.3815 65.4839C40.383 65.4792 40.3808 65.4898 40.3702 65.5005L40.2778 65.4081ZM41.7959 65.3345C41.4157 65.3243 41.0593 65.3254 40.7911 65.3353C40.6572 65.3403 40.5443 65.3475 40.461 65.3568C40.4196 65.3614 40.384 65.3667 40.3563 65.3729C40.3425 65.376 40.3292 65.3796 40.3174 65.384C40.3075 65.3877 40.2911 65.3947 40.2778 65.408L40.3701 65.5005C40.3631 65.5075 40.3578 65.5084 40.3635 65.5063C40.3673 65.5049 40.3741 65.5028 40.3847 65.5005C40.4058 65.4958 40.436 65.4911 40.4755 65.4867C40.5541 65.4779 40.6634 65.4708 40.796 65.4659C41.0607 65.4561 41.4143 65.455 41.7924 65.4651L41.7959 65.3345ZM43.1749 65.3713L41.7959 65.3345L41.7924 65.4651L43.1714 65.5019L43.1749 65.3713ZM43.279 65.8551L43.2381 65.4304L43.1081 65.4429L43.149 65.8676L43.279 65.8551ZM43.3201 66.2798L43.279 65.8551L43.149 65.8676L43.19 66.2923L43.3201 66.2798ZM42.3319 66.3514H43.255V66.2207H42.3319V66.3514ZM41.4089 66.3514H42.3319V66.2207H41.4089V66.3514ZM41.4742 67.5275V66.286H41.3436V67.5275H41.4742ZM41.4742 68.769V67.5275H41.3436V68.769H41.4742ZM42.1276 68.7037H41.4089V68.8343H42.1276V68.7037ZM42.9117 69.1611C42.9117 69.0666 42.9116 68.9856 42.898 68.9223C42.8832 68.8535 42.851 68.7981 42.7851 68.7621C42.726 68.7299 42.6456 68.717 42.5443 68.7105C42.441 68.7039 42.3047 68.7037 42.1276 68.7037V68.8343C42.3063 68.8343 42.4377 68.8346 42.5359 68.8409C42.636 68.8473 42.6908 68.8596 42.7225 68.8768C42.7474 68.8904 42.7614 68.9087 42.7703 68.9498C42.7803 68.9964 42.7811 69.0615 42.7811 69.1611H42.9117ZM42.1276 69.6184C42.3047 69.6184 42.441 69.6182 42.5443 69.6116C42.6456 69.6052 42.726 69.5922 42.7851 69.56C42.851 69.524 42.8832 69.4686 42.898 69.3998C42.9116 69.3365 42.9117 69.2555 42.9117 69.1611H42.7811C42.7811 69.2606 42.7803 69.3257 42.7703 69.3723C42.7614 69.4134 42.7474 69.4317 42.7225 69.4453C42.6908 69.4626 42.636 69.4748 42.5359 69.4812C42.4377 69.4875 42.3063 69.4878 42.1276 69.4878V69.6184ZM41.4089 69.6184H42.1276V69.4878H41.4089V69.6184ZM41.4742 70.9253V69.5531H41.3436V70.9253H41.4742ZM41.4742 72.2974V70.9253H41.3436V72.2974H41.4742ZM42.3237 72.2321H41.4089V72.3628H42.3237V72.2321ZM43.2384 72.2321H42.3237V72.3628H43.2384V72.2321ZM43.3038 72.6895V72.2974H43.1731V72.6895H43.3038ZM43.3038 73.0815V72.6895H43.1731V73.0815H43.3038ZM41.7356 73.1468H43.2384V73.0162H41.7356V73.1468ZM40.2328 73.1468H41.7356V73.0162H40.2328V73.1468ZM40.1674 69.3136V73.0815H40.2981V69.3136H40.1674ZM45.2126 65.5661C44.9018 65.7556 44.6838 65.9552 44.5447 66.2044C44.4056 66.4534 44.3492 66.7452 44.3492 67.1121H44.4799C44.4799 66.7581 44.5344 66.4909 44.6588 66.2681C44.7832 66.0453 44.9812 65.8603 45.2806 65.6777L45.2126 65.5661ZM47.8917 66.2535C47.6575 65.8089 47.2056 65.5043 46.7071 65.3768C46.2085 65.2492 45.6549 65.2964 45.2126 65.5661L45.2807 65.6777C45.6877 65.4295 46.2039 65.3829 46.6747 65.5034C47.1457 65.6239 47.5628 65.9093 47.7761 66.3144L47.8917 66.2535ZM47.9111 67.5293C48.0097 67.5282 48.0698 67.4574 48.1002 67.3745C48.1304 67.2923 48.1387 67.1835 48.131 67.0648C48.1155 66.8257 48.0334 66.5225 47.8917 66.2535L47.7761 66.3144C47.9097 66.5681 47.9864 66.8536 48.0006 67.0732C48.0078 67.1838 47.9987 67.2718 47.9775 67.3295C47.9567 67.3864 47.9316 67.3984 47.9096 67.3987L47.9111 67.5293ZM47.4698 67.6076C47.6301 67.5648 47.8296 67.5302 47.911 67.5294L47.9097 67.3987C47.8115 67.3997 47.5993 67.4377 47.4361 67.4814L47.4698 67.6076ZM47.0936 67.3382C47.0936 67.3976 47.097 67.45 47.1079 67.4933C47.1189 67.5373 47.1395 67.5784 47.1787 67.6059C47.2171 67.6329 47.2631 67.6394 47.3091 67.6372C47.3551 67.6351 47.4088 67.624 47.4699 67.6076L47.436 67.4814C47.3775 67.4971 47.3347 67.5052 47.3031 67.5067C47.2715 67.5081 47.2589 67.5025 47.2538 67.4989C47.2493 67.4958 47.2412 67.4878 47.2346 67.4613C47.2277 67.4341 47.2242 67.3947 47.2242 67.3382H47.0936ZM46.6783 66.4404C46.7719 66.5029 46.8767 66.6476 46.959 66.824C47.0406 66.9988 47.0936 67.1908 47.0936 67.3382H47.2242C47.2242 67.165 47.1637 66.9535 47.0774 66.7687C46.9919 66.5854 46.8746 66.4143 46.7509 66.3317L46.6783 66.4404ZM46.1488 66.3534C46.2611 66.3539 46.3791 66.3649 46.478 66.382C46.5275 66.3906 46.5713 66.4006 46.6067 66.4112C46.6434 66.4222 46.6667 66.4326 46.6783 66.4404L46.7509 66.3317C46.7229 66.313 46.6848 66.2982 46.6443 66.286C46.6025 66.2735 46.5534 66.2625 46.5003 66.2533C46.3943 66.2349 46.2691 66.2233 46.1495 66.2227L46.1488 66.3534ZM45.5715 66.6432C45.6434 66.5336 45.7173 66.4627 45.8052 66.4183C45.8936 66.3736 46.0023 66.3527 46.1488 66.3534L46.1494 66.2227C45.9908 66.2219 45.8595 66.2444 45.7462 66.3017C45.6324 66.3592 45.5428 66.4487 45.4622 66.5716L45.5715 66.6432ZM46.6712 68.7055C46.0402 68.1288 45.6788 67.7411 45.5185 67.4312C45.4395 67.2784 45.4113 67.1481 45.4218 67.0253C45.4322 66.902 45.4823 66.7794 45.5715 66.6432L45.4622 66.5716C45.3659 66.7186 45.3045 66.862 45.2915 67.0143C45.2785 67.1671 45.315 67.3221 45.4024 67.4912C45.5751 67.825 45.9544 68.2274 46.5831 68.8019L46.6712 68.7055ZM48.2692 71.3371C48.2696 70.864 48.1943 70.4988 47.9527 70.1029C47.7135 69.711 47.3128 69.2918 46.6712 68.7055L46.5831 68.802C47.2246 69.3882 47.6126 69.7965 47.8412 70.171C48.0673 70.5415 48.1389 70.8816 48.1385 71.337L48.2692 71.3371ZM46.1299 73.2263C46.7463 73.3109 47.2822 73.1578 47.6645 72.8199C48.0468 72.4821 48.2687 71.9658 48.2692 71.3371L48.1385 71.337C48.138 71.9346 47.9278 72.4129 47.578 72.722C47.2283 73.031 46.7322 73.177 46.1477 73.0969L46.1299 73.2263ZM44.5648 72.0594C44.8338 72.7318 45.3593 73.1208 46.1299 73.2263L46.1477 73.0969C45.4189 72.997 44.936 72.6354 44.6862 72.0109L44.5648 72.0594ZM44.6917 70.7485C44.5919 70.7752 44.5099 70.8233 44.4515 70.8973C44.3932 70.9709 44.3629 71.0643 44.3554 71.1738C44.3408 71.3897 44.4143 71.6833 44.5648 72.0594L44.6862 72.0109C44.5368 71.6376 44.4733 71.3673 44.4858 71.1827C44.492 71.092 44.5163 71.026 44.554 70.9783C44.5914 70.9309 44.6467 70.8958 44.7255 70.8747L44.6917 70.7485ZM45.4678 71.1757C45.4458 71.0583 45.4228 70.9618 45.3912 70.8868C45.3591 70.8108 45.3155 70.7508 45.2489 70.7148C45.1836 70.6794 45.1061 70.6726 45.0177 70.6809C44.9292 70.6892 44.8218 70.7136 44.6917 70.7485L44.7255 70.8747C44.8549 70.84 44.9532 70.8182 45.0299 70.811C45.1067 70.8038 45.1541 70.812 45.1867 70.8297C45.2181 70.8467 45.2454 70.8776 45.2708 70.9377C45.2966 70.9988 45.3175 71.0835 45.3394 71.1998L45.4678 71.1757ZM46.8753 72.1046C46.5517 72.2777 46.2449 72.2627 45.9987 72.1031C45.7497 71.9416 45.5521 71.6251 45.4678 71.1757L45.3394 71.1998C45.428 71.6722 45.6396 72.0259 45.9276 72.2127C46.2184 72.4013 46.5765 72.4126 46.937 72.2198L46.8753 72.1046ZM47.0936 71.3979C47.0936 71.6417 47.0791 71.7971 47.0441 71.9032C47.0109 72.0034 46.9593 72.0596 46.8753 72.1046L46.937 72.2198C47.0491 72.1597 47.124 72.0778 47.1681 71.9442C47.2104 71.8164 47.2242 71.6423 47.2242 71.3979H47.0936ZM46.2965 70.0192C46.6886 70.4015 46.8845 70.6008 46.9857 70.7776C47.0831 70.9475 47.0936 71.098 47.0936 71.3979H47.2242C47.2242 71.0985 47.2155 70.9157 47.0991 70.7126C46.9866 70.5162 46.7742 70.3025 46.3878 69.9257L46.2965 70.0192ZM45.1426 68.9625C45.3278 69.1057 45.8472 69.581 46.2965 70.0192L46.3878 69.9257C45.9388 69.4878 45.4145 69.0075 45.2226 68.8591L45.1426 68.9625ZM44.3492 67.1121C44.3492 67.8769 44.6445 68.5769 45.1426 68.9625L45.2226 68.8591C44.7641 68.5042 44.4799 67.8472 44.4799 67.1121H44.3492ZM49.1636 65.4086C49.1407 65.4315 49.1248 65.465 49.1132 65.4968C49.1009 65.5306 49.0903 65.5711 49.0816 65.615C49.0643 65.703 49.0538 65.81 49.0538 65.9158H49.1845C49.1845 65.8179 49.1943 65.7194 49.2099 65.6402C49.2177 65.6006 49.2266 65.5672 49.236 65.5417C49.2406 65.529 49.245 65.5191 49.249 65.5118C49.251 65.5082 49.2526 65.5055 49.254 65.5036C49.2553 65.5017 49.256 65.501 49.256 65.501L49.1636 65.4086ZM51.0081 65.335C50.5381 65.325 50.1002 65.3261 49.7731 65.3361C49.6097 65.341 49.4731 65.3482 49.3737 65.3573C49.3241 65.3619 49.2825 65.3671 49.2508 65.3731C49.2351 65.376 49.2203 65.3795 49.2076 65.3836C49.1978 65.3868 49.1785 65.3937 49.1636 65.4086L49.256 65.501C49.2474 65.5096 49.2403 65.5104 49.2483 65.5078C49.2534 65.5061 49.262 65.504 49.275 65.5015C49.3007 65.4967 49.3377 65.4919 49.3857 65.4875C49.4812 65.4787 49.6148 65.4716 49.7771 65.4667C50.1014 65.4569 50.537 65.4557 51.0053 65.4656L51.0081 65.335ZM52.7143 65.3713L51.0081 65.335L51.0053 65.4656L52.7115 65.5019L52.7143 65.3713ZM52.8188 65.8551L52.7779 65.4304L52.6478 65.4429L52.6887 65.8676L52.8188 65.8551ZM52.8599 66.2798L52.8188 65.8551L52.6887 65.8676L52.7298 66.2923L52.8599 66.2798ZM52.133 66.3514H52.7948V66.2207H52.133V66.3514ZM51.4714 66.3514H52.133V66.2207H51.4714V66.3514ZM51.5367 69.6838V66.286H51.4061V69.6838H51.5367ZM51.5367 73.0815V69.6838H51.4061V73.0815H51.5367ZM50.9487 73.1468H51.4714V73.0162H50.9487V73.1468ZM50.4259 73.1468H50.9487V73.0162H50.4259V73.1468ZM50.3606 69.6838V73.0815H50.4913V69.6838H50.3606ZM50.3606 66.286V69.6838H50.4913V66.286H50.3606ZM49.7725 66.3514H50.4259V66.2207H49.7725V66.3514ZM49.0538 65.9158C49.0538 66.0034 49.0549 66.0791 49.0689 66.1392C49.0841 66.2042 49.1157 66.2568 49.1772 66.2917C49.2329 66.3233 49.3075 66.3367 49.3996 66.3436C49.4933 66.3506 49.6155 66.3514 49.7725 66.3514V66.2207C49.6143 66.2207 49.4973 66.2199 49.4094 66.2133C49.3199 66.2066 49.2705 66.1944 49.2416 66.178C49.2186 66.165 49.205 66.1474 49.1962 66.1095C49.1862 66.0667 49.1845 66.0069 49.1845 65.9158H49.0538ZM57.4921 65.518C57.1784 65.6782 56.9639 65.8642 56.8093 66.1687C56.6569 66.4689 56.5646 66.8803 56.483 67.4857L56.6125 67.5032C56.694 66.8989 56.7842 66.5067 56.9258 66.2279C57.0651 65.9535 57.2562 65.7852 57.5516 65.6344L57.4921 65.518ZM58.6972 65.3428C58.1763 65.3114 57.7935 65.3642 57.4921 65.518L57.5515 65.6344C57.8231 65.4957 58.1789 65.4424 58.6893 65.4732L58.6972 65.3428ZM60.5857 67.2792C60.5529 66.6524 60.3969 66.1839 60.0843 65.8631C59.7714 65.5421 59.3123 65.38 58.6972 65.3428L58.6893 65.4732C59.2873 65.5094 59.7094 65.6657 59.9907 65.9543C60.2722 66.2432 60.4233 66.6753 60.4552 67.286L60.5857 67.2792ZM60.619 67.9162L60.5857 67.2792L60.4552 67.286L60.4885 67.923L60.619 67.9162ZM60.0851 68.0243L60.5592 67.9847L60.5483 67.8545L60.0742 67.8941L60.0851 68.0243ZM59.611 68.0639L60.0851 68.0243L60.0742 67.8941L59.6001 67.9337L59.611 68.0639ZM59.4512 67.2903L59.5407 68.0069L59.6704 67.9907L59.5809 67.2741L59.4512 67.2903ZM59.2067 66.4682C59.2196 66.4789 59.2405 66.5074 59.2656 66.56C59.2897 66.6103 59.3144 66.6757 59.338 66.7521C59.3853 66.9048 59.427 67.0968 59.4512 67.2903L59.5809 67.2741C59.5558 67.0736 59.5126 66.874 59.4629 66.7134C59.438 66.6332 59.4112 66.5615 59.3835 66.5036C59.357 66.4481 59.3261 66.3975 59.2901 66.3676L59.2067 66.4682ZM58.5129 66.3759C58.6629 66.3651 58.8188 66.3714 58.9481 66.3901C59.0128 66.3995 59.0697 66.4118 59.1154 66.4261C59.1624 66.4408 59.192 66.456 59.2067 66.4682L59.2901 66.3676C59.2558 66.3392 59.207 66.3179 59.1544 66.3014C59.1004 66.2845 59.0363 66.2709 58.9669 66.2608C58.828 66.2407 58.6627 66.2341 58.5035 66.2456L58.5129 66.3759ZM57.6807 69.3068C57.6813 68.6221 57.6854 68.0978 57.7042 67.695C57.723 67.2911 57.7563 67.0146 57.8134 66.8231C57.8697 66.6341 57.947 66.5349 58.0505 66.476C58.1588 66.4143 58.3046 66.391 58.5129 66.3759L58.5035 66.2456C58.296 66.2606 58.1226 66.2845 57.9858 66.3624C57.8443 66.443 57.7508 66.5757 57.6882 66.7858C57.6262 66.9936 57.5925 67.2837 57.5736 67.6889C57.5547 68.0951 57.5506 68.6223 57.5501 69.3067L57.6807 69.3068ZM57.9357 71.9127C57.875 71.8355 57.831 71.7693 57.7972 71.6814C57.763 71.5926 57.7379 71.4781 57.7201 71.3034C57.6844 70.9524 57.6798 70.3747 57.6807 69.3068L57.5501 69.3067C57.5492 70.3714 57.5536 70.9573 57.5901 71.3166C57.6084 71.4971 57.6352 71.6244 57.6752 71.7284C57.7156 71.8333 57.7682 71.9112 57.833 71.9935L57.9357 71.9127ZM58.5701 72.2301C58.4306 72.2308 58.3177 72.2076 58.2181 72.1579C58.1184 72.1081 58.0275 72.0295 57.9357 71.9127L57.833 71.9935C57.9331 72.1208 58.0381 72.2141 58.1598 72.2748C58.2817 72.3356 58.4158 72.3616 58.5707 72.3608L58.5701 72.2301ZM59.5083 70.8032C59.5083 71.3496 59.4416 71.7042 59.295 71.9224C59.1532 72.1332 58.9278 72.2283 58.5701 72.2301L58.5708 72.3608C58.9521 72.3589 59.2283 72.2557 59.4034 71.9953C59.5736 71.7421 59.639 71.3524 59.639 70.8032H59.5083ZM59.5083 70.0758V70.8032H59.639V70.0758H59.5083ZM59.1163 70.1412H59.5737V70.0105H59.1163V70.1412ZM58.5936 69.6838C58.5936 69.7737 58.5957 69.8489 58.6069 69.9093C58.6184 69.9709 58.6407 70.025 58.6872 70.0648C58.7322 70.1033 58.7911 70.1209 58.8583 70.1301C58.9259 70.1393 59.0113 70.1412 59.1163 70.1412V70.0105C59.0107 70.0105 58.9337 70.0085 58.876 70.0006C58.8181 69.9927 58.7889 69.9799 58.7722 69.9655C58.757 69.9525 58.7439 69.9311 58.7354 69.8854C58.7266 69.8384 58.7242 69.7744 58.7242 69.6838H58.5936ZM58.5936 69.2917V69.6838H58.7242V69.2917H58.5936ZM59.639 69.2264H58.6589V69.3571H59.639V69.2264ZM60.6191 69.2264H59.639V69.3571H60.6191V69.2264ZM60.6845 71.1952V69.2917H60.5538V71.1952H60.6845ZM60.6845 73.0989V71.1952H60.5538V73.0989H60.6845ZM60.2574 73.1224L60.6115 73.1638L60.6267 73.034L60.2726 72.9926L60.2574 73.1224ZM59.7706 72.7043C59.7999 72.8295 59.8494 72.9286 59.9326 72.9997C60.0154 73.0704 60.1237 73.1068 60.2574 73.1224L60.2725 72.9926C60.1528 72.9786 60.0731 72.9478 60.0175 72.9003C59.9624 72.8532 59.9232 72.7831 59.8979 72.6746L59.7706 72.7043ZM59.7333 72.6081C59.7508 72.5628 59.7633 72.5369 59.7718 72.5246C59.7764 72.518 59.775 72.5226 59.7661 72.527C59.7605 72.5296 59.7523 72.532 59.7425 72.5313C59.7327 72.5307 59.7252 72.5273 59.7204 72.5242C59.7128 72.5193 59.7124 72.5153 59.7166 72.5231C59.7202 72.5295 59.7249 72.5402 59.7307 72.5568C59.7421 72.5898 59.7551 72.6381 59.7706 72.7044L59.8979 72.6745C59.8822 72.6076 59.868 72.5537 59.8541 72.5138C59.8472 72.4939 59.8397 72.4756 59.8312 72.4601C59.8234 72.4459 59.8111 72.4272 59.7914 72.4145C59.7667 72.3985 59.7365 72.3961 59.7092 72.4093C59.6878 72.4196 59.6735 72.4371 59.6646 72.4499C59.646 72.4766 59.6287 72.5161 59.6113 72.5612L59.7333 72.6081ZM58.1453 73.2253C58.4832 73.2717 58.8358 73.2251 59.1246 73.1155C59.4105 73.007 59.6476 72.8312 59.7333 72.6081L59.6113 72.5612C59.5452 72.7333 59.35 72.8902 59.0782 72.9933C58.8093 73.0954 58.4787 73.1391 58.1631 73.0958L58.1453 73.2253ZM56.6734 72.066C56.818 72.4055 57.01 72.6721 57.2556 72.8657C57.5013 73.0595 57.7973 73.1776 58.1453 73.2253L58.1631 73.0958C57.8346 73.0508 57.5614 72.9405 57.3365 72.7631C57.1115 72.5857 56.9314 72.3384 56.7937 72.0148L56.6734 72.066ZM56.483 67.4857C56.3916 68.1633 56.3729 69.1505 56.4094 70.0439C56.4277 70.491 56.4598 70.9159 56.5039 71.2681C56.5478 71.618 56.6041 71.9031 56.6734 72.066L56.7937 72.0148C56.7323 71.8705 56.6775 71.6019 56.6336 71.2519C56.5901 70.9043 56.5581 70.4832 56.54 70.0386C56.5036 69.1488 56.5226 68.1701 56.6125 67.5032L56.483 67.4857ZM62.2283 65.4122C62.22 65.4205 62.2154 65.4293 62.2132 65.4338C62.2107 65.4391 62.2089 65.4442 62.2076 65.4484C62.205 65.4567 62.203 65.4659 62.2013 65.475C62.1979 65.4934 62.1948 65.5176 62.1919 65.5463C62.1861 65.6039 62.1806 65.685 62.1754 65.7862C62.1649 65.9889 62.1555 66.2757 62.1476 66.6253C62.1318 67.3246 62.122 68.277 62.122 69.3136H62.2526C62.2526 68.2777 62.2624 67.3264 62.2782 66.6282C62.2861 66.2791 62.2955 65.9937 62.3059 65.7929C62.3111 65.6924 62.3165 65.6138 62.322 65.5594C62.3247 65.532 62.3274 65.5119 62.3298 65.4987C62.3311 65.492 62.332 65.4885 62.3324 65.4873C62.3326 65.4867 62.3323 65.4878 62.3312 65.49C62.3306 65.4914 62.3275 65.4979 62.3206 65.5047L62.2283 65.4122ZM64.2784 65.4334C63.779 65.3611 63.308 65.3205 62.9456 65.3133C62.7646 65.3097 62.6091 65.3145 62.49 65.3282C62.4306 65.335 62.3785 65.3443 62.3361 65.3565C62.2958 65.3682 62.2555 65.385 62.2282 65.4123L62.3207 65.5046C62.3238 65.5015 62.3375 65.4922 62.3724 65.4821C62.4052 65.4726 62.4494 65.4644 62.505 65.458C62.6159 65.4452 62.7649 65.4405 62.943 65.444C63.2989 65.451 63.7644 65.4911 64.2597 65.5627L64.2784 65.4334ZM66.0161 67.1851C65.9761 66.632 65.8476 66.2329 65.568 65.9516C65.2894 65.6714 64.8714 65.519 64.2784 65.4334L64.2597 65.5627C64.8436 65.6471 65.2269 65.7939 65.4753 66.0438C65.7227 66.2926 65.8467 66.6544 65.8858 67.1946L66.0161 67.1851ZM65.5115 69.0665C65.7438 68.8494 65.891 68.6339 65.9686 68.3408C66.0453 68.0511 66.0527 67.6902 66.0161 67.1851L65.8858 67.1946C65.9221 67.697 65.9131 68.0397 65.8423 68.3073C65.7724 68.5714 65.6411 68.7666 65.4223 68.971L65.5115 69.0665ZM65.1469 69.4071L65.5115 69.0665L65.4223 68.971L65.0577 69.3116L65.1469 69.4071ZM65.6676 71.1044L65.1651 69.3414L65.0395 69.3772L65.5419 71.1402L65.6676 71.1044ZM66.1728 72.9833C66.1728 72.9731 66.1707 72.961 66.1691 72.9524C66.1672 72.9419 66.1644 72.9288 66.1609 72.9135C66.154 72.8827 66.1439 72.8411 66.1311 72.7903C66.1054 72.6885 66.0684 72.5481 66.0228 72.3793C65.9316 72.0416 65.8059 71.5895 65.6676 71.1044L65.5419 71.1402C65.6801 71.6249 65.8056 72.0764 65.8967 72.4134C65.9422 72.5819 65.979 72.7215 66.0044 72.8223C66.0171 72.8727 66.0269 72.913 66.0335 72.9421C66.0367 72.9568 66.0391 72.9681 66.0406 72.9763C66.0425 72.9864 66.0422 72.9871 66.0422 72.9837L66.1728 72.9833ZM65.5938 73.1468C65.738 73.1468 65.8707 73.1357 65.9689 73.1169C66.0175 73.1077 66.061 73.0959 66.0938 73.0812C66.11 73.0739 66.1273 73.0643 66.1415 73.0511C66.1556 73.038 66.1729 73.0152 66.1728 72.9833L66.0422 72.9837C66.0421 72.9652 66.0522 72.9557 66.0526 72.9553C66.0531 72.9549 66.0501 72.9576 66.0403 72.962C66.021 72.9706 65.989 72.9801 65.9445 72.9886C65.8565 73.0053 65.7323 73.0162 65.5938 73.0162V73.1468ZM64.9514 72.8708C64.9814 72.9752 65.0469 73.0476 65.1566 73.0909C65.2605 73.1319 65.4039 73.1468 65.5938 73.1468V73.0162C65.4064 73.0162 65.2841 73.0007 65.2046 72.9694C65.1309 72.9403 65.0953 72.8984 65.077 72.8348L64.9514 72.8708ZM64.4623 71.106C64.6949 71.9502 64.9151 72.7447 64.9514 72.8709L65.077 72.8347C65.0409 72.7095 64.821 71.916 64.5883 71.0713L64.4623 71.106ZM63.7329 69.6184C63.8252 69.6184 63.8796 69.6217 63.9236 69.6418C63.9639 69.6602 64.0041 69.6973 64.0514 69.789C64.0992 69.8816 64.1501 70.0218 64.2156 70.2357C64.2807 70.4488 64.3591 70.7311 64.4623 71.106L64.5883 71.0713C64.4852 70.6969 64.4063 70.4127 64.3405 70.1975C64.275 69.9831 64.2212 69.833 64.1675 69.729C64.1134 69.6241 64.0554 69.5583 63.9778 69.5229C63.904 69.4892 63.8208 69.4878 63.7329 69.4878V69.6184ZM63.3634 69.6184H63.7329V69.4878H63.3634V69.6184ZM63.4288 71.3173V69.5531H63.2981V71.3173H63.4288ZM63.4288 73.0815V71.3173H63.2981V73.0815H63.4288ZM62.7754 73.1468H63.3634V73.0162H62.7754V73.1468ZM62.1873 73.1468H62.7754V73.0162H62.1873V73.1468ZM62.122 69.3136V73.0815H62.2526V69.3136H62.122ZM68.4349 65.5457C68.2167 65.6666 68.0399 65.7899 67.8998 65.9523C67.7592 66.1153 67.6589 66.314 67.5874 66.5814C67.4456 67.1114 67.4146 67.9238 67.4146 69.2917H67.5453C67.5453 67.9188 67.5772 67.1252 67.7136 66.6151C67.7812 66.3625 67.8737 66.1827 67.9988 66.0376C68.1244 65.8919 68.2861 65.7775 68.4982 65.66L68.4349 65.5457ZM70.874 65.6295C70.5999 65.4499 70.129 65.3533 69.6654 65.3375C69.2018 65.3216 68.7239 65.3857 68.4349 65.5457L68.4982 65.66C68.7559 65.5173 69.2049 65.4525 69.661 65.4681C70.1171 65.4837 70.5587 65.5791 70.8024 65.7388L70.874 65.6295ZM71.7271 69.2878C71.7271 68.029 71.6908 67.2318 71.5676 66.693C71.5057 66.4223 71.4214 66.2138 71.3068 66.0436C71.1919 65.873 71.0488 65.744 70.874 65.6295L70.8024 65.7388C70.9662 65.8461 71.0953 65.9636 71.1984 66.1166C71.3016 66.2699 71.3808 66.4623 71.4402 66.7221C71.5596 67.2442 71.5964 68.0269 71.5964 69.2878H71.7271ZM70.8081 72.9298C71.0035 72.7871 71.1614 72.6463 71.2867 72.4739C71.4123 72.3011 71.5028 72.0996 71.5678 71.8381C71.6969 71.3187 71.7271 70.5536 71.7271 69.2878H71.5964C71.5964 70.5573 71.5655 71.3056 71.441 71.8065C71.3792 72.0551 71.2948 72.2404 71.181 72.3971C71.0668 72.5542 70.9207 72.6858 70.731 72.8242L70.8081 72.9298ZM68.3294 72.9218C68.6052 73.1274 69.092 73.2252 69.5665 73.2267C70.041 73.2282 70.5292 73.1335 70.8081 72.9297L70.731 72.8242C70.4863 73.0031 70.0326 73.0975 69.5669 73.096C69.1011 73.0945 68.6492 72.9972 68.4075 72.817L68.3294 72.9218ZM67.4146 69.2917C67.4146 70.6186 67.4336 71.3712 67.5568 71.8672C67.619 72.1178 67.7083 72.3055 67.836 72.4697C67.9629 72.6328 68.1256 72.7699 68.3294 72.9218L68.4075 72.817C68.206 72.6669 68.0549 72.5382 67.9392 72.3894C67.8243 72.2418 67.7422 72.0715 67.6836 71.8357C67.5652 71.3588 67.5453 70.6247 67.5453 69.2917H67.4146ZM72.9727 65.3835C72.9599 65.3965 72.9558 65.4112 72.9548 65.4148C72.9532 65.4208 72.9524 65.4263 72.952 65.43C72.9511 65.4378 72.9509 65.4462 72.951 65.4542C72.9511 65.4706 72.9523 65.4923 72.9543 65.5181C72.9584 65.5703 72.9661 65.6441 72.9769 65.7363C72.9986 65.9209 73.0331 66.1818 73.0768 66.4953C73.1641 67.1225 73.2883 67.9616 73.4207 68.8254C73.6852 70.5511 73.983 72.3807 74.0842 72.8104L74.2114 72.7805C74.1118 72.3571 73.8148 70.5343 73.5499 68.8056C73.4176 67.9422 73.2934 67.1036 73.2062 66.4773C73.1626 66.1641 73.1282 65.9043 73.1067 65.7211C73.0959 65.6293 73.0885 65.5575 73.0846 65.508C73.0827 65.4831 73.0817 65.465 73.0817 65.4533C73.0816 65.4505 73.0817 65.4483 73.0817 65.4467C73.0818 65.445 73.0819 65.4443 73.0819 65.4443C73.0819 65.4444 73.0818 65.4449 73.0817 65.4457C73.0815 65.4464 73.0813 65.4479 73.0807 65.4498C73.0804 65.4509 73.0772 65.4639 73.0653 65.4758L72.9727 65.3835ZM73.4903 65.3328C73.3788 65.3218 73.2687 65.3199 73.1803 65.3259C73.1363 65.3289 73.096 65.3341 73.0631 65.3416C73.0466 65.3453 73.0306 65.35 73.0163 65.3559C73.0028 65.3614 72.9864 65.3699 72.9728 65.3835L73.0652 65.4759C73.0614 65.4797 73.06 65.4792 73.0662 65.4767C73.0716 65.4744 73.0801 65.4717 73.0921 65.469C73.1161 65.4635 73.149 65.4591 73.1892 65.4563C73.2694 65.4508 73.3722 65.4524 73.4774 65.4628L73.4903 65.3328ZM73.8843 65.3716L73.4902 65.3328L73.4774 65.4628L73.8714 65.5016L73.8843 65.3716ZM74.3314 68.0969L73.9425 65.4272L73.8132 65.446L74.2021 68.1157L74.3314 68.0969ZM74.6831 70.3781C74.6794 70.3934 74.6763 70.4021 74.6744 70.4062C74.6711 70.4132 74.6744 70.4012 74.6908 70.3935C74.7013 70.3885 74.7137 70.387 74.7256 70.3899C74.7362 70.3924 74.7427 70.3974 74.745 70.3994C74.7487 70.4026 74.747 70.4026 74.7416 70.392C74.72 70.3494 74.6897 70.2435 74.6509 70.0585C74.5744 69.6943 74.4711 69.0558 74.3314 68.0969L74.2021 68.1157C74.3417 69.0742 74.4456 69.7166 74.523 70.0853C74.561 70.2667 74.5942 70.3903 74.6251 70.4511C74.6328 70.4663 74.6436 70.4843 74.659 70.4978C74.6672 70.505 74.6794 70.5132 74.6956 70.517C74.7131 70.5212 74.7309 70.5191 74.7465 70.5117C74.7735 70.499 74.7867 70.4745 74.7927 70.4617C74.8 70.446 74.8056 70.4275 74.8102 70.4084L74.6831 70.3781ZM75.1944 67.7372C74.9626 68.9819 74.7326 70.1696 74.6831 70.3781L74.8102 70.4084C74.8607 70.1958 75.0915 69.0038 75.3229 67.7611L75.1944 67.7372ZM75.6153 65.4759L75.1944 67.7372L75.3229 67.7611L75.7438 65.4998L75.6153 65.4759ZM76.0927 65.4625L75.6859 65.4228L75.6732 65.5529L76.08 65.5926L76.0927 65.4625ZM76.4997 65.5023L76.0927 65.4625L76.08 65.5926L76.487 65.6323L76.4997 65.5023ZM77.0082 68.0058L76.5576 65.5555L76.429 65.5791L76.8796 68.0294L77.0082 68.0058ZM77.4753 70.4025C77.4918 70.4025 77.5037 70.4089 77.5097 70.413C77.5158 70.4171 77.5194 70.4213 77.5208 70.423C77.5236 70.4263 77.5243 70.4282 77.523 70.4257C77.5208 70.4213 77.517 70.4122 77.5116 70.3966C77.5012 70.3662 77.4877 70.3198 77.4715 70.258C77.4394 70.1349 77.3978 69.956 77.3497 69.7343C77.2536 69.291 77.132 68.6792 77.0082 68.0058L76.8796 68.0294C77.0036 68.7037 77.1255 69.317 77.222 69.762C77.2702 69.9843 77.3122 70.1653 77.3451 70.2911C77.3615 70.3537 77.3759 70.404 77.388 70.4391C77.394 70.4563 77.4001 70.4722 77.4064 70.4847C77.4094 70.4906 77.4139 70.4987 77.4202 70.5064C77.4232 70.51 77.4419 70.5332 77.4753 70.5332V70.4025ZM77.798 68.2048C77.7137 68.8242 77.6281 69.387 77.558 69.7946C77.5229 69.9986 77.4919 70.1629 77.467 70.2759C77.4545 70.3327 77.4439 70.375 77.4353 70.4025C77.4309 70.4167 77.4279 70.4244 77.4263 70.4276C77.4254 70.4295 77.4263 70.427 77.4297 70.423C77.4306 70.4219 77.4459 70.4025 77.4753 70.4025V70.5332C77.5074 70.5332 77.5257 70.5119 77.5299 70.5069C77.5365 70.4989 77.541 70.4905 77.5438 70.4847C77.5498 70.4725 77.5552 70.4572 77.5602 70.4412C77.5703 70.4084 77.5819 70.3618 77.5946 70.304C77.6202 70.1881 77.6516 70.0214 77.6868 69.8167C77.7572 69.4072 77.843 68.8428 77.9275 68.2224L77.798 68.2048ZM78.7587 65.3304C78.6411 65.3169 78.5279 65.3102 78.4301 65.3701C78.3325 65.4299 78.2654 65.5461 78.2065 65.7329C78.0884 66.1073 77.9845 66.8331 77.798 68.2048L77.9275 68.2224C78.115 66.8436 78.2174 66.133 78.3311 65.7722C78.3881 65.5913 78.4433 65.5152 78.4984 65.4815C78.5534 65.4478 78.6234 65.4464 78.7438 65.4602L78.7587 65.3304ZM79.1661 65.6359C79.1705 65.5465 79.1206 65.4742 79.0474 65.4244C78.9751 65.3753 78.8749 65.3437 78.7587 65.3304L78.7438 65.4602C78.8474 65.4721 78.925 65.4993 78.974 65.5326C79.0221 65.5652 79.0371 65.599 79.0355 65.6294L79.1661 65.6359ZM78.5824 69.4653C78.74 68.4679 78.8844 67.5391 78.9901 66.8462C79.0429 66.4997 79.0861 66.2121 79.1164 66.0043C79.1463 65.7992 79.1645 65.6669 79.1661 65.636L79.0355 65.6293C79.0344 65.6523 79.0177 65.7755 78.9871 65.9855C78.9568 66.1928 78.9137 66.4801 78.8609 66.8265C78.7552 67.5191 78.6109 68.4477 78.4533 69.4449L78.5824 69.4653ZM78.0092 73.0917L78.5824 69.4653L78.4533 69.4449L77.8801 73.0713L78.0092 73.0917ZM77.533 73.1468H77.9447V73.0162H77.533V73.1468ZM77.1214 73.1468H77.533V73.0162H77.1214V73.1468ZM76.7624 71.4925L77.0571 73.0933L77.1856 73.0697L76.8909 71.4688L76.7624 71.4925ZM76.2412 68.7821C76.3659 69.3925 76.6004 70.6123 76.7624 71.4925L76.8909 71.4688C76.7289 70.5882 76.4942 69.3674 76.3693 68.7559L76.2412 68.7821ZM76.0883 67.9777C76.0647 67.9767 76.0562 67.9606 76.0604 67.9666C76.063 67.9703 76.068 67.9797 76.0747 67.998C76.0879 68.034 76.1022 68.0893 76.1185 68.1641C76.1513 68.3142 76.1884 68.5236 76.2412 68.7821L76.3693 68.7559C76.3177 68.5036 76.2789 68.2861 76.2462 68.1363C76.2298 68.0611 76.214 67.9982 76.1975 67.9531C76.1893 67.9309 76.1797 67.9091 76.1674 67.8915C76.1566 67.8762 76.133 67.8488 76.0939 67.8471L76.0883 67.9777ZM75.5344 70.8067C75.7351 69.7454 75.8668 69.025 75.96 68.5697C76.0067 68.3418 76.0433 68.1828 76.0736 68.0816C76.089 68.0304 76.1016 67.9977 76.1117 67.9789C76.1168 67.9694 76.1193 67.9671 76.1183 67.968C76.1172 67.969 76.1068 67.9785 76.0883 67.9777L76.0939 67.8471C76.0637 67.8459 76.0413 67.8608 76.0279 67.8737C76.0146 67.8864 76.0045 67.9022 75.9964 67.9173C75.98 67.948 75.9644 67.9909 75.9485 68.0441C75.9163 68.1514 75.8787 68.3155 75.832 68.5435C75.7385 69 75.6064 69.7227 75.406 70.7824L75.5344 70.8067ZM75.1143 73.0283L75.5344 70.8067L75.406 70.7824L74.9859 73.004L75.1143 73.0283ZM74.6409 73.1218L75.0564 73.0812L75.0437 72.9511L74.6281 72.9918L74.6409 73.1218ZM74.0842 72.8104C74.1142 72.9374 74.1554 73.037 74.2537 73.0897C74.345 73.1388 74.4716 73.1383 74.6408 73.1218L74.6282 72.9918C74.4543 73.0087 74.367 73.0023 74.3155 72.9746C74.2709 72.9507 74.2403 72.9028 74.2114 72.7804L74.0842 72.8104ZM80.1317 65.4122C80.109 65.4349 80.0936 65.4684 80.0825 65.4995C80.0706 65.5328 80.0604 65.5729 80.0521 65.6164C80.0355 65.7037 80.0254 65.8102 80.0254 65.9158H80.1561C80.1561 65.8178 80.1655 65.7195 80.1805 65.6409C80.188 65.6016 80.1966 65.5685 80.2056 65.5434C80.21 65.5309 80.2143 65.5213 80.218 65.5142C80.2219 65.5069 80.2242 65.5045 80.224 65.5047L80.1317 65.4122ZM82.0074 65.3059C81.5275 65.3059 81.081 65.3158 80.7481 65.3316C80.5818 65.3395 80.443 65.349 80.3423 65.3596C80.2921 65.3649 80.2501 65.3706 80.2184 65.3768C80.2026 65.3799 80.1879 65.3834 80.1754 65.3875C80.1661 65.3905 80.1466 65.3973 80.1316 65.4123L80.2241 65.5046C80.2152 65.5136 80.2077 65.5144 80.2162 65.5116C80.2214 65.5099 80.2302 65.5076 80.2435 65.5051C80.2696 65.4999 80.3073 65.4947 80.356 65.4896C80.4531 65.4793 80.589 65.47 80.7543 65.4621C81.0846 65.4464 81.529 65.4366 82.0074 65.4366V65.3059ZM83.7498 65.3059H82.0074V65.4366H83.7498V65.3059ZM83.8151 65.8287V65.3713H83.6845V65.8287H83.8151ZM83.1617 66.3514C83.3068 66.3514 83.4201 66.3513 83.5062 66.3436C83.5908 66.3361 83.6625 66.3205 83.7152 66.2795C83.7714 66.2358 83.7943 66.1731 83.8048 66.1015C83.8151 66.0315 83.8151 65.9405 83.8151 65.8287H83.6845C83.6845 65.9443 83.6841 66.0242 83.6755 66.0825C83.6672 66.1394 83.6527 66.1626 83.635 66.1764C83.6138 66.1928 83.5751 66.2063 83.4946 66.2135C83.4156 66.2205 83.3092 66.2207 83.1617 66.2207V66.3514ZM82.5737 66.3514H83.1617V66.2207H82.5737V66.3514ZM82.639 69.6838V66.286H82.5083V69.6838H82.639ZM82.639 73.0815V69.6838H82.5083V73.0815H82.639ZM81.9856 73.1468H82.5737V73.0162H81.9856V73.1468ZM81.3975 73.1468H81.9856V73.0162H81.3975V73.1468ZM81.3322 69.6838V73.0815H81.4629V69.6838H81.3322ZM81.3322 66.286V69.6838H81.4629V66.286H81.3322ZM80.7441 66.3514H81.3975V66.2207H80.7441V66.3514ZM80.0254 65.9158C80.0254 66.0034 80.0265 66.0791 80.0405 66.1392C80.0557 66.2042 80.0872 66.2568 80.1488 66.2917C80.2045 66.3233 80.2791 66.3367 80.3712 66.3436C80.4649 66.3506 80.5871 66.3514 80.7441 66.3514V66.2207C80.5859 66.2207 80.4689 66.2199 80.381 66.2133C80.2915 66.2066 80.2421 66.1944 80.2132 66.178C80.1902 66.165 80.1766 66.1474 80.1678 66.1095C80.1578 66.0667 80.1561 66.0069 80.1561 65.9158H80.0254ZM84.973 65.406C84.9594 65.4196 84.954 65.4364 84.9523 65.4416C84.9496 65.4501 84.9474 65.4595 84.9456 65.4687C84.9419 65.4875 84.9386 65.5119 84.9355 65.5409C84.9293 65.599 84.9234 65.6805 84.9178 65.7821C84.9065 65.9856 84.8965 66.2732 84.888 66.6234C84.8711 67.3239 84.8606 68.2769 84.8606 69.3136H84.9913C84.9913 68.2777 85.0018 67.3257 85.0187 66.6265C85.0271 66.2768 85.0371 65.9908 85.0482 65.7893C85.0538 65.6884 85.0596 65.6096 85.0655 65.5548C85.0684 65.5272 85.0713 65.5071 85.0739 65.4937C85.0752 65.4869 85.0762 65.4834 85.0766 65.4822C85.0781 65.4776 85.0759 65.488 85.0655 65.4984L84.973 65.406ZM85.5801 65.3326C85.4496 65.3216 85.3196 65.3224 85.2146 65.3326C85.1622 65.3378 85.1144 65.3454 85.0752 65.3558C85.0395 65.3653 84.9991 65.3799 84.973 65.406L85.0655 65.4984C85.0651 65.4988 85.0752 65.491 85.1087 65.4822C85.1388 65.4742 85.179 65.4674 85.2273 65.4627C85.3236 65.4533 85.4456 65.4524 85.5692 65.4628L85.5801 65.3326ZM86.0422 65.3715L85.5801 65.3326L85.5692 65.4628L86.0312 65.5017L86.0422 65.3715ZM86.1387 67.1014L86.1021 65.4352L85.9714 65.4381L86.008 67.1042L86.1387 67.1014ZM86.1752 68.7676L86.1387 67.1014L86.008 67.1042L86.0446 68.7704L86.1752 68.7676ZM87.0861 68.7037H86.1099V68.8343H87.0861V68.7037ZM88.0623 68.7037H87.0861V68.8343H88.0623V68.7037ZM87.997 67.0623V68.769H88.1276V67.0623H87.997ZM87.997 65.3555V67.0623H88.1276V65.3555H87.997ZM88.5578 65.331L88.0677 65.2904L88.0569 65.4206L88.547 65.4612L88.5578 65.331ZM89.0478 65.3715L88.5577 65.331L88.547 65.4612L89.037 65.5017L89.0478 65.3715ZM89.1424 69.2585L89.1078 65.436L88.9771 65.4372L89.0117 69.2597L89.1424 69.2585ZM89.177 73.0809L89.1424 69.2585L89.0117 69.2597L89.0463 73.0821L89.177 73.0809ZM88.587 73.1468H89.1117V73.0162H88.587V73.1468ZM88.0623 73.1468H88.587V73.0162H88.0623V73.1468ZM87.997 71.3173V73.0815H88.1276V71.3173H87.997ZM87.997 69.5531V71.3173H88.1276V69.5531H87.997ZM87.0822 69.6184H88.0623V69.4878H87.0822V69.6184ZM86.1021 69.6184H87.0822V69.4878H86.1021V69.6184ZM86.1674 71.3173V69.5531H86.0367V71.3173H86.1674ZM86.1674 73.0815V71.3173H86.0367V73.0815H86.1674ZM85.514 73.1468H86.1021V73.0162H85.514V73.1468ZM84.9259 73.1468H85.514V73.0162H84.9259V73.1468ZM84.8606 69.3136V73.0815H84.9913V69.3136H84.8606ZM63.2981 67.5443V68.8025H63.4288V67.5443H63.2981ZM63.2981 66.286V67.5443H63.4288V66.286H63.2981ZM63.8862 66.2207H63.3634V66.3514H63.8862V66.2207ZM64.997 67.4477C64.997 67.0315 64.9197 66.7211 64.7345 66.5153C64.5478 66.3078 64.2642 66.2207 63.8862 66.2207V66.3514C64.2469 66.3514 64.4861 66.4346 64.6374 66.6027C64.7902 66.7725 64.8663 67.0429 64.8663 67.4477H64.997ZM63.9287 68.7821C64.3053 68.7244 64.5775 68.6059 64.7532 68.3857C64.9278 68.1667 64.997 67.8594 64.997 67.4477H64.8663C64.8663 67.8486 64.7981 68.1197 64.651 68.3042C64.5048 68.4876 64.2706 68.5976 63.909 68.6529L63.9287 68.7821ZM63.3733 68.8671L63.9287 68.7821L63.909 68.6529L63.3536 68.7379L63.3733 68.8671ZM68.7316 66.5594C68.6318 66.7116 68.5796 66.899 68.5549 67.3077C68.5303 67.7163 68.5327 68.3571 68.5501 69.4236L68.6808 69.4215C68.6634 68.3536 68.6611 67.7182 68.6854 67.3156C68.7097 66.913 68.7603 66.7539 68.8409 66.6311L68.7316 66.5594ZM69.6122 66.2467C69.3505 66.2297 69.1776 66.2291 69.0466 66.2743C68.9088 66.3218 68.8252 66.4166 68.7316 66.5594L68.8409 66.6311C68.9302 66.4948 68.9936 66.4308 69.0892 66.3978C69.1914 66.3626 69.3378 66.3599 69.6037 66.3771L69.6122 66.2467ZM70.6143 69.2676C70.6137 68.5855 70.6099 68.0617 70.5907 67.6594C70.5714 67.2581 70.5366 66.972 70.4717 66.768C70.4057 66.5608 70.3067 66.4325 70.1578 66.356C70.0146 66.2824 69.8323 66.261 69.6122 66.2467L69.6037 66.3771C69.826 66.3915 69.9822 66.4127 70.0981 66.4722C70.2082 66.5288 70.2887 66.6242 70.3471 66.8076C70.4065 66.9942 70.4409 67.2657 70.4601 67.6656C70.4792 68.0644 70.4831 68.5852 70.4836 69.2677L70.6143 69.2676ZM69.5634 72.3608C69.7869 72.3597 69.9738 72.3401 70.1232 72.2603C70.2767 72.1783 70.381 72.0384 70.4524 71.8194C70.5229 71.6026 70.5632 71.3024 70.5862 70.8904C70.6091 70.4775 70.6149 69.9471 70.6143 69.2676L70.4836 69.2677C70.4842 69.9472 70.4784 70.4743 70.4557 70.8831C70.4329 71.293 70.3932 71.579 70.3281 71.7789C70.2637 71.9765 70.1767 72.0836 70.0617 72.1451C69.9425 72.2087 69.7837 72.229 69.5628 72.2301L69.5634 72.3608ZM68.8712 72.1649C68.9499 72.2224 69.0667 72.2711 69.1887 72.3053C69.3115 72.3398 69.4461 72.3614 69.5634 72.3608L69.5628 72.2301C69.4603 72.2306 69.338 72.2115 69.224 72.1795C69.1091 72.1473 69.0091 72.1038 68.9482 72.0593L68.8712 72.1649ZM68.5501 69.4236C68.5688 70.5731 68.584 71.2067 68.6242 71.5738C68.6443 71.7573 68.6711 71.8805 68.7109 71.9702C68.7523 72.0635 68.8062 72.1174 68.8712 72.1649L68.9482 72.0593C68.8967 72.0217 68.8602 71.9846 68.8304 71.9173C68.7989 71.8464 68.7738 71.7395 68.7541 71.5596C68.7148 71.2 68.6995 70.574 68.6808 69.4215L68.5501 69.4236ZM27.3295 67.4386C27.3168 67.4713 27.3002 67.5351 27.2812 67.6169C27.2619 67.7006 27.239 67.8077 27.2141 67.9304C27.1642 68.1759 27.1058 68.4847 27.0502 68.7944C26.9945 69.1041 26.9415 69.415 26.9024 69.6645C26.8828 69.7892 26.8667 69.8988 26.8555 69.9854C26.8445 70.0705 26.8376 70.1374 26.8376 70.1739L26.9683 70.1737C26.9683 70.1472 26.9738 70.0888 26.9851 70.0022C26.9961 69.9172 27.012 69.8088 27.0315 69.6847C27.0704 69.4365 27.1232 69.1266 27.1788 68.8176C27.2343 68.5085 27.2925 68.2006 27.3422 67.9564C27.367 67.8343 27.3896 67.7284 27.4086 67.6464C27.428 67.5626 27.4426 67.5082 27.4513 67.4858L27.3295 67.4386ZM27.4515 67.2776C27.4169 67.2786 27.3961 67.3015 27.3881 67.3115C27.3785 67.3235 27.371 67.3377 27.3653 67.3497C27.3539 67.3739 27.3416 67.4072 27.3295 67.4386L27.4513 67.4858C27.4651 67.4502 27.4747 67.4241 27.4835 67.4055C27.4879 67.3962 27.4902 67.3931 27.4901 67.3932C27.4899 67.3934 27.4876 67.3964 27.4827 67.3997C27.4774 67.4032 27.468 67.4078 27.4554 67.4082L27.4515 67.2776ZM27.8661 68.986C27.7471 68.3297 27.6723 67.9146 27.6211 67.664C27.5955 67.5392 27.5753 67.4525 27.5578 67.3966C27.5493 67.3692 27.5401 67.345 27.5294 67.3267C27.524 67.3175 27.5163 67.3063 27.5052 67.2969C27.4934 67.2869 27.4751 67.2769 27.4515 67.2776L27.4554 67.4082C27.4381 67.4087 27.4261 67.4012 27.4207 67.3966C27.4161 67.3927 27.4151 67.39 27.4166 67.3927C27.4196 67.3979 27.4253 67.4105 27.4331 67.4356C27.4484 67.4845 27.4675 67.5653 27.493 67.6902C27.5439 67.9389 27.6183 68.352 27.7375 69.0094L27.8661 68.986ZM28.1089 70.3255L27.8661 68.986L27.7375 69.0094L27.9803 70.3488L28.1089 70.3255ZM27.4739 70.4025H28.0446V70.2718H27.4739V70.4025ZM26.8376 70.1739C26.8377 70.2243 26.8628 70.2649 26.8988 70.2945C26.9333 70.3227 26.9796 70.343 27.032 70.358C27.1373 70.3881 27.2872 70.4025 27.4739 70.4025V70.2718C27.2913 70.2718 27.1558 70.2575 27.068 70.2323C27.0238 70.2197 26.9967 70.2057 26.9818 70.1935C26.9684 70.1825 26.9683 70.1763 26.9683 70.1738L26.8376 70.1739Z" fill="white"/>
<path d="M110.206 64.6367H100.928V80.3185H98.9023V86.4606H110.206L105.436 75.81L110.206 64.6367Z" fill="white" stroke="white" stroke-width="0.130682"/>
<path d="M1.02415 64.6367H10.3026V80.3185H12.3281V86.4606H1.02415L5.79403 75.81L1.02415 64.6367Z" fill="white" stroke="white" stroke-width="0.130682"/>
<path fill-rule="evenodd" clip-rule="evenodd" d="M48.1982 91.4148C47.8143 91.6065 47.4146 92.3378 47.4143 92.8485C47.4141 93.1577 47.4669 93.2079 47.7916 93.2079C48.1188 93.2079 48.1804 93.1476 48.2541 92.7547C48.464 91.636 49.505 91.6457 49.505 92.7663C49.505 93.3082 49.3357 93.6534 48.244 95.3375C47.7876 96.0415 47.4141 96.7619 47.4141 96.9383C47.4141 97.2585 47.4165 97.259 48.7862 97.259C50.1562 97.259 50.1584 97.2585 50.1584 96.9381C50.1584 96.6319 50.1168 96.6153 49.255 96.5787L48.3517 96.5403L49.275 95.1273C50.28 93.5892 50.4932 92.8399 50.1564 92.027C49.8728 91.3423 48.9319 91.0481 48.1982 91.4148ZM52.496 91.4437C51.92 91.7567 51.7919 92.2926 51.7919 94.39C51.7919 96.0111 51.8271 96.3444 52.0308 96.6551C52.6211 97.5557 54.0007 97.529 54.4902 96.6077C54.6921 96.2278 54.7322 95.8531 54.7322 94.3491C54.7322 93.0865 54.6766 92.4128 54.5465 92.1015C54.2319 91.3484 53.2506 91.0336 52.496 91.4437ZM57.1499 91.3645C56.6897 91.5645 56.402 92.0051 56.3334 92.6144C56.2666 93.2064 56.2675 93.2079 56.6755 93.2079C57.0428 93.2079 57.0845 93.1679 57.0845 92.8158C57.0845 92.4007 57.4754 91.9011 57.8003 91.9011C57.9064 91.9011 58.0895 92.0478 58.2069 92.2272C58.5505 92.7515 58.3338 93.3848 57.2041 95.1582C56.6352 96.0511 56.1697 96.8892 56.1697 97.0204C56.1697 97.2369 56.3025 97.259 57.6072 97.259H59.0447V96.9381C59.0447 96.6311 59.0044 96.6154 58.1215 96.5787L57.1982 96.5403L58.1185 95.1196C58.6247 94.3383 59.0761 93.5002 59.1217 93.2574C59.2414 92.6188 59.087 91.9863 58.7289 91.6499C58.389 91.3306 57.5687 91.1823 57.1499 91.3645ZM61.3317 91.3711C60.9153 91.5416 60.608 91.9614 60.5248 92.4729C60.4502 92.9328 60.4599 92.9465 60.8572 92.9465C61.1622 92.9465 61.2663 92.8873 61.2663 92.7143C61.2663 92.3671 61.6397 91.9011 61.9178 91.9011C62.3141 91.9011 62.5732 92.2687 62.5732 92.8312C62.5732 93.2715 62.5134 93.3847 62.1819 93.5734C61.8967 93.7356 61.7905 93.8933 61.7898 94.1553C61.7893 94.3818 61.8588 94.5147 61.9776 94.5147C62.2957 94.5147 62.5732 95.0641 62.5732 95.6938C62.5732 96.382 62.4077 96.6056 61.8982 96.6056C61.5136 96.6056 61.2663 96.3022 61.2663 95.8301C61.2663 95.6148 61.1836 95.5601 60.857 95.5601C60.4544 95.5601 60.4489 95.5686 60.5186 96.088C60.6036 96.7216 60.7974 96.9787 61.3713 97.2185C61.9707 97.4691 62.6295 97.3198 63.0313 96.8423C63.3041 96.518 63.3572 96.3191 63.3572 95.6227C63.3572 94.9411 63.3025 94.7269 63.0545 94.4386L62.7517 94.0867L63.0545 93.7839C63.292 93.5463 63.3572 93.3374 63.3572 92.8132C63.3572 92.4459 63.2967 92.0321 63.2226 91.8939C62.9427 91.3707 61.9817 91.1051 61.3317 91.3711ZM52.8537 92.0994C52.6762 92.2768 52.6413 92.6393 52.6413 94.3018C52.6413 96.4442 52.688 96.6056 53.3081 96.6056C53.5867 96.6056 53.6915 96.5187 53.8047 96.1941C54.006 95.6166 53.9872 92.705 53.7796 92.2931C53.5812 91.8996 53.1447 91.8083 52.8537 92.0994Z" fill="white"/>
<path fill-rule="evenodd" clip-rule="evenodd" d="M37.6418 34.415L37.678 36.2772L38.6254 36.2593L39.5729 36.2415V41.7152V47.1891H41.4504H43.3279L43.4173 44.8042C43.4664 43.4924 43.4929 40.1992 43.4762 37.486L43.4459 32.5527H40.5257H37.6055L37.6418 34.415ZM51.3342 32.7623C50.1547 33.0781 49.4867 33.4689 48.5796 34.3739C47.2213 35.729 46.5659 37.3354 46.417 39.6749C46.0853 44.8811 50.38 48.6232 54.9013 47.0676C56.8748 46.3887 58.4811 44.4646 59.0551 42.0925C59.2815 41.1562 59.2851 38.8247 59.0612 37.9107C58.4108 35.2539 56.3774 33.1152 54.0935 32.6852C53.1382 32.5054 52.1956 32.5318 51.3342 32.7623ZM66.292 32.735C64.0608 33.2771 62.2603 35.1545 61.5792 37.6493C61.4156 38.2482 61.3466 38.9805 61.3449 40.1323C61.3428 41.5615 61.3863 41.8965 61.6931 42.8113C63.2754 47.5277 68.6595 48.9747 72.0343 45.5905C73.451 44.17 74.118 42.3808 74.118 40.0016C74.118 37.6084 73.4425 35.8185 71.9936 34.3723C70.431 32.8129 68.3872 32.226 66.292 32.735ZM51.786 36.7166C50.7888 37.3247 50.2888 38.4499 50.2888 40.0858C50.2888 41.626 50.9034 42.8489 51.9464 43.3836C52.344 43.5875 53.3683 43.5665 53.7911 43.3456C54.7743 42.832 55.2841 41.868 55.3589 40.3808C55.4803 37.9694 54.4779 36.4721 52.7433 36.4737C52.429 36.474 52.0093 36.5805 51.786 36.7166ZM66.5271 36.8242C66.2001 37.0362 65.8403 37.4374 65.6188 37.837C65.2763 38.4547 65.2519 38.5989 65.2519 40.0016C65.2519 41.6248 65.3703 42.0219 66.0835 42.7902C66.5745 43.3191 67.0452 43.53 67.7348 43.53C68.4634 43.53 68.9366 43.3012 69.4741 42.6891C70.8768 41.0914 70.3576 37.3745 68.6309 36.653C67.9316 36.3608 67.1427 36.4251 66.5271 36.8242Z" fill="white"/>
<path fill-rule="evenodd" clip-rule="evenodd" d="M13.5625 39.8848V40.1461H23.3495C29.4246 40.1448 32.585 40.1002 32.585 40.0154C32.585 39.9295 29.329 39.8848 23.0738 39.8848H13.5625ZM87.8345 40.1461H97.6215V39.8848H88.1103C81.8551 39.8848 78.599 39.9295 78.599 40.0154C78.599 40.1002 81.7594 40.1448 87.8345 40.1461Z" fill="white"/>
</g>
<defs>
<clipPath id="clip0_26330_59744">
<rect width="111" height="116" fill="white" transform="translate(0 0.5)"/>
</clipPath>
</defs>
</svg>
