<svg width="108" height="117" viewBox="0 0 108 117" fill="none" xmlns="http://www.w3.org/2000/svg">
<g clip-path="url(#clip0_26330_59641)">
<path d="M54.1944 3.16602L2.933 30.7506L2.87553 58.1628L2.70312 85.8048L54.0794 113.619L105.456 85.9198V30.7506L54.1944 3.16602Z" stroke="white" stroke-width="2.32"/>
<path d="M54.1956 0.851562L0.984708 29.5556L0.925054 58.0803L0.746094 86.8441L54.0763 115.787L107.407 86.9637V29.5556L54.1956 0.851562Z" stroke="white" stroke-width="0.232"/>
<path d="M41.9261 50.3828H44.159V64.1672H41.9261V50.3828Z" fill="white"/>
<path d="M51.9207 59.8001C51.9207 61.9357 50.1729 62.1305 49.5903 62.1305C48.232 62.1305 48.0373 60.8679 48.0373 60.1895V54.8504H45.8042V60.0922C45.8042 61.3547 46.1921 62.5199 46.9694 63.1983C47.6494 63.8782 48.5225 64.1687 49.5903 64.1687C50.3676 64.1687 51.3381 63.974 51.9207 63.3914V64.1687H54.1537V54.8488H51.9207V59.8001Z" fill="white"/>
<path d="M58.52 51.4506H56.2869V54.8488H54.6365V56.9844H56.2869V64.1687H58.52V56.9844H60.1704V54.8488H58.52V51.4506Z" fill="white"/>
<path d="M67.16 61.3532C66.6747 61.7411 65.9947 62.0332 65.3148 62.0332C63.7617 62.0332 62.6939 60.868 62.6939 59.3149C62.6939 57.7619 63.7617 56.694 65.3148 56.694C65.9947 56.694 66.6731 56.8888 67.16 57.374L67.4504 57.6645L69.0035 56.2088L68.6157 55.9183C67.7426 55.141 66.5773 54.6557 65.3148 54.6557C62.5965 54.6557 60.5582 56.694 60.5582 59.4123C60.5582 62.1305 62.5965 64.1688 65.3148 64.1688C66.5773 64.1688 67.7426 63.6836 68.6157 62.9062L69.0035 62.6158L67.4504 61.0627L67.16 61.3532Z" fill="white"/>
<path d="M76.8681 55.6263C76.1882 54.9463 75.5098 54.6558 74.4404 54.6558C73.663 54.6558 72.8874 54.8505 72.3048 55.4331V50.3845H70.0717V64.1689H72.3048V59.0245C72.3048 56.8888 73.7605 56.6941 74.3431 56.6941C75.7014 56.6941 75.6056 57.9567 75.6056 58.635V64.0715H77.8387V58.7324C77.8387 57.4698 77.5481 56.3046 76.8681 55.6263Z" fill="white"/>
<path d="M65.2231 60.9654C66.0808 60.9654 66.7761 60.27 66.7761 59.4123C66.7761 58.5546 66.0808 57.8592 65.2231 57.8592C64.3653 57.8592 63.67 58.5546 63.67 59.4123C63.67 60.27 64.3653 60.9654 65.2231 60.9654Z" fill="white"/>
<path d="M38.8139 60.7706C38.0365 61.5479 36.8729 62.0331 35.6103 62.0331C33.1826 62.0331 31.4365 60.0922 31.4365 57.4697C31.4365 54.8472 33.1842 52.9063 35.7077 52.9063C36.8729 52.9063 38.0382 53.3915 38.9112 54.2646L39.2017 54.5551L40.6574 53.0994L40.3669 52.8089C39.1043 51.5464 37.4539 50.868 35.7077 50.868C32.019 50.7706 29.3008 53.6836 29.3008 57.4697C29.3008 61.2558 32.019 64.1688 35.6103 64.1688C37.3581 64.1688 39.106 63.4888 40.2696 62.2279L40.56 61.9374L39.1043 60.4817L38.8139 60.7722V60.7706Z" fill="white"/>
<path fill-rule="evenodd" clip-rule="evenodd" d="M53.9569 8.77734L8.47656 33.7706L8.51097 45.3799H99.6807V33.5387L53.9569 8.77734ZM99.6807 71.257H8.58766L8.62273 83.0893L54.2007 107.86L99.6807 82.8621V71.257ZM92.0548 42.3789H15.8984V42.6629H92.0548V42.3789ZM15.8984 73.9854H92.0548V74.2693H15.8984V73.9854ZM55.7456 17.1983V16.8935C55.7456 16.5314 55.6992 16.2079 55.6065 15.9231C55.5159 15.636 55.3845 15.392 55.2123 15.1911C55.0423 14.9879 54.838 14.8333 54.5995 14.7273C54.3633 14.6214 54.0983 14.5684 53.8046 14.5684C53.5197 14.5684 53.2581 14.6214 53.0196 14.7273C52.7833 14.8333 52.5791 14.9879 52.4068 15.1911C52.2346 15.392 52.101 15.636 52.0061 15.9231C51.9133 16.2079 51.8669 16.5314 51.8669 16.8935V17.1983C51.8669 17.5604 51.9144 17.885 52.0094 18.1721C52.1043 18.4591 52.2379 18.7031 52.4101 18.9041C52.5846 19.105 52.79 19.2585 53.0262 19.3645C53.2647 19.4705 53.5264 19.5235 53.8112 19.5235C54.1049 19.5235 54.3699 19.4705 54.6062 19.3645C54.8446 19.2585 55.0489 19.105 55.2189 18.9041C55.389 18.7031 55.5192 18.4591 55.6098 18.1721C55.7003 17.885 55.7456 17.5604 55.7456 17.1983ZM55.1129 16.8869V17.1983C55.1129 17.4875 55.0842 17.7437 55.0268 17.9667C54.9694 18.1875 54.8844 18.3741 54.7718 18.5265C54.6614 18.6766 54.5256 18.7904 54.3644 18.8676C54.2032 18.9449 54.0188 18.9836 53.8112 18.9836C53.6125 18.9836 53.4325 18.9449 53.2713 18.8676C53.1123 18.7904 52.9743 18.6766 52.8573 18.5265C52.7425 18.3741 52.6542 18.1875 52.5923 17.9667C52.5305 17.7437 52.4996 17.4875 52.4996 17.1983V16.8869C52.4996 16.5999 52.5305 16.3459 52.5923 16.1251C52.6542 15.9043 52.7414 15.7188 52.854 15.5687C52.9688 15.4185 53.1057 15.3048 53.2647 15.2275C53.4259 15.1502 53.6059 15.1116 53.8046 15.1116C54.01 15.1116 54.1932 15.1502 54.3544 15.2275C54.5178 15.3048 54.6558 15.4185 54.7685 15.5687C54.8811 15.7188 54.9661 15.9043 55.0235 16.1251C55.0831 16.3459 55.1129 16.5999 55.1129 16.8869ZM49.8597 19.4572V15.1579H51.4099V14.6346H49.8597H49.2304H47.6836V15.1579H49.2304V19.4572H49.8597ZM58.4815 17.5659H57.3421V19.4572H56.7028V14.6346H58.4815C58.8458 14.6346 59.1539 14.6975 59.4056 14.8234C59.6573 14.9493 59.8483 15.1237 59.9786 15.3467C60.1089 15.5675 60.174 15.8204 60.174 16.1052C60.174 16.4144 60.1089 16.6783 59.9786 16.8969C59.8483 17.1155 59.6573 17.2822 59.4056 17.397C59.1539 17.5096 58.8458 17.5659 58.4815 17.5659ZM57.3421 15.1579V17.0459H58.4815C58.731 17.0459 58.933 17.0062 59.0876 16.9267C59.2422 16.8472 59.3548 16.7368 59.4255 16.5954C59.4983 16.4541 59.5348 16.2929 59.5348 16.1119C59.5348 15.9462 59.4983 15.7906 59.4255 15.6448C59.3548 15.4991 59.2422 15.3821 59.0876 15.2937C58.933 15.2032 58.731 15.1579 58.4815 15.1579H57.3421ZM35.4411 81.5459V81.8506C35.4411 82.2128 35.3959 82.5374 35.3053 82.8244C35.2148 83.1115 35.0845 83.3555 34.9145 83.5564C34.7445 83.7574 34.5402 83.9108 34.3017 84.0168C34.0654 84.1228 33.8005 84.1758 33.5068 84.1758C33.2219 84.1758 32.9603 84.1228 32.7218 84.0168C32.4855 83.9108 32.2801 83.7574 32.1057 83.5564C31.9335 83.3555 31.7999 83.1115 31.7049 82.8244C31.61 82.5374 31.5625 82.2128 31.5625 81.8506V81.5459C31.5625 81.1838 31.6089 80.8603 31.7016 80.5754C31.7966 80.2883 31.9302 80.0443 32.1024 79.8434C32.2746 79.6403 32.4789 79.4857 32.7152 79.3797C32.9536 79.2737 33.2153 79.2207 33.5002 79.2207C33.7938 79.2207 34.0588 79.2737 34.2951 79.3797C34.5336 79.4857 34.7378 79.6403 34.9079 79.8434C35.0801 80.0443 35.2115 80.2883 35.302 80.5754C35.3948 80.8603 35.4411 81.1838 35.4411 81.5459ZM34.8085 81.8506V81.5393C34.8085 81.2522 34.7787 80.9983 34.7191 80.7775C34.6616 80.5566 34.5766 80.3712 34.464 80.221C34.3514 80.0708 34.2134 79.9571 34.05 79.8798C33.8888 79.8026 33.7055 79.7639 33.5002 79.7639C33.3014 79.7639 33.1215 79.8026 32.9603 79.8798C32.8013 79.9571 32.6644 80.0708 32.5495 80.221C32.4369 80.3712 32.3497 80.5566 32.2879 80.7775C32.2261 80.9983 32.1951 81.2522 32.1951 81.5393V81.8506C32.1951 82.1399 32.2261 82.396 32.2879 82.6191C32.3497 82.8399 32.438 83.0265 32.5529 83.1788C32.6699 83.329 32.8079 83.4427 32.9669 83.52C33.1281 83.5973 33.308 83.6359 33.5068 83.6359C33.7143 83.6359 33.8987 83.5973 34.0599 83.52C34.2211 83.4427 34.3569 83.329 34.4673 83.1788C34.5799 83.0265 34.665 82.8399 34.7224 82.6191C34.7798 82.396 34.8085 82.1399 34.8085 81.8506ZM39.1574 79.2869H39.7934V82.5495C39.7934 82.9116 39.7128 83.213 39.5516 83.4537C39.3904 83.6944 39.1762 83.8755 38.909 83.9969C38.6441 84.1162 38.3559 84.1758 38.0445 84.1758C37.7177 84.1758 37.4218 84.1162 37.1569 83.9969C36.8941 83.8755 36.6854 83.6944 36.5308 83.4537C36.3785 83.213 36.3023 82.9116 36.3023 82.5495V79.2869H36.9349V82.5495C36.9349 82.8012 36.9813 83.0088 37.0741 83.1722C37.1668 83.3356 37.296 83.457 37.4616 83.5365C37.6294 83.616 37.8237 83.6558 38.0445 83.6558C38.2676 83.6558 38.4619 83.616 38.6275 83.5365C38.7953 83.457 38.9256 83.3356 39.0183 83.1722C39.1111 83.0088 39.1574 82.8012 39.1574 82.5495V79.2869ZM42.579 84.1096V79.8103H44.1291V79.2869H42.579H41.9497H40.4028V79.8103H41.9497V84.1096H42.579ZM47.3618 82.8907C47.3618 82.778 47.3442 82.6787 47.3088 82.5926C47.2757 82.5042 47.2161 82.4247 47.13 82.3541C47.0461 82.2834 46.9291 82.2161 46.7789 82.152C46.6309 82.088 46.4433 82.0229 46.2158 81.9566C45.9773 81.8859 45.762 81.8076 45.5699 81.7214C45.3778 81.6331 45.2133 81.5326 45.0764 81.42C44.9395 81.3074 44.8346 81.1782 44.7617 81.0325C44.6889 80.8868 44.6524 80.72 44.6524 80.5323C44.6524 80.3447 44.6911 80.1713 44.7684 80.0123C44.8457 79.8533 44.9561 79.7153 45.0996 79.5983C45.2453 79.4791 45.4187 79.3863 45.6196 79.3201C45.8206 79.2538 46.0447 79.2207 46.292 79.2207C46.6541 79.2207 46.9611 79.2903 47.2128 79.4294C47.4667 79.5663 47.6599 79.7462 47.7924 79.9693C47.9249 80.1901 47.9912 80.4264 47.9912 80.6781H47.3552C47.3552 80.497 47.3166 80.3369 47.2393 80.1978C47.162 80.0565 47.045 79.9461 46.8882 79.8666C46.7314 79.7849 46.5327 79.744 46.292 79.744C46.0646 79.744 45.8769 79.7783 45.7289 79.8467C45.581 79.9152 45.4706 80.0079 45.3977 80.1249C45.327 80.242 45.2917 80.3756 45.2917 80.5257C45.2917 80.6273 45.3127 80.72 45.3546 80.8039C45.3988 80.8857 45.4661 80.9618 45.5567 81.0325C45.6494 81.1032 45.7665 81.1683 45.9078 81.2279C46.0513 81.2875 46.2224 81.3449 46.4212 81.4002C46.695 81.4774 46.9313 81.5636 47.13 81.6585C47.3287 81.7535 47.4921 81.8605 47.6202 81.9798C47.7505 82.0968 47.8465 82.2304 47.9084 82.3806C47.9724 82.5285 48.0044 82.6963 48.0044 82.884C48.0044 83.0806 47.9647 83.2583 47.8852 83.4173C47.8057 83.5763 47.692 83.7121 47.544 83.8247C47.3961 83.9373 47.2183 84.0245 47.0107 84.0864C46.8054 84.146 46.5757 84.1758 46.3218 84.1758C46.0988 84.1758 45.8791 84.1449 45.6627 84.0831C45.4485 84.0212 45.2531 83.9285 45.0764 83.8048C44.902 83.6812 44.7617 83.5288 44.6558 83.3477C44.552 83.1645 44.5001 82.9525 44.5001 82.7118H45.136C45.136 82.8774 45.168 83.0198 45.2321 83.1391C45.2961 83.2561 45.3833 83.3533 45.4937 83.4305C45.6064 83.5078 45.7333 83.5652 45.8747 83.6028C46.0182 83.6381 46.1672 83.6558 46.3218 83.6558C46.5448 83.6558 46.7336 83.6249 46.8882 83.563C47.0428 83.5012 47.1598 83.4129 47.2393 83.2981C47.321 83.1832 47.3618 83.0474 47.3618 82.8907ZM52.5322 81.8506V81.5459C52.5322 81.1838 52.4859 80.8603 52.3931 80.5754C52.3026 80.2883 52.1712 80.0443 51.999 79.8434C51.8289 79.6403 51.6247 79.4857 51.3862 79.3797C51.1499 79.2737 50.885 79.2207 50.5913 79.2207C50.3064 79.2207 50.0448 79.2737 49.8063 79.3797C49.57 79.4857 49.3657 79.6403 49.1935 79.8434C49.0213 80.0443 48.8877 80.2883 48.7927 80.5754C48.7 80.8603 48.6536 81.1838 48.6536 81.5459V81.8506C48.6536 82.2128 48.7011 82.5374 48.796 82.8244C48.891 83.1115 49.0246 83.3555 49.1968 83.5564C49.3713 83.7574 49.5766 83.9108 49.8129 84.0168C50.0514 84.1228 50.313 84.1758 50.5979 84.1758C50.8916 84.1758 51.1566 84.1228 51.3928 84.0168C51.6313 83.9108 51.8356 83.7574 52.0056 83.5564C52.1756 83.3555 52.3059 83.1115 52.3964 82.8244C52.487 82.5374 52.5322 82.2128 52.5322 81.8506ZM51.8996 81.5393V81.8506C51.8996 82.1399 51.8709 82.396 51.8135 82.6191C51.7561 82.8399 51.6711 83.0265 51.5584 83.1788C51.448 83.329 51.3122 83.4427 51.151 83.52C50.9898 83.5973 50.8055 83.6359 50.5979 83.6359C50.3992 83.6359 50.2192 83.5973 50.058 83.52C49.899 83.4427 49.761 83.329 49.644 83.1788C49.5291 83.0265 49.4408 82.8399 49.379 82.6191C49.3172 82.396 49.2863 82.1399 49.2863 81.8506V81.5393C49.2863 81.2522 49.3172 80.9983 49.379 80.7775C49.4408 80.5566 49.528 80.3712 49.6407 80.221C49.7555 80.0708 49.8924 79.9571 50.0514 79.8798C50.2126 79.8026 50.3925 79.7639 50.5913 79.7639C50.7966 79.7639 50.9799 79.8026 51.1411 79.8798C51.3045 79.9571 51.4425 80.0708 51.5551 80.221C51.6677 80.3712 51.7528 80.5566 51.8102 80.7775C51.8698 80.9983 51.8996 81.2522 51.8996 81.5393ZM56.2486 79.2869H56.8845V82.5495C56.8845 82.9116 56.8039 83.213 56.6427 83.4537C56.4815 83.6944 56.2673 83.8755 56.0001 83.9969C55.7352 84.1162 55.447 84.1758 55.1357 84.1758C54.8088 84.1758 54.513 84.1162 54.248 83.9969C53.9852 83.8755 53.7765 83.6944 53.622 83.4537C53.4696 83.213 53.3934 82.9116 53.3934 82.5495V79.2869H54.0261V82.5495C54.0261 82.8012 54.0724 83.0088 54.1652 83.1722C54.2579 83.3356 54.3871 83.457 54.5527 83.5365C54.7205 83.616 54.9148 83.6558 55.1357 83.6558C55.3587 83.6558 55.553 83.616 55.7186 83.5365C55.8864 83.457 56.0167 83.3356 56.1095 83.1722C56.2022 83.0088 56.2486 82.8012 56.2486 82.5495V79.2869ZM59.4846 79.2869H57.8881V84.1096H58.5274V82.1553H59.6587L60.7068 84.1096H61.3892V84.0698L60.2563 82.0219C60.4051 81.9651 60.5376 81.8926 60.6538 81.8042C60.8217 81.6762 60.9497 81.5216 61.0381 81.3405C61.1286 81.1573 61.1739 80.9552 61.1739 80.7344C61.1739 80.4208 61.1076 80.157 60.9751 79.9428C60.8448 79.7264 60.6538 79.563 60.4021 79.4526C60.1526 79.3422 59.8468 79.2869 59.4846 79.2869ZM58.5274 81.6353H59.5045C59.7341 81.6353 59.9251 81.5956 60.0775 81.5161C60.2299 81.4344 60.3447 81.3251 60.422 81.1882C60.4993 81.0513 60.5379 80.9 60.5379 80.7344C60.5379 80.5489 60.5015 80.3866 60.4286 80.2475C60.3557 80.1084 60.2409 80.0013 60.0841 79.9262C59.9296 79.8489 59.7297 79.8103 59.4846 79.8103H58.5274V81.6353ZM64.9796 82.576H65.6156C65.5824 82.8807 65.4952 83.1534 65.3539 83.3941C65.2126 83.6348 65.0127 83.8258 64.7544 83.9671C64.496 84.1062 64.1736 84.1758 63.7872 84.1758C63.5046 84.1758 63.2473 84.1228 63.0155 84.0168C62.7858 83.9108 62.5882 83.7607 62.4226 83.5664C62.257 83.3698 62.1289 83.1347 62.0383 82.8608C61.95 82.5848 61.9059 82.2779 61.9059 81.94V81.4598C61.9059 81.1219 61.95 80.8161 62.0383 80.5423C62.1289 80.2663 62.2581 80.03 62.4259 79.8335C62.5959 79.6369 62.8002 79.4857 63.0386 79.3797C63.2771 79.2737 63.5454 79.2207 63.8435 79.2207C64.2079 79.2207 64.5159 79.2892 64.7676 79.4261C65.0194 79.563 65.2148 79.7529 65.3539 79.9958C65.4952 80.2365 65.5824 80.5158 65.6156 80.8338H64.9796C64.9487 80.6085 64.8913 80.4153 64.8074 80.2541C64.7235 80.0907 64.6042 79.9649 64.4497 79.8765C64.2951 79.7882 64.093 79.744 63.8435 79.744C63.6293 79.744 63.4405 79.7849 63.2771 79.8666C63.1159 79.9483 62.9801 80.0642 62.8697 80.2144C62.7615 80.3645 62.6798 80.5445 62.6246 80.7543C62.5694 80.964 62.5418 81.197 62.5418 81.4531V81.94C62.5418 82.1763 62.5661 82.3982 62.6147 82.6058C62.6655 82.8134 62.7416 82.9955 62.8432 83.1523C62.9448 83.3091 63.074 83.4328 63.2308 83.5233C63.3875 83.6116 63.573 83.6558 63.7872 83.6558C64.0588 83.6558 64.2752 83.6127 64.4364 83.5266C64.5976 83.4405 64.719 83.3168 64.8008 83.1556C64.8847 82.9944 64.9443 82.8012 64.9796 82.576ZM67.1723 84.1096V79.2869H66.533V84.1096H67.1723ZM72.0446 79.2869V84.1096H71.402L68.9742 80.3899V84.1096H68.3349V79.2869H68.9742L71.412 83.0165V79.2869H72.0446ZM76.7413 83.4736V81.7082H74.9892V82.2249H76.1054V83.3047C76.0634 83.3533 76.0027 83.4052 75.9232 83.4604C75.8437 83.5134 75.7333 83.5597 75.592 83.5995C75.4507 83.637 75.2663 83.6558 75.0389 83.6558C74.8335 83.6558 74.6458 83.616 74.4758 83.5365C74.308 83.457 74.1633 83.3411 74.0419 83.1888C73.9204 83.0342 73.8266 82.8476 73.7603 82.629C73.6963 82.4104 73.6643 82.162 73.6643 81.8837V81.5028C73.6643 81.2312 73.6897 80.9872 73.7405 80.7708C73.7935 80.5544 73.8729 80.37 73.9789 80.2177C74.0849 80.0653 74.2196 79.9483 74.383 79.8666C74.5464 79.7849 74.7396 79.744 74.9627 79.744C75.21 79.744 75.412 79.7882 75.5688 79.8765C75.7256 79.9626 75.8459 80.0775 75.9298 80.221C76.016 80.3645 76.0734 80.5235 76.1021 80.698H76.7413C76.7016 80.4131 76.6111 80.1592 76.4697 79.9361C76.3306 79.7131 76.1363 79.5387 75.8868 79.4128C75.6395 79.2847 75.3314 79.2207 74.9627 79.2207C74.6513 79.2207 74.3753 79.2726 74.1346 79.3764C73.8939 79.478 73.6908 79.6281 73.5252 79.8268C73.3596 80.0234 73.2337 80.263 73.1476 80.5456C73.0637 80.8282 73.0217 81.1495 73.0217 81.5095V81.8837C73.0217 82.2437 73.0703 82.5661 73.1674 82.8509C73.2668 83.1336 73.4059 83.3742 73.5848 83.573C73.7659 83.7695 73.9789 83.9197 74.224 84.0234C74.4714 84.125 74.7419 84.1758 75.0355 84.1758C75.3955 84.1758 75.6892 84.1361 75.9166 84.0566C76.1462 83.9749 76.3262 83.8799 76.4565 83.7717C76.5868 83.6613 76.6817 83.5619 76.7413 83.4736ZM50.0852 94.8112V95.3146H46.9287V94.8741L48.5086 93.1153C48.7029 92.8989 48.8531 92.7156 48.9591 92.5655C49.0673 92.4131 49.1424 92.2773 49.1843 92.1581C49.2285 92.0366 49.2506 91.913 49.2506 91.7871C49.2506 91.6281 49.2174 91.4846 49.1512 91.3565C49.0872 91.2262 48.9922 91.1225 48.8663 91.0452C48.7405 90.9679 48.5881 90.9292 48.4092 90.9292C48.1951 90.9292 48.0162 90.9712 47.8727 91.0551C47.7313 91.1368 47.6254 91.2516 47.5547 91.3996C47.484 91.5475 47.4487 91.7176 47.4487 91.9097H46.8359C46.8359 91.6381 46.8956 91.3896 47.0148 91.1644C47.134 90.9392 47.3107 90.7603 47.5448 90.6278C47.7788 90.4931 48.067 90.4258 48.4092 90.4258C48.714 90.4258 48.9745 90.4799 49.1909 90.5881C49.4073 90.6941 49.5729 90.8442 49.6878 91.0385C49.8048 91.2307 49.8633 91.4559 49.8633 91.7142C49.8633 91.8556 49.839 91.9991 49.7904 92.1448C49.7441 92.2884 49.6789 92.4319 49.595 92.5754C49.5133 92.7189 49.4173 92.8603 49.3069 92.9994C49.1987 93.1385 49.0827 93.2754 48.9591 93.4101L47.6673 94.8112H50.0852ZM53.7684 92.5191V93.2544C53.7684 93.6497 53.7331 93.9831 53.6624 94.2547C53.5918 94.5263 53.4902 94.7449 53.3577 94.9105C53.2252 95.0762 53.0651 95.1965 52.8774 95.2716C52.692 95.3444 52.4822 95.3809 52.2481 95.3809C52.0626 95.3809 51.8915 95.3577 51.7347 95.3113C51.5779 95.265 51.4366 95.191 51.3108 95.0894C51.1871 94.9856 51.0811 94.8509 50.9928 94.6853C50.9045 94.5197 50.8371 94.3188 50.7907 94.0825C50.7444 93.8462 50.7212 93.5702 50.7212 93.2544V92.5191C50.7212 92.1239 50.7565 91.7926 50.8272 91.5254C50.9 91.2583 51.0027 91.0441 51.1352 90.8829C51.2677 90.7195 51.4267 90.6024 51.6122 90.5318C51.7999 90.4611 52.0096 90.4258 52.2415 90.4258C52.4292 90.4258 52.6014 90.449 52.7582 90.4953C52.9172 90.5395 53.0585 90.6113 53.1822 90.7106C53.3058 90.8078 53.4107 90.9381 53.4968 91.1015C53.5852 91.2627 53.6525 91.4603 53.6989 91.6944C53.7453 91.9284 53.7684 92.2033 53.7684 92.5191ZM53.1524 93.3538V92.4164C53.1524 92.2 53.1391 92.0101 53.1126 91.8467C53.0883 91.6811 53.0519 91.5398 53.0033 91.4228C52.9547 91.3057 52.8929 91.2108 52.8178 91.1379C52.745 91.065 52.6599 91.012 52.5628 90.9789C52.4678 90.9436 52.3607 90.9259 52.2415 90.9259C52.0958 90.9259 51.9666 90.9535 51.854 91.0087C51.7414 91.0617 51.6464 91.1467 51.5691 91.2638C51.494 91.3808 51.4366 91.5343 51.3969 91.7242C51.3571 91.9141 51.3373 92.1448 51.3373 92.4164V93.3538C51.3373 93.5702 51.3494 93.7612 51.3737 93.9268C51.4002 94.0924 51.4388 94.236 51.4896 94.3574C51.5404 94.4766 51.6022 94.5749 51.6751 94.6522C51.748 94.7295 51.8319 94.7869 51.9268 94.8244C52.024 94.8598 52.1311 94.8774 52.2481 94.8774C52.3983 94.8774 52.5297 94.8487 52.6423 94.7913C52.7549 94.7339 52.8487 94.6445 52.9238 94.523C53.0011 94.3994 53.0585 94.2415 53.0961 94.0494C53.1336 93.855 53.1524 93.6232 53.1524 93.3538ZM57.7166 95.3146V94.8112H55.2987L56.5905 93.4101C56.7141 93.2754 56.83 93.1385 56.9382 92.9994C57.0487 92.8603 57.1447 92.7189 57.2264 92.5754C57.3103 92.4319 57.3755 92.2884 57.4218 92.1448C57.4704 91.9991 57.4947 91.8556 57.4947 91.7142C57.4947 91.4559 57.4362 91.2307 57.3192 91.0385C57.2043 90.8442 57.0387 90.6941 56.8223 90.5881C56.6059 90.4799 56.3454 90.4258 56.0406 90.4258C55.6984 90.4258 55.4102 90.4931 55.1761 90.6278C54.9421 90.7603 54.7654 90.9392 54.6462 91.1644C54.5269 91.3896 54.4673 91.6381 54.4673 91.9097H55.0801C55.0801 91.7176 55.1154 91.5475 55.1861 91.3996C55.2567 91.2516 55.3627 91.1368 55.504 91.0551C55.6476 90.9712 55.8264 90.9292 56.0406 90.9292C56.2195 90.9292 56.3719 90.9679 56.4977 91.0452C56.6236 91.1225 56.7185 91.2262 56.7826 91.3565C56.8488 91.4846 56.8819 91.6281 56.8819 91.7871C56.8819 91.913 56.8599 92.0366 56.8157 92.1581C56.7737 92.2773 56.6987 92.4131 56.5905 92.5655C56.4845 92.7156 56.3343 92.8989 56.14 93.1153L54.5601 94.8741V95.3146H57.7166ZM59.2667 92.6019H59.704C59.9182 92.6019 60.0948 92.5666 60.2339 92.4959C60.3752 92.4231 60.4801 92.3248 60.5486 92.2011C60.6192 92.0753 60.6546 91.934 60.6546 91.7772C60.6546 91.5917 60.6237 91.436 60.5618 91.3102C60.5 91.1843 60.4073 91.0893 60.2836 91.0253C60.1599 90.9613 60.0032 90.9292 59.8133 90.9292C59.641 90.9292 59.4887 90.9635 59.3562 91.0319C59.2259 91.0982 59.1232 91.1931 59.0481 91.3168C58.9753 91.4404 58.9388 91.5862 58.9388 91.754H58.3261C58.3261 91.5089 58.3879 91.2859 58.5116 91.0849C58.6352 90.884 58.8086 90.7239 59.0316 90.6046C59.2568 90.4854 59.5174 90.4258 59.8133 90.4258C60.1047 90.4258 60.3598 90.4777 60.5784 90.5815C60.797 90.683 60.967 90.8354 61.0885 91.0385C61.2099 91.2395 61.2706 91.4901 61.2706 91.7904C61.2706 91.9119 61.2419 92.0422 61.1845 92.1813C61.1293 92.3182 61.0421 92.4462 60.9229 92.5655C60.8176 92.6727 60.6837 92.763 60.5213 92.8363C60.5316 92.8398 60.5418 92.8434 60.5519 92.847C60.7528 92.9199 60.9107 93.0171 61.0255 93.1385C61.1426 93.2599 61.2243 93.3935 61.2706 93.5393C61.3192 93.6828 61.3435 93.8263 61.3435 93.9699C61.3435 94.1951 61.3049 94.3949 61.2276 94.5694C61.1525 94.7438 61.0454 94.8918 60.9063 95.0132C60.7694 95.1347 60.6082 95.2263 60.4227 95.2881C60.2372 95.35 60.0352 95.3809 59.8166 95.3809C59.6068 95.3809 59.4092 95.3511 59.2237 95.2915C59.0404 95.2318 58.8781 95.1457 58.7368 95.0331C58.5955 94.9183 58.4851 94.7781 58.4056 94.6124C58.3261 94.4446 58.2863 94.2536 58.2863 94.0394H58.8991C58.8991 94.2072 58.9355 94.3541 59.0084 94.4799C59.0835 94.6058 59.1895 94.7041 59.3264 94.7747C59.4655 94.8432 59.6289 94.8774 59.8166 94.8774C60.0043 94.8774 60.1655 94.8454 60.3002 94.7814C60.4371 94.7151 60.542 94.6158 60.6148 94.4833C60.6899 94.3508 60.7274 94.1841 60.7274 93.9831C60.7274 93.7822 60.6855 93.6177 60.6016 93.4896C60.5177 93.3593 60.3984 93.2633 60.2439 93.2014C60.0915 93.1374 59.9115 93.1054 59.704 93.1054H59.2667V92.9729V92.7377V92.6019ZM45.6086 27.3536C45.6086 27.241 45.591 27.1416 45.5556 27.0555C45.5225 26.9672 45.4629 26.8877 45.3768 26.817C45.2929 26.7464 45.1758 26.679 45.0257 26.615C44.8777 26.551 44.69 26.4858 44.4626 26.4196C44.2241 26.3489 44.0088 26.2705 43.8167 26.1844C43.6246 26.0961 43.4601 25.9956 43.3232 25.883C43.1863 25.7704 43.0814 25.6412 43.0085 25.4955C42.9357 25.3497 42.8992 25.183 42.8992 24.9953C42.8992 24.8076 42.9379 24.6343 43.0151 24.4753C43.0924 24.3163 43.2028 24.1783 43.3464 24.0613C43.4921 23.942 43.6654 23.8493 43.8664 23.783C44.0673 23.7168 44.2915 23.6837 44.5388 23.6837C44.9009 23.6837 45.2078 23.7532 45.4596 23.8923C45.7135 24.0292 45.9067 24.2092 46.0392 24.4322C46.1717 24.653 46.2379 24.8893 46.2379 25.141H45.602C45.602 24.96 45.5634 24.7999 45.4861 24.6608C45.4088 24.5195 45.2918 24.409 45.135 24.3296C44.9782 24.2478 44.7795 24.207 44.5388 24.207C44.3113 24.207 44.1236 24.2412 43.9757 24.3097C43.8277 24.3781 43.7173 24.4709 43.6445 24.5879C43.5738 24.7049 43.5385 24.8385 43.5385 24.9887C43.5385 25.0903 43.5595 25.183 43.6014 25.2669C43.6456 25.3486 43.7129 25.4248 43.8035 25.4955C43.8962 25.5661 44.0132 25.6313 44.1546 25.6909C44.2981 25.7505 44.4692 25.8079 44.6679 25.8631C44.9418 25.9404 45.178 26.0265 45.3768 26.1215C45.5755 26.2164 45.7389 26.3235 45.867 26.4428C45.9973 26.5598 46.0933 26.6934 46.1551 26.8435C46.2192 26.9915 46.2512 27.1593 46.2512 27.347C46.2512 27.5435 46.2114 27.7213 46.132 27.8803C46.0525 28.0393 45.9387 28.1751 45.7908 28.2877C45.6428 28.4003 45.4651 28.4875 45.2575 28.5493C45.0522 28.609 44.8225 28.6388 44.5686 28.6388C44.3456 28.6388 44.1258 28.6079 43.9094 28.546C43.6953 28.4842 43.4998 28.3915 43.3232 28.2678C43.1487 28.1441 43.0085 27.9918 42.9025 27.8107C42.7987 27.6274 42.7469 27.4154 42.7469 27.1748H43.3828C43.3828 27.3404 43.4148 27.4828 43.4789 27.602C43.5429 27.7191 43.6301 27.8162 43.7405 27.8935C43.8531 27.9708 43.9801 28.0282 44.1214 28.0657C44.265 28.1011 44.414 28.1187 44.5686 28.1187C44.7916 28.1187 44.9804 28.0878 45.135 28.026C45.2895 27.9642 45.4066 27.8758 45.4861 27.761C45.5678 27.6462 45.6086 27.5104 45.6086 27.3536ZM36.3774 28.5725V23.7499H35.7382V28.5725H36.3774ZM39.2226 28.5725V24.2732H40.7728V23.7499H39.2226H38.5933H37.0465V24.2732H38.5933V28.5725H39.2226ZM50.1298 28.5725V28.0525H47.7053V26.3434H49.792V25.8234H47.7053V24.2732H50.0967V23.7499H47.7053H47.5761H47.066V28.5725H47.5761H47.7053H50.1298ZM50.9214 23.7499H52.5179C52.8801 23.7499 53.1859 23.8051 53.4354 23.9155C53.6872 24.0259 53.8782 24.1893 54.0084 24.4057C54.1409 24.6199 54.2072 24.8838 54.2072 25.1974C54.2072 25.4182 54.1619 25.6202 54.0714 25.8035C53.983 25.9846 53.855 26.1391 53.6872 26.2672C53.571 26.3555 53.4385 26.4281 53.2896 26.4848L54.4225 28.5328V28.5725H53.7402L52.692 26.6183H51.5607V28.5725H50.9214V23.7499ZM52.5378 26.0983H51.5607V24.2732H52.5179C52.763 24.2732 52.9629 24.3119 53.1175 24.3892C53.2742 24.4642 53.3891 24.5713 53.4619 24.7105C53.5348 24.8496 53.5712 25.0119 53.5712 25.1974C53.5712 25.363 53.5326 25.5142 53.4553 25.6511C53.378 25.788 53.2632 25.8973 53.1108 25.979C52.9585 26.0585 52.7675 26.0983 52.5378 26.0983ZM56.4264 28.5725H56.3535L54.5715 23.7499H55.2638L56.6319 27.7256L58.0129 23.7499H58.7052L56.9199 28.5725H56.847H56.4264ZM60.04 23.7499V28.5725H59.4008V23.7499H60.04ZM64.75 27.039H64.1141C64.0787 27.2642 64.0191 27.4574 63.9352 27.6186C63.8535 27.7798 63.7321 27.9035 63.5709 27.9896C63.4097 28.0757 63.1933 28.1187 62.9217 28.1187C62.7075 28.1187 62.522 28.0746 62.3652 27.9863C62.2084 27.8957 62.0792 27.7721 61.9777 27.6153C61.8761 27.4585 61.7999 27.2763 61.7491 27.0688C61.7006 26.8612 61.6763 26.6393 61.6763 26.403V25.9161C61.6763 25.66 61.7039 25.427 61.7591 25.2172C61.8143 25.0075 61.896 24.8275 62.0042 24.6773C62.1146 24.5272 62.2504 24.4113 62.4116 24.3296C62.575 24.2478 62.7638 24.207 62.978 24.207C63.2275 24.207 63.4295 24.2512 63.5841 24.3395C63.7387 24.4278 63.8579 24.5537 63.9418 24.7171C64.0257 24.8783 64.0831 25.0715 64.1141 25.2967H64.75C64.7169 24.9787 64.6297 24.6994 64.4883 24.4587C64.3492 24.2158 64.1538 24.0259 63.9021 23.889C63.6503 23.7521 63.3423 23.6837 62.978 23.6837C62.6799 23.6837 62.4116 23.7367 62.1731 23.8427C61.9346 23.9486 61.7304 24.0999 61.5603 24.2964C61.3925 24.493 61.2633 24.7292 61.1728 25.0052C61.0845 25.2791 61.0403 25.5849 61.0403 25.9227V26.403C61.0403 26.7409 61.0845 27.0478 61.1728 27.3238C61.2633 27.5976 61.3914 27.8328 61.557 28.0293C61.7226 28.2236 61.9203 28.3738 62.1499 28.4798C62.3818 28.5858 62.639 28.6388 62.9217 28.6388C63.3081 28.6388 63.6305 28.5692 63.8888 28.4301C64.1472 28.2888 64.347 28.0978 64.4883 27.8571C64.6297 27.6164 64.7169 27.3437 64.75 27.039ZM68.6849 28.0525V28.5725H66.2604H66.1312H65.6211V23.7499H66.1312H66.2604H68.6518V24.2732H66.2604V25.8234H68.3471V26.3434H66.2604V28.0525H68.6849ZM71.9939 27.0555C72.0292 27.1416 72.0469 27.241 72.0469 27.3536C72.0469 27.5104 72.006 27.6462 71.9243 27.761C71.8448 27.8758 71.7278 27.9642 71.5732 28.026C71.4186 28.0878 71.2298 28.1187 71.0068 28.1187C70.8522 28.1187 70.7032 28.1011 70.5597 28.0657C70.4183 28.0282 70.2914 27.9708 70.1788 27.8935C70.0684 27.8162 69.9811 27.7191 69.9171 27.602C69.8531 27.4828 69.821 27.3404 69.821 27.1748H69.1851C69.1851 27.4154 69.237 27.6274 69.3408 27.8107C69.4468 27.9918 69.587 28.1441 69.7614 28.2678C69.9381 28.3915 70.1335 28.4842 70.3477 28.546C70.5641 28.6079 70.7838 28.6388 71.0068 28.6388C71.2608 28.6388 71.4904 28.609 71.6958 28.5493C71.9033 28.4875 72.0811 28.4003 72.229 28.2877C72.377 28.1751 72.4907 28.0393 72.5702 27.8803C72.6497 27.7213 72.6894 27.5435 72.6894 27.347C72.6894 27.1593 72.6574 26.9915 72.5934 26.8435C72.5315 26.6934 72.4355 26.5598 72.3052 26.4428C72.1771 26.3235 72.0137 26.2164 71.815 26.1215C71.6163 26.0265 71.38 25.9404 71.1062 25.8631C70.9075 25.8079 70.7363 25.7505 70.5928 25.6909C70.4515 25.6313 70.3344 25.5661 70.2417 25.4955C70.1512 25.4248 70.0838 25.3486 70.0396 25.2669C69.9977 25.183 69.9767 25.0903 69.9767 24.9887C69.9767 24.8385 70.012 24.7049 70.0827 24.5879C70.1556 24.4709 70.266 24.3781 70.4139 24.3097C70.5619 24.2412 70.7496 24.207 70.977 24.207C71.2177 24.207 71.4164 24.2478 71.5732 24.3296C71.73 24.409 71.847 24.5195 71.9243 24.6608C72.0016 24.7999 72.0402 24.96 72.0402 25.141H72.6762C72.6762 24.8893 72.6099 24.653 72.4774 24.4322C72.345 24.2092 72.1517 24.0292 71.8978 23.8923C71.6461 23.7532 71.3391 23.6837 70.977 23.6837C70.7297 23.6837 70.5056 23.7168 70.3046 23.783C70.1037 23.8493 69.9303 23.942 69.7846 24.0613C69.6411 24.1783 69.5307 24.3163 69.4534 24.4753C69.3761 24.6343 69.3375 24.8076 69.3375 24.9953C69.3375 25.183 69.3739 25.3497 69.4468 25.4955C69.5196 25.6412 69.6245 25.7704 69.7614 25.883C69.8983 25.9956 70.0628 26.0961 70.2549 26.1844C70.4471 26.2705 70.6623 26.3489 70.9008 26.4196C71.1283 26.4858 71.316 26.551 71.4639 26.615C71.6141 26.679 71.7311 26.7464 71.815 26.817C71.9011 26.8877 71.9607 26.9672 71.9939 27.0555ZM42.2097 37.1004H41.5738C41.5384 37.3256 41.4788 37.5189 41.3949 37.68C41.3132 37.8412 41.1917 37.9649 41.0305 38.051C40.8694 38.1371 40.653 38.1802 40.3813 38.1802C40.1672 38.1802 39.9817 38.136 39.8249 38.0477C39.6681 37.9572 39.5389 37.8335 39.4374 37.6767C39.3358 37.52 39.2596 37.3378 39.2088 37.1302C39.1602 36.9227 39.1359 36.7007 39.1359 36.4645V35.9776C39.1359 35.7214 39.1636 35.4885 39.2188 35.2787C39.274 35.0689 39.3557 34.8889 39.4639 34.7388C39.5743 34.5886 39.7101 34.4727 39.8713 34.391C40.0347 34.3093 40.2235 34.2684 40.4377 34.2684C40.6872 34.2684 40.8892 34.3126 41.0438 34.4009C41.1984 34.4893 41.3176 34.6151 41.4015 34.7785C41.4854 34.9397 41.5428 35.1329 41.5738 35.3582H42.2097C42.1766 35.0402 42.0894 34.7609 41.948 34.5202C41.8089 34.2773 41.6135 34.0874 41.3618 33.9505C41.11 33.8136 40.802 33.7451 40.4377 33.7451C40.1396 33.7451 39.8713 33.7981 39.6328 33.9041C39.3943 34.0101 39.19 34.1614 39.02 34.3579C38.8522 34.5544 38.723 34.7907 38.6325 35.0667C38.5442 35.3405 38.5 35.6463 38.5 35.9842V36.4645C38.5 36.8023 38.5442 37.1092 38.6325 37.3853C38.723 37.6591 38.8511 37.8942 39.0167 38.0908C39.1823 38.2851 39.3799 38.4352 39.6096 38.5412C39.8415 38.6472 40.0987 38.7002 40.3813 38.7002C40.7678 38.7002 41.0902 38.6307 41.3485 38.4915C41.6069 38.3502 41.8067 38.1592 41.948 37.9185C42.0894 37.6778 42.1766 37.4051 42.2097 37.1004ZM46.7938 36.375V36.0703C46.7938 35.7082 46.7475 35.3847 46.6547 35.0998C46.5642 34.8128 46.4328 34.5688 46.2606 34.3678C46.0905 34.1647 45.8863 34.0101 45.6478 33.9041C45.4115 33.7981 45.1465 33.7451 44.8529 33.7451C44.568 33.7451 44.3063 33.7981 44.0679 33.9041C43.8316 34.0101 43.6273 34.1647 43.4551 34.3678C43.2829 34.5688 43.1493 34.8128 43.0543 35.0998C42.9616 35.3847 42.9152 35.7082 42.9152 36.0703V36.375C42.9152 36.7372 42.9627 37.0618 43.0576 37.3488C43.1526 37.6359 43.2862 37.8799 43.4584 38.0808C43.6329 38.2818 43.8382 38.4352 44.0745 38.5412C44.313 38.6472 44.5746 38.7002 44.8595 38.7002C45.1532 38.7002 45.4181 38.6472 45.6544 38.5412C45.8929 38.4352 46.0972 38.2818 46.2672 38.0808C46.4372 37.8799 46.5675 37.6359 46.658 37.3488C46.7486 37.0618 46.7938 36.7372 46.7938 36.375ZM46.1612 36.0637V36.375C46.1612 36.6643 46.1325 36.9204 46.0751 37.1435C46.0177 37.3643 45.9326 37.5509 45.82 37.7032C45.7096 37.8534 45.5738 37.9671 45.4126 38.0444C45.2514 38.1217 45.0671 38.1603 44.8595 38.1603C44.6608 38.1603 44.4808 38.1217 44.3196 38.0444C44.1606 37.9671 44.0226 37.8534 43.9056 37.7032C43.7907 37.5509 43.7024 37.3643 43.6406 37.1435C43.5788 36.9204 43.5478 36.6643 43.5478 36.375V36.0637C43.5478 35.7766 43.5788 35.5227 43.6406 35.3019C43.7024 35.0811 43.7896 34.8956 43.9023 34.7454C44.0171 34.5953 44.154 34.4815 44.313 34.4043C44.4742 34.327 44.6541 34.2883 44.8529 34.2883C45.0582 34.2883 45.2415 34.327 45.4027 34.4043C45.5661 34.4815 45.7041 34.5953 45.8167 34.7454C45.9293 34.8956 46.0144 35.0811 46.0718 35.3019C46.1314 35.5227 46.1612 35.7766 46.1612 36.0637ZM48.2976 33.8114H48.5725L50.1524 37.743L51.7291 33.8114H52.004H52.3518H52.5505V38.634H51.9145V36.7526L51.9759 34.7359L50.3909 38.634H49.9073L48.3255 34.7304L48.387 36.7526V38.634H47.7511V33.8114H47.9531H48.2976ZM54.3126 36.7427H55.452C55.8163 36.7427 56.1244 36.6864 56.3761 36.5738C56.6278 36.4589 56.8189 36.2922 56.9491 36.0736C57.0794 35.855 57.1446 35.5911 57.1446 35.282C57.1446 34.9971 57.0794 34.7443 56.9491 34.5235C56.8189 34.3005 56.6278 34.126 56.3761 34.0002C56.1244 33.8743 55.8163 33.8114 55.452 33.8114H53.6733V38.634H54.3126V36.7427ZM54.3126 34.3347H55.452C55.7015 34.3347 55.9036 34.38 56.0581 34.4705C56.2127 34.5588 56.3253 34.6759 56.396 34.8216C56.4689 34.9673 56.5053 35.123 56.5053 35.2886C56.5053 35.4697 56.4689 35.6309 56.396 35.7722C56.3253 35.9135 56.2127 36.0239 56.0581 36.1034C55.9036 36.1829 55.7015 36.2227 55.452 36.2227H54.3126V34.3347ZM59.43 33.8114H59.2909H59.0093H58.8702L57.0319 38.634H57.6844L58.1428 37.372H60.1598L60.6191 38.634H61.2749L59.43 33.8114ZM59.9693 36.8487H58.3329L59.1502 34.5985L59.9693 36.8487ZM64.9879 38.634H65.6305V33.8114H64.9979V37.5409L62.5601 33.8114H61.9208V38.634H62.5601V34.9143L64.9879 38.634ZM66.8925 33.8114L68.1445 36.2326L69.3998 33.8114H70.1252L68.4625 36.8321V38.634H67.8232V36.8321L66.1605 33.8114H66.8925Z" fill="white"/>
</g>
<defs>
<clipPath id="clip0_26330_59641">
<rect width="108" height="116" fill="white" transform="translate(0 0.5)"/>
</clipPath>
</defs>
</svg>
